%TF.GenerationSoftware,KiCad,Pcbnew,9.0.6*%
%TF.CreationDate,2025-12-15T22:36:05-06:00*%
%TF.ProjectId,turn-taker,7475726e-2d74-4616-9b65-722e6b696361,rev?*%
%TF.SameCoordinates,Original*%
%TF.FileFunction,Legend,Top*%
%TF.FilePolarity,Positive*%
%FSLAX46Y46*%
G04 Gerber Fmt 4.6, Leading zero omitted, Abs format (unit mm)*
G04 Created by KiCad (PCBNEW 9.0.6) date 2025-12-15 22:36:05*
%MOMM*%
%LPD*%
G01*
G04 APERTURE LIST*
%ADD10C,0.150000*%
%ADD11C,0.120000*%
%ADD12C,0.127000*%
%ADD13C,0.200000*%
G04 APERTURE END LIST*
D10*
X169884398Y-112625057D02*
X171598684Y-112625057D01*
X170741541Y-115625057D02*
X170741541Y-112625057D01*
X173884398Y-113625057D02*
X173884398Y-115625057D01*
X172598683Y-113625057D02*
X172598683Y-115196485D01*
X172598683Y-115196485D02*
X172741540Y-115482200D01*
X172741540Y-115482200D02*
X173027255Y-115625057D01*
X173027255Y-115625057D02*
X173455826Y-115625057D01*
X173455826Y-115625057D02*
X173741540Y-115482200D01*
X173741540Y-115482200D02*
X173884398Y-115339342D01*
X175312969Y-115625057D02*
X175312969Y-113625057D01*
X175312969Y-114196485D02*
X175455826Y-113910771D01*
X175455826Y-113910771D02*
X175598684Y-113767914D01*
X175598684Y-113767914D02*
X175884398Y-113625057D01*
X175884398Y-113625057D02*
X176170112Y-113625057D01*
X177170112Y-113625057D02*
X177170112Y-115625057D01*
X177170112Y-113910771D02*
X177312969Y-113767914D01*
X177312969Y-113767914D02*
X177598684Y-113625057D01*
X177598684Y-113625057D02*
X178027255Y-113625057D01*
X178027255Y-113625057D02*
X178312969Y-113767914D01*
X178312969Y-113767914D02*
X178455827Y-114053628D01*
X178455827Y-114053628D02*
X178455827Y-115625057D01*
X181741541Y-112625057D02*
X183455827Y-112625057D01*
X182598684Y-115625057D02*
X182598684Y-112625057D01*
X185741541Y-115625057D02*
X185741541Y-114053628D01*
X185741541Y-114053628D02*
X185598683Y-113767914D01*
X185598683Y-113767914D02*
X185312969Y-113625057D01*
X185312969Y-113625057D02*
X184741541Y-113625057D01*
X184741541Y-113625057D02*
X184455826Y-113767914D01*
X185741541Y-115482200D02*
X185455826Y-115625057D01*
X185455826Y-115625057D02*
X184741541Y-115625057D01*
X184741541Y-115625057D02*
X184455826Y-115482200D01*
X184455826Y-115482200D02*
X184312969Y-115196485D01*
X184312969Y-115196485D02*
X184312969Y-114910771D01*
X184312969Y-114910771D02*
X184455826Y-114625057D01*
X184455826Y-114625057D02*
X184741541Y-114482200D01*
X184741541Y-114482200D02*
X185455826Y-114482200D01*
X185455826Y-114482200D02*
X185741541Y-114339342D01*
X187170112Y-115625057D02*
X187170112Y-112625057D01*
X187455827Y-114482200D02*
X188312969Y-115625057D01*
X188312969Y-113625057D02*
X187170112Y-114767914D01*
X190741540Y-115482200D02*
X190455826Y-115625057D01*
X190455826Y-115625057D02*
X189884398Y-115625057D01*
X189884398Y-115625057D02*
X189598683Y-115482200D01*
X189598683Y-115482200D02*
X189455826Y-115196485D01*
X189455826Y-115196485D02*
X189455826Y-114053628D01*
X189455826Y-114053628D02*
X189598683Y-113767914D01*
X189598683Y-113767914D02*
X189884398Y-113625057D01*
X189884398Y-113625057D02*
X190455826Y-113625057D01*
X190455826Y-113625057D02*
X190741540Y-113767914D01*
X190741540Y-113767914D02*
X190884398Y-114053628D01*
X190884398Y-114053628D02*
X190884398Y-114339342D01*
X190884398Y-114339342D02*
X189455826Y-114625057D01*
X192170112Y-115625057D02*
X192170112Y-113625057D01*
X192170112Y-114196485D02*
X192312969Y-113910771D01*
X192312969Y-113910771D02*
X192455827Y-113767914D01*
X192455827Y-113767914D02*
X192741541Y-113625057D01*
X192741541Y-113625057D02*
X193027255Y-113625057D01*
X193311660Y-107934104D02*
X193787850Y-107934104D01*
X193216422Y-108219819D02*
X193549755Y-107219819D01*
X193549755Y-107219819D02*
X193883088Y-108219819D01*
X194740231Y-108219819D02*
X194168803Y-108219819D01*
X194454517Y-108219819D02*
X194454517Y-107219819D01*
X194454517Y-107219819D02*
X194359279Y-107362676D01*
X194359279Y-107362676D02*
X194264041Y-107457914D01*
X194264041Y-107457914D02*
X194168803Y-107505533D01*
X199166666Y-61454819D02*
X199166666Y-62169104D01*
X199166666Y-62169104D02*
X199119047Y-62311961D01*
X199119047Y-62311961D02*
X199023809Y-62407200D01*
X199023809Y-62407200D02*
X198880952Y-62454819D01*
X198880952Y-62454819D02*
X198785714Y-62454819D01*
X199595238Y-61550057D02*
X199642857Y-61502438D01*
X199642857Y-61502438D02*
X199738095Y-61454819D01*
X199738095Y-61454819D02*
X199976190Y-61454819D01*
X199976190Y-61454819D02*
X200071428Y-61502438D01*
X200071428Y-61502438D02*
X200119047Y-61550057D01*
X200119047Y-61550057D02*
X200166666Y-61645295D01*
X200166666Y-61645295D02*
X200166666Y-61740533D01*
X200166666Y-61740533D02*
X200119047Y-61883390D01*
X200119047Y-61883390D02*
X199547619Y-62454819D01*
X199547619Y-62454819D02*
X200166666Y-62454819D01*
X160416667Y-82407200D02*
X160559524Y-82454819D01*
X160559524Y-82454819D02*
X160797619Y-82454819D01*
X160797619Y-82454819D02*
X160892857Y-82407200D01*
X160892857Y-82407200D02*
X160940476Y-82359580D01*
X160940476Y-82359580D02*
X160988095Y-82264342D01*
X160988095Y-82264342D02*
X160988095Y-82169104D01*
X160988095Y-82169104D02*
X160940476Y-82073866D01*
X160940476Y-82073866D02*
X160892857Y-82026247D01*
X160892857Y-82026247D02*
X160797619Y-81978628D01*
X160797619Y-81978628D02*
X160607143Y-81931009D01*
X160607143Y-81931009D02*
X160511905Y-81883390D01*
X160511905Y-81883390D02*
X160464286Y-81835771D01*
X160464286Y-81835771D02*
X160416667Y-81740533D01*
X160416667Y-81740533D02*
X160416667Y-81645295D01*
X160416667Y-81645295D02*
X160464286Y-81550057D01*
X160464286Y-81550057D02*
X160511905Y-81502438D01*
X160511905Y-81502438D02*
X160607143Y-81454819D01*
X160607143Y-81454819D02*
X160845238Y-81454819D01*
X160845238Y-81454819D02*
X160988095Y-81502438D01*
X161321429Y-81454819D02*
X161559524Y-82454819D01*
X161559524Y-82454819D02*
X161750000Y-81740533D01*
X161750000Y-81740533D02*
X161940476Y-82454819D01*
X161940476Y-82454819D02*
X162178572Y-81454819D01*
X163083333Y-82454819D02*
X162511905Y-82454819D01*
X162797619Y-82454819D02*
X162797619Y-81454819D01*
X162797619Y-81454819D02*
X162702381Y-81597676D01*
X162702381Y-81597676D02*
X162607143Y-81692914D01*
X162607143Y-81692914D02*
X162511905Y-81740533D01*
X195982200Y-90286904D02*
X196029819Y-90144047D01*
X196029819Y-90144047D02*
X196029819Y-89905952D01*
X196029819Y-89905952D02*
X195982200Y-89810714D01*
X195982200Y-89810714D02*
X195934580Y-89763095D01*
X195934580Y-89763095D02*
X195839342Y-89715476D01*
X195839342Y-89715476D02*
X195744104Y-89715476D01*
X195744104Y-89715476D02*
X195648866Y-89763095D01*
X195648866Y-89763095D02*
X195601247Y-89810714D01*
X195601247Y-89810714D02*
X195553628Y-89905952D01*
X195553628Y-89905952D02*
X195506009Y-90096428D01*
X195506009Y-90096428D02*
X195458390Y-90191666D01*
X195458390Y-90191666D02*
X195410771Y-90239285D01*
X195410771Y-90239285D02*
X195315533Y-90286904D01*
X195315533Y-90286904D02*
X195220295Y-90286904D01*
X195220295Y-90286904D02*
X195125057Y-90239285D01*
X195125057Y-90239285D02*
X195077438Y-90191666D01*
X195077438Y-90191666D02*
X195029819Y-90096428D01*
X195029819Y-90096428D02*
X195029819Y-89858333D01*
X195029819Y-89858333D02*
X195077438Y-89715476D01*
X196029819Y-88763095D02*
X196029819Y-89334523D01*
X196029819Y-89048809D02*
X195029819Y-89048809D01*
X195029819Y-89048809D02*
X195172676Y-89144047D01*
X195172676Y-89144047D02*
X195267914Y-89239285D01*
X195267914Y-89239285D02*
X195315533Y-89334523D01*
X198785714Y-95881009D02*
X198928571Y-95928628D01*
X198928571Y-95928628D02*
X198976190Y-95976247D01*
X198976190Y-95976247D02*
X199023809Y-96071485D01*
X199023809Y-96071485D02*
X199023809Y-96214342D01*
X199023809Y-96214342D02*
X198976190Y-96309580D01*
X198976190Y-96309580D02*
X198928571Y-96357200D01*
X198928571Y-96357200D02*
X198833333Y-96404819D01*
X198833333Y-96404819D02*
X198452381Y-96404819D01*
X198452381Y-96404819D02*
X198452381Y-95404819D01*
X198452381Y-95404819D02*
X198785714Y-95404819D01*
X198785714Y-95404819D02*
X198880952Y-95452438D01*
X198880952Y-95452438D02*
X198928571Y-95500057D01*
X198928571Y-95500057D02*
X198976190Y-95595295D01*
X198976190Y-95595295D02*
X198976190Y-95690533D01*
X198976190Y-95690533D02*
X198928571Y-95785771D01*
X198928571Y-95785771D02*
X198880952Y-95833390D01*
X198880952Y-95833390D02*
X198785714Y-95881009D01*
X198785714Y-95881009D02*
X198452381Y-95881009D01*
X199880952Y-96404819D02*
X199880952Y-95881009D01*
X199880952Y-95881009D02*
X199833333Y-95785771D01*
X199833333Y-95785771D02*
X199738095Y-95738152D01*
X199738095Y-95738152D02*
X199547619Y-95738152D01*
X199547619Y-95738152D02*
X199452381Y-95785771D01*
X199880952Y-96357200D02*
X199785714Y-96404819D01*
X199785714Y-96404819D02*
X199547619Y-96404819D01*
X199547619Y-96404819D02*
X199452381Y-96357200D01*
X199452381Y-96357200D02*
X199404762Y-96261961D01*
X199404762Y-96261961D02*
X199404762Y-96166723D01*
X199404762Y-96166723D02*
X199452381Y-96071485D01*
X199452381Y-96071485D02*
X199547619Y-96023866D01*
X199547619Y-96023866D02*
X199785714Y-96023866D01*
X199785714Y-96023866D02*
X199880952Y-95976247D01*
X200214286Y-95738152D02*
X200595238Y-95738152D01*
X200357143Y-95404819D02*
X200357143Y-96261961D01*
X200357143Y-96261961D02*
X200404762Y-96357200D01*
X200404762Y-96357200D02*
X200500000Y-96404819D01*
X200500000Y-96404819D02*
X200595238Y-96404819D01*
X200690477Y-96500057D02*
X201452381Y-96500057D01*
X201690477Y-96404819D02*
X201690477Y-95404819D01*
X202166667Y-95738152D02*
X202166667Y-96404819D01*
X202166667Y-95833390D02*
X202214286Y-95785771D01*
X202214286Y-95785771D02*
X202309524Y-95738152D01*
X202309524Y-95738152D02*
X202452381Y-95738152D01*
X202452381Y-95738152D02*
X202547619Y-95785771D01*
X202547619Y-95785771D02*
X202595238Y-95881009D01*
X202595238Y-95881009D02*
X202595238Y-96404819D01*
X203595238Y-96404819D02*
X203023810Y-96404819D01*
X203309524Y-96404819D02*
X203309524Y-95404819D01*
X203309524Y-95404819D02*
X203214286Y-95547676D01*
X203214286Y-95547676D02*
X203119048Y-95642914D01*
X203119048Y-95642914D02*
X203023810Y-95690533D01*
X160666667Y-96907200D02*
X160809524Y-96954819D01*
X160809524Y-96954819D02*
X161047619Y-96954819D01*
X161047619Y-96954819D02*
X161142857Y-96907200D01*
X161142857Y-96907200D02*
X161190476Y-96859580D01*
X161190476Y-96859580D02*
X161238095Y-96764342D01*
X161238095Y-96764342D02*
X161238095Y-96669104D01*
X161238095Y-96669104D02*
X161190476Y-96573866D01*
X161190476Y-96573866D02*
X161142857Y-96526247D01*
X161142857Y-96526247D02*
X161047619Y-96478628D01*
X161047619Y-96478628D02*
X160857143Y-96431009D01*
X160857143Y-96431009D02*
X160761905Y-96383390D01*
X160761905Y-96383390D02*
X160714286Y-96335771D01*
X160714286Y-96335771D02*
X160666667Y-96240533D01*
X160666667Y-96240533D02*
X160666667Y-96145295D01*
X160666667Y-96145295D02*
X160714286Y-96050057D01*
X160714286Y-96050057D02*
X160761905Y-96002438D01*
X160761905Y-96002438D02*
X160857143Y-95954819D01*
X160857143Y-95954819D02*
X161095238Y-95954819D01*
X161095238Y-95954819D02*
X161238095Y-96002438D01*
X161571429Y-95954819D02*
X161809524Y-96954819D01*
X161809524Y-96954819D02*
X162000000Y-96240533D01*
X162000000Y-96240533D02*
X162190476Y-96954819D01*
X162190476Y-96954819D02*
X162428572Y-95954819D01*
X162761905Y-96050057D02*
X162809524Y-96002438D01*
X162809524Y-96002438D02*
X162904762Y-95954819D01*
X162904762Y-95954819D02*
X163142857Y-95954819D01*
X163142857Y-95954819D02*
X163238095Y-96002438D01*
X163238095Y-96002438D02*
X163285714Y-96050057D01*
X163285714Y-96050057D02*
X163333333Y-96145295D01*
X163333333Y-96145295D02*
X163333333Y-96240533D01*
X163333333Y-96240533D02*
X163285714Y-96383390D01*
X163285714Y-96383390D02*
X162714286Y-96954819D01*
X162714286Y-96954819D02*
X163333333Y-96954819D01*
X165354819Y-72333333D02*
X166069104Y-72333333D01*
X166069104Y-72333333D02*
X166211961Y-72380952D01*
X166211961Y-72380952D02*
X166307200Y-72476190D01*
X166307200Y-72476190D02*
X166354819Y-72619047D01*
X166354819Y-72619047D02*
X166354819Y-72714285D01*
X166354819Y-71333333D02*
X166354819Y-71904761D01*
X166354819Y-71619047D02*
X165354819Y-71619047D01*
X165354819Y-71619047D02*
X165497676Y-71714285D01*
X165497676Y-71714285D02*
X165592914Y-71809523D01*
X165592914Y-71809523D02*
X165640533Y-71904761D01*
D11*
%TO.C,A1*%
X170665000Y-59930000D02*
X170185000Y-59930000D01*
X170665000Y-59930000D02*
X170665000Y-60350000D01*
X170665000Y-62470000D02*
X170665000Y-62890000D01*
X170665000Y-65010000D02*
X170665000Y-65430000D01*
X170665000Y-67550000D02*
X170665000Y-67970000D01*
X170665000Y-70090000D02*
X170665000Y-70510000D01*
X170665000Y-72630000D02*
X170665000Y-73050000D01*
X170665000Y-75170000D02*
X170665000Y-75590000D01*
X170665000Y-77710000D02*
X170665000Y-78130000D01*
X170665000Y-80250000D02*
X170665000Y-80670000D01*
X170665000Y-82790000D02*
X170665000Y-83210000D01*
X170665000Y-85330000D02*
X170665000Y-85750000D01*
X170665000Y-87870000D02*
X170665000Y-88290000D01*
X170665000Y-90410000D02*
X170665000Y-90830000D01*
X170665000Y-92950000D02*
X170665000Y-93370000D01*
X170665000Y-95490000D02*
X170665000Y-95910000D01*
X170665000Y-98030000D02*
X170665000Y-98450000D01*
X170665000Y-100570000D02*
X170665000Y-100990000D01*
X170665000Y-103110000D02*
X170665000Y-103530000D01*
X170665000Y-105650000D02*
X170665000Y-106070000D01*
X170695324Y-57810000D02*
X170185000Y-57810000D01*
X171005000Y-57810063D02*
X171005000Y-57453000D01*
X171005000Y-59930000D02*
X171005000Y-60350000D01*
X171005000Y-62470000D02*
X171005000Y-62890000D01*
X171005000Y-65010000D02*
X171005000Y-65430000D01*
X171005000Y-67550000D02*
X171005000Y-67970000D01*
X171005000Y-70090000D02*
X171005000Y-70510000D01*
X171005000Y-72630000D02*
X171005000Y-73050000D01*
X171005000Y-75170000D02*
X171005000Y-75590000D01*
X171005000Y-77710000D02*
X171005000Y-78130000D01*
X171005000Y-80250000D02*
X171005000Y-80670000D01*
X171005000Y-82790000D02*
X171005000Y-83210000D01*
X171005000Y-85330000D02*
X171005000Y-85750000D01*
X171005000Y-87870000D02*
X171005000Y-88290000D01*
X171005000Y-90410000D02*
X171005000Y-90830000D01*
X171005000Y-92950000D02*
X171005000Y-93370000D01*
X171005000Y-95490000D02*
X171005000Y-95910000D01*
X171005000Y-98030000D02*
X171005000Y-98450000D01*
X171005000Y-100570000D02*
X171005000Y-100990000D01*
X171005000Y-103110000D02*
X171005000Y-103530000D01*
X171005000Y-105650000D02*
X171005000Y-106070000D01*
X171005000Y-108189937D02*
X171005000Y-108547000D01*
X171275000Y-57390000D02*
X173765000Y-57390000D01*
X171275000Y-108610000D02*
X175112939Y-108610000D01*
X173765000Y-57390000D02*
X173765000Y-58303520D01*
X173765000Y-57390000D02*
X175112940Y-57390000D01*
X173765000Y-60696480D02*
X173765000Y-105303520D01*
X173765000Y-107696480D02*
X173765000Y-108610000D01*
X176037061Y-57390000D02*
X177040000Y-57390000D01*
X177040000Y-57390000D02*
X185510000Y-57390000D01*
X177375000Y-57390000D02*
X177375000Y-58306000D01*
X177375000Y-60694000D02*
X177375000Y-61910000D01*
X177375000Y-61910000D02*
X177671090Y-61910000D01*
X177675000Y-108610000D02*
X176037061Y-108610000D01*
X180028910Y-61910000D02*
X182521090Y-61910000D01*
X184875000Y-108610000D02*
X177675000Y-108610000D01*
X184878910Y-61910000D02*
X185175000Y-61910000D01*
X185175000Y-57390000D02*
X185175000Y-58306000D01*
X185175000Y-60694000D02*
X185175000Y-61910000D01*
X185510000Y-57390000D02*
X186512939Y-57390000D01*
X186512939Y-108610000D02*
X184875000Y-108610000D01*
X187437061Y-57390000D02*
X188785000Y-57390000D01*
X187437061Y-108610000D02*
X191275000Y-108610000D01*
X188785000Y-57390000D02*
X188785000Y-58303520D01*
X188785000Y-60696480D02*
X188785000Y-105303520D01*
X188785000Y-107696480D02*
X188785000Y-108610000D01*
X191275000Y-57390000D02*
X188785000Y-57390000D01*
X191545000Y-57810063D02*
X191545000Y-57453000D01*
X191545000Y-59930000D02*
X191545000Y-60350000D01*
X191545000Y-62470000D02*
X191545000Y-62890000D01*
X191545000Y-65010000D02*
X191545000Y-65430000D01*
X191545000Y-67550000D02*
X191545000Y-67970000D01*
X191545000Y-70090000D02*
X191545000Y-70510000D01*
X191545000Y-72630000D02*
X191545000Y-73050000D01*
X191545000Y-75170000D02*
X191545000Y-75590000D01*
X191545000Y-77710000D02*
X191545000Y-78130000D01*
X191545000Y-80250000D02*
X191545000Y-80670000D01*
X191545000Y-82790000D02*
X191545000Y-83210000D01*
X191545000Y-85330000D02*
X191545000Y-85750000D01*
X191545000Y-87870000D02*
X191545000Y-88290000D01*
X191545000Y-90410000D02*
X191545000Y-90830000D01*
X191545000Y-92950000D02*
X191545000Y-93370000D01*
X191545000Y-95490000D02*
X191545000Y-95910000D01*
X191545000Y-98030000D02*
X191545000Y-98450000D01*
X191545000Y-100570000D02*
X191545000Y-100990000D01*
X191545000Y-103110000D02*
X191545000Y-103530000D01*
X191545000Y-105650000D02*
X191545000Y-106070000D01*
X191545000Y-108189937D02*
X191545000Y-108547000D01*
X191885000Y-59930000D02*
X191885000Y-60350000D01*
X191885000Y-62470000D02*
X191885000Y-62890000D01*
X191885000Y-65010000D02*
X191885000Y-65430000D01*
X191885000Y-67550000D02*
X191885000Y-67970000D01*
X191885000Y-70090000D02*
X191885000Y-70510000D01*
X191885000Y-72630000D02*
X191885000Y-73050000D01*
X191885000Y-75170000D02*
X191885000Y-75590000D01*
X191885000Y-77710000D02*
X191885000Y-78130000D01*
X191885000Y-80250000D02*
X191885000Y-80670000D01*
X191885000Y-82790000D02*
X191885000Y-83210000D01*
X191885000Y-85330000D02*
X191885000Y-85750000D01*
X191885000Y-87870000D02*
X191885000Y-88290000D01*
X191885000Y-90410000D02*
X191885000Y-90830000D01*
X191885000Y-92950000D02*
X191885000Y-93370000D01*
X191885000Y-95490000D02*
X191885000Y-95910000D01*
X191885000Y-98030000D02*
X191885000Y-98450000D01*
X191885000Y-100570000D02*
X191885000Y-100990000D01*
X191885000Y-103110000D02*
X191885000Y-103530000D01*
X191885000Y-105650000D02*
X191885000Y-106070000D01*
X170695324Y-57810000D02*
G75*
G02*
X171275000Y-57390000I579692J-190051D01*
G01*
X171275000Y-108610000D02*
G75*
G02*
X170695324Y-108189937I1J610002D01*
G01*
X191275000Y-57390000D02*
G75*
G02*
X191854676Y-57810063I0J-610000D01*
G01*
X191854676Y-108189937D02*
G75*
G02*
X191275000Y-108610069I-579676J189837D01*
G01*
%TO.C,J2*%
X198120000Y-63000000D02*
X199500000Y-63000000D01*
X198120000Y-64380000D02*
X198120000Y-63000000D01*
X198120000Y-65650000D02*
X198120000Y-73380000D01*
X198120000Y-65650000D02*
X200880000Y-65650000D01*
X198120000Y-73380000D02*
X200880000Y-73380000D01*
X200880000Y-65650000D02*
X200880000Y-73380000D01*
%TO.C,SW1*%
X158250000Y-85500000D02*
X158250000Y-87000000D01*
X159500000Y-89500000D02*
X164000000Y-89500000D01*
X164000000Y-83000000D02*
X159500000Y-83000000D01*
X165250000Y-87000000D02*
X165250000Y-85500000D01*
D12*
%TO.C,S1*%
X196600000Y-79850000D02*
X196600000Y-92550000D01*
X196600000Y-92550000D02*
X203400000Y-92550000D01*
X203400000Y-79850000D02*
X196600000Y-79850000D01*
X203400000Y-92550000D02*
X203400000Y-79850000D01*
D13*
X200100000Y-93100000D02*
G75*
G02*
X199900000Y-93100000I-100000J0D01*
G01*
X199900000Y-93100000D02*
G75*
G02*
X200100000Y-93100000I100000J0D01*
G01*
D11*
%TO.C,Bat_In1*%
X196940000Y-97040000D02*
X196940000Y-104860000D01*
X196940000Y-98640000D02*
X197860000Y-98640000D01*
X196940000Y-104860000D02*
X205060000Y-104860000D01*
X197700000Y-101000000D02*
X197700000Y-102600000D01*
X197700000Y-102600000D02*
X198700000Y-102600000D01*
X197860000Y-97040000D02*
X196940000Y-97040000D01*
X197860000Y-98640000D02*
X197860000Y-97040000D01*
X198140000Y-98640000D02*
X197860000Y-98640000D01*
X198140000Y-98640000D02*
X198140000Y-97425000D01*
X198200000Y-102600000D02*
X198200000Y-104860000D01*
X198700000Y-101000000D02*
X197700000Y-101000000D01*
X198700000Y-102600000D02*
X198700000Y-101000000D01*
X198700000Y-102600000D02*
X198700000Y-104860000D01*
X199500000Y-100500000D02*
X202500000Y-100500000D01*
X199500000Y-104860000D02*
X199500000Y-100500000D01*
X202500000Y-100500000D02*
X202500000Y-104860000D01*
X203300000Y-101000000D02*
X204300000Y-101000000D01*
X203300000Y-102600000D02*
X203300000Y-101000000D01*
X204140000Y-97040000D02*
X204140000Y-98640000D01*
X204140000Y-98640000D02*
X203860000Y-98640000D01*
X204300000Y-101000000D02*
X204300000Y-102600000D01*
X204300000Y-102600000D02*
X203300000Y-102600000D01*
X205060000Y-97040000D02*
X204140000Y-97040000D01*
X205060000Y-98640000D02*
X204140000Y-98640000D01*
X205060000Y-104860000D02*
X205060000Y-97040000D01*
%TO.C,SW2*%
X158250000Y-100000000D02*
X158250000Y-101500000D01*
X159500000Y-104000000D02*
X164000000Y-104000000D01*
X164000000Y-97500000D02*
X159500000Y-97500000D01*
X165250000Y-101500000D02*
X165250000Y-100000000D01*
%TO.C,J1*%
X165110000Y-66640000D02*
X163860000Y-66640000D01*
X164810000Y-66940000D02*
X160090000Y-66940000D01*
X163500000Y-66940000D02*
X163500000Y-67550000D01*
X162200000Y-66940000D02*
X162200000Y-67550000D01*
X160090000Y-66940000D02*
X160090000Y-77060000D01*
X164200000Y-67550000D02*
X160700000Y-67550000D01*
X160700000Y-67550000D02*
X160700000Y-76450000D01*
X165110000Y-67890000D02*
X165110000Y-66640000D01*
X165010000Y-68400000D02*
X164810000Y-68400000D01*
X165010000Y-68700000D02*
X165010000Y-68400000D01*
X164910000Y-68700000D02*
X164910000Y-68400000D01*
X164810000Y-68700000D02*
X165010000Y-68700000D01*
X164810000Y-69500000D02*
X164200000Y-69500000D01*
X164200000Y-69500000D02*
X164200000Y-67550000D01*
X161200000Y-69900000D02*
X161200000Y-70100000D01*
X160700000Y-69900000D02*
X161200000Y-69900000D01*
X160700000Y-70000000D02*
X161200000Y-70000000D01*
X161200000Y-70100000D02*
X160700000Y-70100000D01*
X161200000Y-71900000D02*
X161200000Y-72100000D01*
X160700000Y-71900000D02*
X161200000Y-71900000D01*
X160700000Y-72000000D02*
X161200000Y-72000000D01*
X161200000Y-72100000D02*
X160700000Y-72100000D01*
X161200000Y-73900000D02*
X161200000Y-74100000D01*
X160700000Y-73900000D02*
X161200000Y-73900000D01*
X160700000Y-74000000D02*
X161200000Y-74000000D01*
X161200000Y-74100000D02*
X160700000Y-74100000D01*
X164200000Y-74500000D02*
X164810000Y-74500000D01*
X164200000Y-76450000D02*
X164200000Y-74500000D01*
X160700000Y-76450000D02*
X164200000Y-76450000D01*
X164810000Y-77060000D02*
X164810000Y-66940000D01*
X163500000Y-77060000D02*
X163500000Y-76450000D01*
X162200000Y-77060000D02*
X162200000Y-76450000D01*
X160090000Y-77060000D02*
X164810000Y-77060000D01*
%TD*%
M02*
