%TF.GenerationSoftware,KiCad,Pcbnew,9.0.6*%
%TF.CreationDate,2025-12-13T20:02:26-06:00*%
%TF.ProjectId,turn-taker,7475726e-2d74-4616-9b65-722e6b696361,rev?*%
%TF.SameCoordinates,Original*%
%TF.FileFunction,Copper,L2,Bot*%
%TF.FilePolarity,Positive*%
%FSLAX46Y46*%
G04 Gerber Fmt 4.6, Leading zero omitted, Abs format (unit mm)*
G04 Created by KiCad (PCBNEW 9.0.6) date 2025-12-13 20:02:26*
%MOMM*%
%LPD*%
G01*
G04 APERTURE LIST*
G04 Aperture macros list*
%AMRoundRect*
0 Rectangle with rounded corners*
0 $1 Rounding radius*
0 $2 $3 $4 $5 $6 $7 $8 $9 X,Y pos of 4 corners*
0 Add a 4 corners polygon primitive as box body*
4,1,4,$2,$3,$4,$5,$6,$7,$8,$9,$2,$3,0*
0 Add four circle primitives for the rounded corners*
1,1,$1+$1,$2,$3*
1,1,$1+$1,$4,$5*
1,1,$1+$1,$6,$7*
1,1,$1+$1,$8,$9*
0 Add four rect primitives between the rounded corners*
20,1,$1+$1,$2,$3,$4,$5,0*
20,1,$1+$1,$4,$5,$6,$7,0*
20,1,$1+$1,$6,$7,$8,$9,0*
20,1,$1+$1,$8,$9,$2,$3,0*%
%AMFreePoly0*
4,1,37,0.603843,0.796157,0.639018,0.796157,0.711114,0.766294,0.766294,0.711114,0.796157,0.639018,0.796157,0.603843,0.800000,0.600000,0.800000,-0.600000,0.796157,-0.603843,0.796157,-0.639018,0.766294,-0.711114,0.711114,-0.766294,0.639018,-0.796157,0.603843,-0.796157,0.600000,-0.800000,0.000000,-0.800000,0.000000,-0.796148,-0.078414,-0.796148,-0.232228,-0.765552,-0.377117,-0.705537,
-0.507515,-0.618408,-0.618408,-0.507515,-0.705537,-0.377117,-0.765552,-0.232228,-0.796148,-0.078414,-0.796148,0.078414,-0.765552,0.232228,-0.705537,0.377117,-0.618408,0.507515,-0.507515,0.618408,-0.377117,0.705537,-0.232228,0.765552,-0.078414,0.796148,0.000000,0.796148,0.000000,0.800000,0.600000,0.800000,0.603843,0.796157,0.603843,0.796157,$1*%
%AMFreePoly1*
4,1,37,0.000000,0.796148,0.078414,0.796148,0.232228,0.765552,0.377117,0.705537,0.507515,0.618408,0.618408,0.507515,0.705537,0.377117,0.765552,0.232228,0.796148,0.078414,0.796148,-0.078414,0.765552,-0.232228,0.705537,-0.377117,0.618408,-0.507515,0.507515,-0.618408,0.377117,-0.705537,0.232228,-0.765552,0.078414,-0.796148,0.000000,-0.796148,0.000000,-0.800000,-0.600000,-0.800000,
-0.603843,-0.796157,-0.639018,-0.796157,-0.711114,-0.766294,-0.766294,-0.711114,-0.796157,-0.639018,-0.796157,-0.603843,-0.800000,-0.600000,-0.800000,0.600000,-0.796157,0.603843,-0.796157,0.639018,-0.766294,0.711114,-0.711114,0.766294,-0.639018,0.796157,-0.603843,0.796157,-0.600000,0.800000,0.000000,0.800000,0.000000,0.796148,0.000000,0.796148,$1*%
G04 Aperture macros list end*
%TA.AperFunction,ComponentPad*%
%ADD10RoundRect,0.200000X-0.600000X-0.600000X0.600000X-0.600000X0.600000X0.600000X-0.600000X0.600000X0*%
%TD*%
%TA.AperFunction,ComponentPad*%
%ADD11C,1.600000*%
%TD*%
%TA.AperFunction,ComponentPad*%
%ADD12FreePoly0,0.000000*%
%TD*%
%TA.AperFunction,ComponentPad*%
%ADD13FreePoly1,0.000000*%
%TD*%
%TA.AperFunction,ComponentPad*%
%ADD14R,1.700000X1.700000*%
%TD*%
%TA.AperFunction,ComponentPad*%
%ADD15C,1.700000*%
%TD*%
%TA.AperFunction,ComponentPad*%
%ADD16C,2.000000*%
%TD*%
%TA.AperFunction,ComponentPad*%
%ADD17RoundRect,0.250000X-0.350000X-0.625000X0.350000X-0.625000X0.350000X0.625000X-0.350000X0.625000X0*%
%TD*%
%TA.AperFunction,ComponentPad*%
%ADD18O,1.200000X1.750000*%
%TD*%
G04 APERTURE END LIST*
D10*
%TO.P,A1,1,GPIO0*%
%TO.N,unconnected-(A1-GPIO0-Pad1)*%
X172385000Y-58870000D03*
D11*
%TO.P,A1,2,GPIO1*%
%TO.N,unconnected-(A1-GPIO1-Pad2)*%
X172385000Y-61410000D03*
D12*
%TO.P,A1,3,GND*%
%TO.N,GND*%
X172385000Y-63950000D03*
D11*
%TO.P,A1,4,GPIO2*%
%TO.N,unconnected-(A1-GPIO2-Pad4)_1*%
X172385000Y-66490000D03*
%TO.P,A1,5,GPIO3*%
%TO.N,unconnected-(A1-GPIO3-Pad5)_1*%
X172385000Y-69030000D03*
%TO.P,A1,6,GPIO4*%
%TO.N,Net-(A1-GPIO4)*%
X172385000Y-71570000D03*
%TO.P,A1,7,GPIO5*%
%TO.N,Net-(A1-GPIO5)*%
X172385000Y-74110000D03*
D12*
%TO.P,A1,8,GND*%
%TO.N,GND*%
X172385000Y-76650000D03*
D11*
%TO.P,A1,9,GPIO6*%
%TO.N,unconnected-(A1-GPIO6-Pad9)*%
X172385000Y-79190000D03*
%TO.P,A1,10,GPIO7*%
%TO.N,unconnected-(A1-GPIO7-Pad10)_1*%
X172385000Y-81730000D03*
%TO.P,A1,11,GPIO8*%
%TO.N,unconnected-(A1-GPIO8-Pad11)_1*%
X172385000Y-84270000D03*
%TO.P,A1,12,GPIO9*%
%TO.N,unconnected-(A1-GPIO9-Pad12)*%
X172385000Y-86810000D03*
D12*
%TO.P,A1,13,GND*%
%TO.N,GND*%
X172385000Y-89350000D03*
D11*
%TO.P,A1,14,GPIO10*%
%TO.N,unconnected-(A1-GPIO10-Pad14)_1*%
X172385000Y-91890000D03*
%TO.P,A1,15,GPIO11*%
%TO.N,unconnected-(A1-GPIO11-Pad15)_1*%
X172385000Y-94430000D03*
%TO.P,A1,16,GPIO12*%
%TO.N,unconnected-(A1-GPIO12-Pad16)*%
X172385000Y-96970000D03*
%TO.P,A1,17,GPIO13*%
%TO.N,unconnected-(A1-GPIO13-Pad17)*%
X172385000Y-99510000D03*
D12*
%TO.P,A1,18,GND*%
%TO.N,GND*%
X172385000Y-102050000D03*
D11*
%TO.P,A1,19,GPIO14*%
%TO.N,Net-(A1-GPIO14)*%
X172385000Y-104590000D03*
%TO.P,A1,20,GPIO15*%
%TO.N,Net-(A1-GPIO15)*%
X172385000Y-107130000D03*
%TO.P,A1,21,GPIO16*%
%TO.N,unconnected-(A1-GPIO16-Pad21)_1*%
X190165000Y-107130000D03*
%TO.P,A1,22,GPIO17*%
%TO.N,unconnected-(A1-GPIO17-Pad22)*%
X190165000Y-104590000D03*
D13*
%TO.P,A1,23,GND*%
%TO.N,GND*%
X190165000Y-102050000D03*
D11*
%TO.P,A1,24,GPIO18*%
%TO.N,unconnected-(A1-GPIO18-Pad24)*%
X190165000Y-99510000D03*
%TO.P,A1,25,GPIO19*%
%TO.N,unconnected-(A1-GPIO19-Pad25)_1*%
X190165000Y-96970000D03*
%TO.P,A1,26,GPIO20*%
%TO.N,unconnected-(A1-GPIO20-Pad26)*%
X190165000Y-94430000D03*
%TO.P,A1,27,GPIO21*%
%TO.N,unconnected-(A1-GPIO21-Pad27)*%
X190165000Y-91890000D03*
D13*
%TO.P,A1,28,GND*%
%TO.N,GND*%
X190165000Y-89350000D03*
D11*
%TO.P,A1,29,GPIO22*%
%TO.N,unconnected-(A1-GPIO22-Pad29)*%
X190165000Y-86810000D03*
%TO.P,A1,30,RUN*%
%TO.N,unconnected-(A1-RUN-Pad30)*%
X190165000Y-84270000D03*
%TO.P,A1,31,GPIO26_ADC0*%
%TO.N,unconnected-(A1-GPIO26_ADC0-Pad31)*%
X190165000Y-81730000D03*
%TO.P,A1,32,GPIO27_ADC1*%
%TO.N,unconnected-(A1-GPIO27_ADC1-Pad32)_1*%
X190165000Y-79190000D03*
D13*
%TO.P,A1,33,AGND*%
%TO.N,unconnected-(A1-AGND-Pad33)*%
X190165000Y-76650000D03*
D11*
%TO.P,A1,34,GPIO28_ADC2*%
%TO.N,unconnected-(A1-GPIO28_ADC2-Pad34)_1*%
X190165000Y-74110000D03*
%TO.P,A1,35,ADC_VREF*%
%TO.N,unconnected-(A1-ADC_VREF-Pad35)_1*%
X190165000Y-71570000D03*
%TO.P,A1,36,3V3*%
%TO.N,unconnected-(A1-3V3-Pad36)_1*%
X190165000Y-69030000D03*
%TO.P,A1,37,3V3_EN*%
%TO.N,unconnected-(A1-3V3_EN-Pad37)*%
X190165000Y-66490000D03*
D13*
%TO.P,A1,38,GND*%
%TO.N,GND*%
X190165000Y-63950000D03*
D11*
%TO.P,A1,39,VSYS*%
%TO.N,+5V*%
X190165000Y-61410000D03*
%TO.P,A1,40,VBUS*%
%TO.N,unconnected-(A1-VBUS-Pad40)*%
X190165000Y-58870000D03*
%TD*%
D14*
%TO.P,J2,1,Pin_1*%
%TO.N,Net-(J2-Pin_1)*%
X199500000Y-64380000D03*
D15*
%TO.P,J2,2,Pin_2*%
%TO.N,+5V*%
X199500000Y-66920000D03*
%TO.P,J2,3,Pin_3*%
%TO.N,GND*%
X199500000Y-69460000D03*
%TO.P,J2,4,Pin_4*%
%TO.N,Net-(J2-Pin_1)*%
X199500000Y-72000000D03*
%TD*%
D14*
%TO.P,J1,1,Pin_1*%
%TO.N,GND*%
X163000000Y-64380000D03*
D15*
%TO.P,J1,2,Pin_2*%
%TO.N,+5V*%
X163000000Y-66920000D03*
%TO.P,J1,3,Pin_3*%
%TO.N,Net-(A1-GPIO4)*%
X163000000Y-69460000D03*
%TO.P,J1,4,Pin_4*%
%TO.N,Net-(A1-GPIO5)*%
X163000000Y-72000000D03*
%TD*%
D16*
%TO.P,SW1,1,1*%
%TO.N,GND*%
X158500000Y-84000000D03*
X165000000Y-84000000D03*
%TO.P,SW1,2,2*%
%TO.N,Net-(A1-GPIO14)*%
X158500000Y-88500000D03*
X165000000Y-88500000D03*
%TD*%
D17*
%TO.P,Bat_In1,1,Pin_1*%
%TO.N,BAT+*%
X199000000Y-98500000D03*
D18*
%TO.P,Bat_In1,2,Pin_2*%
%TO.N,GND*%
X201000000Y-98500000D03*
%TO.P,Bat_In1,3*%
%TO.N,N/C*%
X203000000Y-98500000D03*
%TD*%
D16*
%TO.P,SW2,1,1*%
%TO.N,GND*%
X158500000Y-98500000D03*
X165000000Y-98500000D03*
%TO.P,SW2,2,2*%
%TO.N,Net-(A1-GPIO15)*%
X158500000Y-103000000D03*
X165000000Y-103000000D03*
%TD*%
%TA.AperFunction,Conductor*%
%TO.N,GND*%
G36*
X182082574Y-54471676D02*
G01*
X182108114Y-54472548D01*
X183171576Y-54508877D01*
X183175696Y-54509089D01*
X184262791Y-54583447D01*
X184266973Y-54583805D01*
X185350899Y-54695236D01*
X185355012Y-54695730D01*
X186434501Y-54844103D01*
X186438629Y-54844742D01*
X187512396Y-55029879D01*
X187516555Y-55030670D01*
X187726535Y-55074304D01*
X188583355Y-55252353D01*
X188587409Y-55253268D01*
X189646074Y-55511256D01*
X189650080Y-55512305D01*
X190699310Y-55806286D01*
X190703363Y-55807496D01*
X191741909Y-56137116D01*
X191745889Y-56138455D01*
X192772569Y-56503337D01*
X192776493Y-56504808D01*
X193790133Y-56904537D01*
X193794045Y-56906157D01*
X194793398Y-57340238D01*
X194797252Y-57341991D01*
X194980316Y-57429052D01*
X195781223Y-57809945D01*
X195784972Y-57811807D01*
X196752427Y-58313102D01*
X196756139Y-58315107D01*
X197705888Y-58849124D01*
X197709542Y-58851262D01*
X198640465Y-59417369D01*
X198644045Y-59419630D01*
X198914760Y-59597192D01*
X199501884Y-59982287D01*
X199555155Y-60017227D01*
X199558648Y-60019605D01*
X200448792Y-60647937D01*
X200452173Y-60650411D01*
X200834873Y-60940621D01*
X201320375Y-61308789D01*
X201323705Y-61311405D01*
X202168926Y-61999043D01*
X202172121Y-62001735D01*
X202557899Y-62338116D01*
X202993333Y-62717796D01*
X202996477Y-62720632D01*
X203792814Y-63464358D01*
X203795858Y-63467301D01*
X204566263Y-64237706D01*
X204569206Y-64240750D01*
X205312932Y-65037087D01*
X205315768Y-65040231D01*
X205692544Y-65472335D01*
X206004538Y-65830145D01*
X206031811Y-65861422D01*
X206034525Y-65864644D01*
X206317271Y-66212184D01*
X206722159Y-66709859D01*
X206724775Y-66713189D01*
X207383140Y-67581373D01*
X207385634Y-67584782D01*
X207643510Y-67950109D01*
X208013954Y-68474909D01*
X208016337Y-68478409D01*
X208613934Y-69389519D01*
X208616195Y-69393099D01*
X209182302Y-70324022D01*
X209184440Y-70327676D01*
X209718457Y-71277425D01*
X209720469Y-71281151D01*
X210221746Y-72248571D01*
X210223629Y-72252363D01*
X210691573Y-73236312D01*
X210693326Y-73240166D01*
X211127407Y-74239519D01*
X211129027Y-74243431D01*
X211528756Y-75257071D01*
X211530238Y-75261027D01*
X211622688Y-75521155D01*
X211895103Y-76287659D01*
X211896453Y-76291672D01*
X212226066Y-77330197D01*
X212227278Y-77334254D01*
X212391824Y-77921523D01*
X212509856Y-78342786D01*
X212521247Y-78383439D01*
X212522317Y-78387531D01*
X212596218Y-78690781D01*
X212780286Y-79446111D01*
X212781218Y-79450242D01*
X213002894Y-80517009D01*
X213003685Y-80521168D01*
X213188817Y-81594907D01*
X213189465Y-81599091D01*
X213337828Y-82678507D01*
X213338333Y-82682711D01*
X213449757Y-83766573D01*
X213450118Y-83770792D01*
X213524472Y-84857812D01*
X213524689Y-84862040D01*
X213561889Y-85950990D01*
X213561961Y-85955224D01*
X213561961Y-87044775D01*
X213561889Y-87049009D01*
X213524689Y-88137959D01*
X213524472Y-88142187D01*
X213450118Y-89229207D01*
X213449757Y-89233426D01*
X213338333Y-90317288D01*
X213337828Y-90321492D01*
X213189465Y-91400908D01*
X213188817Y-91405092D01*
X213003685Y-92478831D01*
X213002894Y-92482990D01*
X212781218Y-93549757D01*
X212780286Y-93553888D01*
X212522319Y-94612464D01*
X212521247Y-94616560D01*
X212227278Y-95665745D01*
X212226066Y-95669802D01*
X211896453Y-96708327D01*
X211895103Y-96712340D01*
X211530242Y-97738963D01*
X211528756Y-97742928D01*
X211129027Y-98756568D01*
X211127407Y-98760480D01*
X210693326Y-99759833D01*
X210691573Y-99763687D01*
X210223629Y-100747636D01*
X210221746Y-100751428D01*
X209720469Y-101718848D01*
X209718457Y-101722574D01*
X209184440Y-102672323D01*
X209182302Y-102675977D01*
X208616195Y-103606900D01*
X208613934Y-103610480D01*
X208016337Y-104521590D01*
X208013954Y-104525090D01*
X207385640Y-105415209D01*
X207383140Y-105418626D01*
X206724775Y-106286810D01*
X206722159Y-106290140D01*
X206034539Y-107135339D01*
X206031811Y-107138577D01*
X205315768Y-107959768D01*
X205312932Y-107962912D01*
X204569206Y-108759249D01*
X204566263Y-108762293D01*
X203795858Y-109532698D01*
X203792814Y-109535641D01*
X202996477Y-110279367D01*
X202993333Y-110282203D01*
X202172142Y-110998246D01*
X202168904Y-111000974D01*
X201323705Y-111688594D01*
X201320375Y-111691210D01*
X200452191Y-112349575D01*
X200448774Y-112352075D01*
X199558655Y-112980389D01*
X199555155Y-112982772D01*
X198644045Y-113580369D01*
X198640465Y-113582630D01*
X197709542Y-114148737D01*
X197705888Y-114150875D01*
X196756139Y-114684892D01*
X196752413Y-114686904D01*
X195784993Y-115188181D01*
X195781201Y-115190064D01*
X194797252Y-115658008D01*
X194793398Y-115659761D01*
X193794045Y-116093842D01*
X193790133Y-116095462D01*
X192776493Y-116495191D01*
X192772528Y-116496677D01*
X191745905Y-116861538D01*
X191741892Y-116862888D01*
X190703367Y-117192501D01*
X190699310Y-117193713D01*
X189650125Y-117487682D01*
X189646029Y-117488754D01*
X188587453Y-117746721D01*
X188583322Y-117747653D01*
X187516555Y-117969329D01*
X187512396Y-117970120D01*
X186438657Y-118155252D01*
X186434473Y-118155900D01*
X185355057Y-118304263D01*
X185350853Y-118304768D01*
X184266991Y-118416192D01*
X184262772Y-118416553D01*
X183175752Y-118490907D01*
X183171524Y-118491124D01*
X182082575Y-118528324D01*
X182078341Y-118528396D01*
X180988789Y-118528396D01*
X180984555Y-118528324D01*
X179895605Y-118491124D01*
X179891377Y-118490907D01*
X178804357Y-118416553D01*
X178800138Y-118416192D01*
X177716276Y-118304768D01*
X177712072Y-118304263D01*
X176632656Y-118155900D01*
X176628472Y-118155252D01*
X175554733Y-117970120D01*
X175550574Y-117969329D01*
X174483807Y-117747653D01*
X174479676Y-117746721D01*
X173421100Y-117488754D01*
X173417004Y-117487682D01*
X172367819Y-117193713D01*
X172363762Y-117192501D01*
X171325237Y-116862888D01*
X171321224Y-116861538D01*
X170294601Y-116496677D01*
X170290636Y-116495191D01*
X169276996Y-116095462D01*
X169273084Y-116093842D01*
X168273731Y-115659761D01*
X168269877Y-115658008D01*
X167285928Y-115190064D01*
X167282136Y-115188181D01*
X166314716Y-114686904D01*
X166310990Y-114684892D01*
X165361241Y-114150875D01*
X165357587Y-114148737D01*
X164426664Y-113582630D01*
X164423084Y-113580369D01*
X163511974Y-112982772D01*
X163508474Y-112980389D01*
X163146811Y-112725099D01*
X162618347Y-112352069D01*
X162614938Y-112349575D01*
X161746754Y-111691210D01*
X161743424Y-111688594D01*
X161298461Y-111326590D01*
X160898209Y-111000960D01*
X160895003Y-110998259D01*
X160589415Y-110731801D01*
X160073796Y-110282203D01*
X160070652Y-110279367D01*
X159274315Y-109535641D01*
X159271271Y-109532698D01*
X158500866Y-108762293D01*
X158497923Y-108759249D01*
X157754197Y-107962912D01*
X157751361Y-107959768D01*
X157117085Y-107232351D01*
X157035300Y-107138556D01*
X157032608Y-107135361D01*
X156473716Y-106448390D01*
X156344970Y-106290140D01*
X156342354Y-106286810D01*
X155971291Y-105797490D01*
X155683976Y-105418608D01*
X155681489Y-105415209D01*
X155451383Y-105089223D01*
X155053170Y-104525083D01*
X155050792Y-104521590D01*
X155028529Y-104487648D01*
X154648594Y-103908390D01*
X154453195Y-103610480D01*
X154450934Y-103606900D01*
X154046273Y-102941464D01*
X154010053Y-102881902D01*
X156999500Y-102881902D01*
X156999500Y-103118097D01*
X157036446Y-103351368D01*
X157109433Y-103575996D01*
X157194415Y-103742781D01*
X157216657Y-103786433D01*
X157355483Y-103977510D01*
X157522490Y-104144517D01*
X157713567Y-104283343D01*
X157812991Y-104334002D01*
X157924003Y-104390566D01*
X157924005Y-104390566D01*
X157924008Y-104390568D01*
X158044412Y-104429689D01*
X158148631Y-104463553D01*
X158381903Y-104500500D01*
X158381908Y-104500500D01*
X158618097Y-104500500D01*
X158851368Y-104463553D01*
X159075992Y-104390568D01*
X159286433Y-104283343D01*
X159477510Y-104144517D01*
X159644517Y-103977510D01*
X159783343Y-103786433D01*
X159890568Y-103575992D01*
X159963553Y-103351368D01*
X159969066Y-103316559D01*
X160000500Y-103118097D01*
X160000500Y-102881902D01*
X163499500Y-102881902D01*
X163499500Y-103118097D01*
X163536446Y-103351368D01*
X163609433Y-103575996D01*
X163694415Y-103742781D01*
X163716657Y-103786433D01*
X163855483Y-103977510D01*
X164022490Y-104144517D01*
X164213567Y-104283343D01*
X164312991Y-104334002D01*
X164424003Y-104390566D01*
X164424005Y-104390566D01*
X164424008Y-104390568D01*
X164544412Y-104429689D01*
X164648631Y-104463553D01*
X164881903Y-104500500D01*
X164881908Y-104500500D01*
X165118097Y-104500500D01*
X165351368Y-104463553D01*
X165575992Y-104390568D01*
X165786433Y-104283343D01*
X165977510Y-104144517D01*
X166144517Y-103977510D01*
X166283343Y-103786433D01*
X166390568Y-103575992D01*
X166463553Y-103351368D01*
X166469066Y-103316559D01*
X166500500Y-103118097D01*
X166500500Y-102881902D01*
X166463553Y-102648631D01*
X166407660Y-102476612D01*
X166390568Y-102424008D01*
X166390566Y-102424005D01*
X166390566Y-102424003D01*
X166290341Y-102227302D01*
X166283343Y-102213567D01*
X166144517Y-102022490D01*
X165977510Y-101855483D01*
X165786433Y-101716657D01*
X165746771Y-101696448D01*
X165575996Y-101609433D01*
X165351368Y-101536446D01*
X165118097Y-101499500D01*
X165118092Y-101499500D01*
X164881908Y-101499500D01*
X164881903Y-101499500D01*
X164648631Y-101536446D01*
X164424003Y-101609433D01*
X164213566Y-101716657D01*
X164104550Y-101795862D01*
X164022490Y-101855483D01*
X164022488Y-101855485D01*
X164022487Y-101855485D01*
X163855485Y-102022487D01*
X163855485Y-102022488D01*
X163855483Y-102022490D01*
X163835496Y-102050000D01*
X163716657Y-102213566D01*
X163609433Y-102424003D01*
X163536446Y-102648631D01*
X163499500Y-102881902D01*
X160000500Y-102881902D01*
X159963553Y-102648631D01*
X159907660Y-102476612D01*
X159890568Y-102424008D01*
X159890566Y-102424005D01*
X159890566Y-102424003D01*
X159790341Y-102227302D01*
X159783343Y-102213567D01*
X159644517Y-102022490D01*
X159477510Y-101855483D01*
X159286433Y-101716657D01*
X159246771Y-101696448D01*
X159075996Y-101609433D01*
X158851368Y-101536446D01*
X158618097Y-101499500D01*
X158618092Y-101499500D01*
X158381908Y-101499500D01*
X158381903Y-101499500D01*
X158148631Y-101536446D01*
X157924003Y-101609433D01*
X157713566Y-101716657D01*
X157604550Y-101795862D01*
X157522490Y-101855483D01*
X157522488Y-101855485D01*
X157522487Y-101855485D01*
X157355485Y-102022487D01*
X157355485Y-102022488D01*
X157355483Y-102022490D01*
X157335496Y-102050000D01*
X157216657Y-102213566D01*
X157109433Y-102424003D01*
X157036446Y-102648631D01*
X156999500Y-102881902D01*
X154010053Y-102881902D01*
X153884827Y-102675977D01*
X153882689Y-102672323D01*
X153577075Y-102128789D01*
X153348665Y-101722562D01*
X153346660Y-101718848D01*
X153345525Y-101716657D01*
X152845372Y-100751407D01*
X152843500Y-100747636D01*
X152827518Y-100714031D01*
X152423737Y-99864998D01*
X152375556Y-99763687D01*
X152373803Y-99759834D01*
X152373803Y-99759833D01*
X151939721Y-98760477D01*
X151938102Y-98756568D01*
X151806388Y-98422565D01*
X151790370Y-98381947D01*
X157000000Y-98381947D01*
X157000000Y-98618052D01*
X157036934Y-98851247D01*
X157109897Y-99075802D01*
X157217087Y-99286174D01*
X157277338Y-99369104D01*
X157277340Y-99369105D01*
X157976212Y-98670233D01*
X157987482Y-98712292D01*
X158059890Y-98837708D01*
X158162292Y-98940110D01*
X158287708Y-99012518D01*
X158329765Y-99023787D01*
X157630893Y-99722658D01*
X157713828Y-99782914D01*
X157924197Y-99890102D01*
X158148752Y-99963065D01*
X158148751Y-99963065D01*
X158381948Y-100000000D01*
X158618052Y-100000000D01*
X158851247Y-99963065D01*
X159075802Y-99890102D01*
X159286163Y-99782918D01*
X159286169Y-99782914D01*
X159369104Y-99722658D01*
X159369105Y-99722658D01*
X158670233Y-99023787D01*
X158712292Y-99012518D01*
X158837708Y-98940110D01*
X158940110Y-98837708D01*
X159012518Y-98712292D01*
X159023787Y-98670234D01*
X159722658Y-99369105D01*
X159722658Y-99369104D01*
X159782914Y-99286169D01*
X159782918Y-99286163D01*
X159890102Y-99075802D01*
X159963065Y-98851247D01*
X160000000Y-98618052D01*
X160000000Y-98381947D01*
X163500000Y-98381947D01*
X163500000Y-98618052D01*
X163536934Y-98851247D01*
X163609897Y-99075802D01*
X163717087Y-99286174D01*
X163777338Y-99369104D01*
X163777340Y-99369105D01*
X164476212Y-98670233D01*
X164487482Y-98712292D01*
X164559890Y-98837708D01*
X164662292Y-98940110D01*
X164787708Y-99012518D01*
X164829765Y-99023787D01*
X164130893Y-99722658D01*
X164213828Y-99782914D01*
X164424197Y-99890102D01*
X164648752Y-99963065D01*
X164648751Y-99963065D01*
X164881948Y-100000000D01*
X165118052Y-100000000D01*
X165351247Y-99963065D01*
X165575802Y-99890102D01*
X165786163Y-99782918D01*
X165786169Y-99782914D01*
X165869104Y-99722658D01*
X165869105Y-99722658D01*
X165170233Y-99023787D01*
X165212292Y-99012518D01*
X165337708Y-98940110D01*
X165440110Y-98837708D01*
X165512518Y-98712292D01*
X165523787Y-98670234D01*
X166222658Y-99369105D01*
X166222658Y-99369104D01*
X166282914Y-99286169D01*
X166282918Y-99286163D01*
X166390102Y-99075802D01*
X166463065Y-98851247D01*
X166500000Y-98618052D01*
X166500000Y-98381947D01*
X166463065Y-98148752D01*
X166390102Y-97924197D01*
X166282914Y-97713828D01*
X166222658Y-97630894D01*
X166222658Y-97630893D01*
X165523787Y-98329765D01*
X165512518Y-98287708D01*
X165440110Y-98162292D01*
X165337708Y-98059890D01*
X165212292Y-97987482D01*
X165170234Y-97976212D01*
X165869105Y-97277340D01*
X165869104Y-97277338D01*
X165786174Y-97217087D01*
X165575802Y-97109897D01*
X165351247Y-97036934D01*
X165351248Y-97036934D01*
X165118052Y-97000000D01*
X164881948Y-97000000D01*
X164648752Y-97036934D01*
X164424197Y-97109897D01*
X164213830Y-97217084D01*
X164130894Y-97277340D01*
X164829766Y-97976212D01*
X164787708Y-97987482D01*
X164662292Y-98059890D01*
X164559890Y-98162292D01*
X164487482Y-98287708D01*
X164476212Y-98329766D01*
X163777340Y-97630894D01*
X163717084Y-97713830D01*
X163609897Y-97924197D01*
X163536934Y-98148752D01*
X163500000Y-98381947D01*
X160000000Y-98381947D01*
X159963065Y-98148752D01*
X159890102Y-97924197D01*
X159782914Y-97713828D01*
X159722658Y-97630894D01*
X159722658Y-97630893D01*
X159023787Y-98329765D01*
X159012518Y-98287708D01*
X158940110Y-98162292D01*
X158837708Y-98059890D01*
X158712292Y-97987482D01*
X158670234Y-97976212D01*
X159369105Y-97277340D01*
X159369104Y-97277339D01*
X159286174Y-97217087D01*
X159075802Y-97109897D01*
X158851247Y-97036934D01*
X158851248Y-97036934D01*
X158618052Y-97000000D01*
X158381948Y-97000000D01*
X158148752Y-97036934D01*
X157924197Y-97109897D01*
X157713830Y-97217084D01*
X157630894Y-97277340D01*
X158329766Y-97976212D01*
X158287708Y-97987482D01*
X158162292Y-98059890D01*
X158059890Y-98162292D01*
X157987482Y-98287708D01*
X157976212Y-98329766D01*
X157277340Y-97630894D01*
X157217084Y-97713830D01*
X157109897Y-97924197D01*
X157036934Y-98148752D01*
X157000000Y-98381947D01*
X151790370Y-98381947D01*
X151538373Y-97742928D01*
X151536902Y-97739004D01*
X151172020Y-96712324D01*
X151170676Y-96708327D01*
X151157072Y-96665465D01*
X150841061Y-95669798D01*
X150839851Y-95665745D01*
X150805259Y-95542284D01*
X150545870Y-94616515D01*
X150544821Y-94612509D01*
X150286833Y-93553844D01*
X150285918Y-93549790D01*
X150064235Y-92482990D01*
X150063444Y-92478831D01*
X149979566Y-91992351D01*
X149878307Y-91405064D01*
X149877664Y-91400908D01*
X149729295Y-90321447D01*
X149728801Y-90317334D01*
X149617370Y-89233408D01*
X149617011Y-89229207D01*
X149614611Y-89194114D01*
X149559055Y-88381902D01*
X156999500Y-88381902D01*
X156999500Y-88618097D01*
X157036446Y-88851368D01*
X157109433Y-89075996D01*
X157208677Y-89270771D01*
X157216657Y-89286433D01*
X157355483Y-89477510D01*
X157522490Y-89644517D01*
X157713567Y-89783343D01*
X157777513Y-89815925D01*
X157924003Y-89890566D01*
X157924005Y-89890566D01*
X157924008Y-89890568D01*
X158021355Y-89922198D01*
X158148631Y-89963553D01*
X158381903Y-90000500D01*
X158381908Y-90000500D01*
X158618097Y-90000500D01*
X158851368Y-89963553D01*
X159075992Y-89890568D01*
X159286433Y-89783343D01*
X159477510Y-89644517D01*
X159644517Y-89477510D01*
X159783343Y-89286433D01*
X159890568Y-89075992D01*
X159963553Y-88851368D01*
X159985911Y-88710204D01*
X160000500Y-88618097D01*
X160000500Y-88381902D01*
X163499500Y-88381902D01*
X163499500Y-88618097D01*
X163536446Y-88851368D01*
X163609433Y-89075996D01*
X163708677Y-89270771D01*
X163716657Y-89286433D01*
X163855483Y-89477510D01*
X164022490Y-89644517D01*
X164213567Y-89783343D01*
X164277513Y-89815925D01*
X164424003Y-89890566D01*
X164424005Y-89890566D01*
X164424008Y-89890568D01*
X164521355Y-89922198D01*
X164648631Y-89963553D01*
X164881903Y-90000500D01*
X164881908Y-90000500D01*
X165118097Y-90000500D01*
X165351368Y-89963553D01*
X165575992Y-89890568D01*
X165786433Y-89783343D01*
X165977510Y-89644517D01*
X166144517Y-89477510D01*
X166283343Y-89286433D01*
X166330384Y-89194111D01*
X166390566Y-89075996D01*
X166390566Y-89075995D01*
X166390568Y-89075992D01*
X166463553Y-88851368D01*
X166485911Y-88710204D01*
X166500500Y-88618097D01*
X166500500Y-88381902D01*
X166463553Y-88148631D01*
X166404681Y-87967443D01*
X166390568Y-87924008D01*
X166390566Y-87924005D01*
X166390566Y-87924003D01*
X166328385Y-87801967D01*
X166283343Y-87713567D01*
X166144517Y-87522490D01*
X165977510Y-87355483D01*
X165786433Y-87216657D01*
X165575996Y-87109433D01*
X165351368Y-87036446D01*
X165118097Y-86999500D01*
X165118092Y-86999500D01*
X164881908Y-86999500D01*
X164881903Y-86999500D01*
X164648631Y-87036446D01*
X164424003Y-87109433D01*
X164213566Y-87216657D01*
X164104550Y-87295862D01*
X164022490Y-87355483D01*
X164022488Y-87355485D01*
X164022487Y-87355485D01*
X163855485Y-87522487D01*
X163855485Y-87522488D01*
X163855483Y-87522490D01*
X163795862Y-87604550D01*
X163716657Y-87713566D01*
X163609433Y-87924003D01*
X163536446Y-88148631D01*
X163499500Y-88381902D01*
X160000500Y-88381902D01*
X159963553Y-88148631D01*
X159904681Y-87967443D01*
X159890568Y-87924008D01*
X159890566Y-87924005D01*
X159890566Y-87924003D01*
X159828385Y-87801967D01*
X159783343Y-87713567D01*
X159644517Y-87522490D01*
X159477510Y-87355483D01*
X159286433Y-87216657D01*
X159075996Y-87109433D01*
X158851368Y-87036446D01*
X158618097Y-86999500D01*
X158618092Y-86999500D01*
X158381908Y-86999500D01*
X158381903Y-86999500D01*
X158148631Y-87036446D01*
X157924003Y-87109433D01*
X157713566Y-87216657D01*
X157604550Y-87295862D01*
X157522490Y-87355483D01*
X157522488Y-87355485D01*
X157522487Y-87355485D01*
X157355485Y-87522487D01*
X157355485Y-87522488D01*
X157355483Y-87522490D01*
X157295862Y-87604550D01*
X157216657Y-87713566D01*
X157109433Y-87924003D01*
X157036446Y-88148631D01*
X156999500Y-88381902D01*
X149559055Y-88381902D01*
X149542654Y-88142131D01*
X149542442Y-88138011D01*
X149505241Y-87049008D01*
X149505169Y-87044775D01*
X149505169Y-85955224D01*
X149505241Y-85950991D01*
X149514314Y-85685400D01*
X149542442Y-84861985D01*
X149542653Y-84857871D01*
X149609407Y-83881947D01*
X157000000Y-83881947D01*
X157000000Y-84118052D01*
X157036934Y-84351247D01*
X157109897Y-84575802D01*
X157217087Y-84786174D01*
X157277338Y-84869104D01*
X157277340Y-84869105D01*
X157976212Y-84170233D01*
X157987482Y-84212292D01*
X158059890Y-84337708D01*
X158162292Y-84440110D01*
X158287708Y-84512518D01*
X158329765Y-84523787D01*
X157630893Y-85222658D01*
X157713828Y-85282914D01*
X157924197Y-85390102D01*
X158148752Y-85463065D01*
X158148751Y-85463065D01*
X158381948Y-85500000D01*
X158618052Y-85500000D01*
X158851247Y-85463065D01*
X159075802Y-85390102D01*
X159286163Y-85282918D01*
X159286169Y-85282914D01*
X159369104Y-85222658D01*
X159369105Y-85222658D01*
X158670233Y-84523787D01*
X158712292Y-84512518D01*
X158837708Y-84440110D01*
X158940110Y-84337708D01*
X159012518Y-84212292D01*
X159023787Y-84170234D01*
X159722658Y-84869105D01*
X159722658Y-84869104D01*
X159782914Y-84786169D01*
X159782918Y-84786163D01*
X159890102Y-84575802D01*
X159963065Y-84351247D01*
X160000000Y-84118052D01*
X160000000Y-83881947D01*
X163500000Y-83881947D01*
X163500000Y-84118052D01*
X163536934Y-84351247D01*
X163609897Y-84575802D01*
X163717087Y-84786174D01*
X163777338Y-84869104D01*
X163777340Y-84869105D01*
X164476212Y-84170233D01*
X164487482Y-84212292D01*
X164559890Y-84337708D01*
X164662292Y-84440110D01*
X164787708Y-84512518D01*
X164829765Y-84523787D01*
X164130893Y-85222658D01*
X164213828Y-85282914D01*
X164424197Y-85390102D01*
X164648752Y-85463065D01*
X164648751Y-85463065D01*
X164881948Y-85500000D01*
X165118052Y-85500000D01*
X165351247Y-85463065D01*
X165575802Y-85390102D01*
X165786163Y-85282918D01*
X165786169Y-85282914D01*
X165869104Y-85222658D01*
X165869105Y-85222658D01*
X165170233Y-84523787D01*
X165212292Y-84512518D01*
X165337708Y-84440110D01*
X165440110Y-84337708D01*
X165512518Y-84212292D01*
X165523787Y-84170234D01*
X166222658Y-84869105D01*
X166222658Y-84869104D01*
X166282914Y-84786169D01*
X166282918Y-84786163D01*
X166390102Y-84575802D01*
X166463065Y-84351247D01*
X166500000Y-84118052D01*
X166500000Y-83881947D01*
X166463065Y-83648752D01*
X166390102Y-83424197D01*
X166282914Y-83213828D01*
X166222658Y-83130894D01*
X166222658Y-83130893D01*
X165523787Y-83829765D01*
X165512518Y-83787708D01*
X165440110Y-83662292D01*
X165337708Y-83559890D01*
X165212292Y-83487482D01*
X165170234Y-83476212D01*
X165869105Y-82777340D01*
X165869104Y-82777338D01*
X165786174Y-82717087D01*
X165575802Y-82609897D01*
X165351247Y-82536934D01*
X165351248Y-82536934D01*
X165118052Y-82500000D01*
X164881948Y-82500000D01*
X164648752Y-82536934D01*
X164424197Y-82609897D01*
X164213830Y-82717084D01*
X164130894Y-82777340D01*
X164829766Y-83476212D01*
X164787708Y-83487482D01*
X164662292Y-83559890D01*
X164559890Y-83662292D01*
X164487482Y-83787708D01*
X164476212Y-83829766D01*
X163777340Y-83130894D01*
X163717084Y-83213830D01*
X163609897Y-83424197D01*
X163536934Y-83648752D01*
X163500000Y-83881947D01*
X160000000Y-83881947D01*
X159963065Y-83648752D01*
X159890102Y-83424197D01*
X159782914Y-83213828D01*
X159722658Y-83130894D01*
X159722658Y-83130893D01*
X159023787Y-83829765D01*
X159012518Y-83787708D01*
X158940110Y-83662292D01*
X158837708Y-83559890D01*
X158712292Y-83487482D01*
X158670234Y-83476212D01*
X159369105Y-82777340D01*
X159369104Y-82777339D01*
X159286174Y-82717087D01*
X159075802Y-82609897D01*
X158851247Y-82536934D01*
X158851248Y-82536934D01*
X158618052Y-82500000D01*
X158381948Y-82500000D01*
X158148752Y-82536934D01*
X157924197Y-82609897D01*
X157713830Y-82717084D01*
X157630894Y-82777340D01*
X158329766Y-83476212D01*
X158287708Y-83487482D01*
X158162292Y-83559890D01*
X158059890Y-83662292D01*
X157987482Y-83787708D01*
X157976212Y-83829766D01*
X157277340Y-83130894D01*
X157217084Y-83213830D01*
X157109897Y-83424197D01*
X157036934Y-83648752D01*
X157000000Y-83881947D01*
X149609407Y-83881947D01*
X149617012Y-83770768D01*
X149617372Y-83766573D01*
X149728802Y-82682658D01*
X149729294Y-82678559D01*
X149877669Y-81599054D01*
X149878306Y-81594944D01*
X150063446Y-80521154D01*
X150064235Y-80517009D01*
X150108855Y-80302284D01*
X150285921Y-79450196D01*
X150286830Y-79446168D01*
X150544825Y-78387475D01*
X150545866Y-78383498D01*
X150839857Y-77334233D01*
X150841063Y-77330197D01*
X150847537Y-77309799D01*
X151170687Y-76291638D01*
X151172014Y-76287692D01*
X151536909Y-75260976D01*
X151538373Y-75257071D01*
X151552091Y-75222286D01*
X151721926Y-74791613D01*
X151938102Y-74243431D01*
X151939722Y-74239519D01*
X151951523Y-74212352D01*
X152373807Y-73240155D01*
X152375556Y-73236312D01*
X152414202Y-73155051D01*
X152843522Y-72252318D01*
X152845361Y-72248615D01*
X153346680Y-71281113D01*
X153348651Y-71277462D01*
X153882698Y-70327660D01*
X153884827Y-70324022D01*
X154450945Y-69393081D01*
X154453195Y-69389519D01*
X154476654Y-69353753D01*
X155050815Y-68478374D01*
X155053151Y-68474943D01*
X155681522Y-67584743D01*
X155683955Y-67581418D01*
X156266124Y-66813713D01*
X161649500Y-66813713D01*
X161649500Y-67026286D01*
X161672517Y-67171613D01*
X161682754Y-67236243D01*
X161715563Y-67337219D01*
X161748444Y-67438414D01*
X161844951Y-67627820D01*
X161969890Y-67799786D01*
X162120213Y-67950109D01*
X162292182Y-68075050D01*
X162300946Y-68079516D01*
X162351742Y-68127491D01*
X162368536Y-68195312D01*
X162345998Y-68261447D01*
X162300946Y-68300484D01*
X162292182Y-68304949D01*
X162120213Y-68429890D01*
X161969890Y-68580213D01*
X161844951Y-68752179D01*
X161748444Y-68941585D01*
X161682753Y-69143760D01*
X161649500Y-69353713D01*
X161649500Y-69566286D01*
X161682735Y-69776127D01*
X161682754Y-69776243D01*
X161715563Y-69877219D01*
X161748444Y-69978414D01*
X161844951Y-70167820D01*
X161969890Y-70339786D01*
X162120213Y-70490109D01*
X162292182Y-70615050D01*
X162300946Y-70619516D01*
X162351742Y-70667491D01*
X162368536Y-70735312D01*
X162345998Y-70801447D01*
X162300946Y-70840484D01*
X162292182Y-70844949D01*
X162120213Y-70969890D01*
X161969890Y-71120213D01*
X161844951Y-71292179D01*
X161748444Y-71481585D01*
X161682753Y-71683760D01*
X161649500Y-71893713D01*
X161649500Y-72106286D01*
X161672517Y-72251613D01*
X161682754Y-72316243D01*
X161715563Y-72417219D01*
X161748444Y-72518414D01*
X161844951Y-72707820D01*
X161969890Y-72879786D01*
X162120213Y-73030109D01*
X162292179Y-73155048D01*
X162292181Y-73155049D01*
X162292184Y-73155051D01*
X162481588Y-73251557D01*
X162683757Y-73317246D01*
X162893713Y-73350500D01*
X162893714Y-73350500D01*
X163106286Y-73350500D01*
X163106287Y-73350500D01*
X163316243Y-73317246D01*
X163518412Y-73251557D01*
X163707816Y-73155051D01*
X163758774Y-73118028D01*
X163879786Y-73030109D01*
X163879788Y-73030106D01*
X163879792Y-73030104D01*
X164030104Y-72879792D01*
X164030106Y-72879788D01*
X164030109Y-72879786D01*
X164155048Y-72707820D01*
X164155047Y-72707820D01*
X164155051Y-72707816D01*
X164251557Y-72518412D01*
X164317246Y-72316243D01*
X164350500Y-72106287D01*
X164350500Y-71893713D01*
X164317246Y-71683757D01*
X164251557Y-71481588D01*
X164155051Y-71292184D01*
X164155049Y-71292181D01*
X164155048Y-71292179D01*
X164030109Y-71120213D01*
X163879786Y-70969890D01*
X163707820Y-70844951D01*
X163707115Y-70844591D01*
X163699054Y-70840485D01*
X163648259Y-70792512D01*
X163631463Y-70724692D01*
X163653999Y-70658556D01*
X163699054Y-70619515D01*
X163707816Y-70615051D01*
X163762572Y-70575269D01*
X163879786Y-70490109D01*
X163879788Y-70490106D01*
X163879792Y-70490104D01*
X164030104Y-70339792D01*
X164030106Y-70339788D01*
X164030109Y-70339786D01*
X164155048Y-70167820D01*
X164155047Y-70167820D01*
X164155051Y-70167816D01*
X164251557Y-69978412D01*
X164317246Y-69776243D01*
X164350500Y-69566287D01*
X164350500Y-69353713D01*
X164317246Y-69143757D01*
X164251557Y-68941588D01*
X164155051Y-68752184D01*
X164155049Y-68752181D01*
X164155048Y-68752179D01*
X164030109Y-68580213D01*
X163879786Y-68429890D01*
X163707820Y-68304951D01*
X163699600Y-68300763D01*
X163699054Y-68300485D01*
X163648259Y-68252512D01*
X163631463Y-68184692D01*
X163653999Y-68118556D01*
X163699054Y-68079515D01*
X163707816Y-68075051D01*
X163758774Y-68038028D01*
X163879786Y-67950109D01*
X163879788Y-67950106D01*
X163879792Y-67950104D01*
X164030104Y-67799792D01*
X164030106Y-67799788D01*
X164030109Y-67799786D01*
X164155048Y-67627820D01*
X164155047Y-67627820D01*
X164155051Y-67627816D01*
X164251557Y-67438412D01*
X164317246Y-67236243D01*
X164350500Y-67026287D01*
X164350500Y-66813713D01*
X164317246Y-66603757D01*
X164251557Y-66401588D01*
X164251557Y-66401587D01*
X164155048Y-66212179D01*
X164030109Y-66040213D01*
X163916181Y-65926285D01*
X163882696Y-65864962D01*
X163887680Y-65795270D01*
X163929552Y-65739337D01*
X163960529Y-65722422D01*
X164092086Y-65673354D01*
X164092093Y-65673350D01*
X164207187Y-65587190D01*
X164207190Y-65587187D01*
X164293350Y-65472093D01*
X164293354Y-65472086D01*
X164343596Y-65337379D01*
X164343598Y-65337372D01*
X164349999Y-65277844D01*
X164350000Y-65277827D01*
X164350000Y-64630000D01*
X163433012Y-64630000D01*
X163465925Y-64572993D01*
X163500000Y-64445826D01*
X163500000Y-64314174D01*
X163465925Y-64187007D01*
X163433012Y-64130000D01*
X164350000Y-64130000D01*
X164350000Y-63871210D01*
X171080000Y-63871210D01*
X171080000Y-64028789D01*
X171089701Y-64127299D01*
X171089701Y-64127302D01*
X171120444Y-64281864D01*
X171149185Y-64376612D01*
X171209490Y-64522198D01*
X171256155Y-64609501D01*
X171256161Y-64609511D01*
X171302534Y-64678912D01*
X171902037Y-64079410D01*
X171919075Y-64142993D01*
X171984901Y-64257007D01*
X172077993Y-64350099D01*
X172192007Y-64415925D01*
X172255589Y-64432962D01*
X171656085Y-65032465D01*
X171725488Y-65078838D01*
X171725498Y-65078844D01*
X171791454Y-65114099D01*
X171841298Y-65163062D01*
X171856758Y-65231200D01*
X171832926Y-65296879D01*
X171789295Y-65333942D01*
X171703386Y-65377715D01*
X171537786Y-65498028D01*
X171393028Y-65642786D01*
X171272715Y-65808386D01*
X171179781Y-65990776D01*
X171116522Y-66185465D01*
X171084500Y-66387648D01*
X171084500Y-66592351D01*
X171116522Y-66794534D01*
X171179781Y-66989223D01*
X171272715Y-67171613D01*
X171393028Y-67337213D01*
X171537786Y-67481971D01*
X171674604Y-67581373D01*
X171703390Y-67602287D01*
X171794840Y-67648883D01*
X171796080Y-67649515D01*
X171846876Y-67697490D01*
X171863671Y-67765311D01*
X171841134Y-67831446D01*
X171796080Y-67870485D01*
X171703386Y-67917715D01*
X171537786Y-68038028D01*
X171393028Y-68182786D01*
X171272715Y-68348386D01*
X171179781Y-68530776D01*
X171116522Y-68725465D01*
X171084500Y-68927648D01*
X171084500Y-69132351D01*
X171116522Y-69334534D01*
X171179781Y-69529223D01*
X171272715Y-69711613D01*
X171393028Y-69877213D01*
X171537786Y-70021971D01*
X171692749Y-70134556D01*
X171703390Y-70142287D01*
X171794840Y-70188883D01*
X171796080Y-70189515D01*
X171846876Y-70237490D01*
X171863671Y-70305311D01*
X171841134Y-70371446D01*
X171796080Y-70410485D01*
X171703386Y-70457715D01*
X171537786Y-70578028D01*
X171393028Y-70722786D01*
X171272715Y-70888386D01*
X171179781Y-71070776D01*
X171116522Y-71265465D01*
X171084500Y-71467648D01*
X171084500Y-71672351D01*
X171116522Y-71874534D01*
X171179781Y-72069223D01*
X171243691Y-72194653D01*
X171272117Y-72250441D01*
X171272715Y-72251613D01*
X171393028Y-72417213D01*
X171537786Y-72561971D01*
X171692749Y-72674556D01*
X171703390Y-72682287D01*
X171794840Y-72728883D01*
X171796080Y-72729515D01*
X171846876Y-72777490D01*
X171863671Y-72845311D01*
X171841134Y-72911446D01*
X171796080Y-72950485D01*
X171703386Y-72997715D01*
X171537786Y-73118028D01*
X171393028Y-73262786D01*
X171272715Y-73428386D01*
X171179781Y-73610776D01*
X171116522Y-73805465D01*
X171084500Y-74007648D01*
X171084500Y-74212351D01*
X171116522Y-74414534D01*
X171179781Y-74609223D01*
X171272715Y-74791613D01*
X171393028Y-74957213D01*
X171537786Y-75101971D01*
X171703388Y-75222286D01*
X171703390Y-75222287D01*
X171789294Y-75266057D01*
X171840090Y-75314031D01*
X171856886Y-75381852D01*
X171834349Y-75447987D01*
X171791455Y-75485899D01*
X171725497Y-75521155D01*
X171656086Y-75567534D01*
X171656085Y-75567534D01*
X172255589Y-76167037D01*
X172192007Y-76184075D01*
X172077993Y-76249901D01*
X171984901Y-76342993D01*
X171919075Y-76457007D01*
X171902037Y-76520588D01*
X171302534Y-75921085D01*
X171302534Y-75921086D01*
X171256158Y-75990493D01*
X171209490Y-76077801D01*
X171149185Y-76223387D01*
X171120444Y-76318135D01*
X171089701Y-76472697D01*
X171089701Y-76472700D01*
X171080000Y-76571210D01*
X171080000Y-76728789D01*
X171089701Y-76827299D01*
X171089701Y-76827302D01*
X171120444Y-76981864D01*
X171149185Y-77076612D01*
X171209490Y-77222198D01*
X171256155Y-77309501D01*
X171256161Y-77309511D01*
X171302534Y-77378912D01*
X171902037Y-76779410D01*
X171919075Y-76842993D01*
X171984901Y-76957007D01*
X172077993Y-77050099D01*
X172192007Y-77115925D01*
X172255589Y-77132962D01*
X171656085Y-77732465D01*
X171725488Y-77778838D01*
X171725498Y-77778844D01*
X171791454Y-77814099D01*
X171841298Y-77863062D01*
X171856758Y-77931200D01*
X171832926Y-77996879D01*
X171789295Y-78033942D01*
X171703386Y-78077715D01*
X171537786Y-78198028D01*
X171393028Y-78342786D01*
X171272715Y-78508386D01*
X171179781Y-78690776D01*
X171116522Y-78885465D01*
X171084500Y-79087648D01*
X171084500Y-79292351D01*
X171116522Y-79494534D01*
X171179781Y-79689223D01*
X171272715Y-79871613D01*
X171393028Y-80037213D01*
X171537786Y-80181971D01*
X171692749Y-80294556D01*
X171703390Y-80302287D01*
X171794840Y-80348883D01*
X171796080Y-80349515D01*
X171846876Y-80397490D01*
X171863671Y-80465311D01*
X171841134Y-80531446D01*
X171796080Y-80570485D01*
X171703386Y-80617715D01*
X171537786Y-80738028D01*
X171393028Y-80882786D01*
X171272715Y-81048386D01*
X171179781Y-81230776D01*
X171116522Y-81425465D01*
X171084500Y-81627648D01*
X171084500Y-81832351D01*
X171116522Y-82034534D01*
X171179781Y-82229223D01*
X171272715Y-82411613D01*
X171393028Y-82577213D01*
X171537786Y-82721971D01*
X171661590Y-82811918D01*
X171703390Y-82842287D01*
X171794840Y-82888883D01*
X171796080Y-82889515D01*
X171846876Y-82937490D01*
X171863671Y-83005311D01*
X171841134Y-83071446D01*
X171796080Y-83110485D01*
X171703386Y-83157715D01*
X171537786Y-83278028D01*
X171393028Y-83422786D01*
X171272715Y-83588386D01*
X171179781Y-83770776D01*
X171116522Y-83965465D01*
X171084500Y-84167648D01*
X171084500Y-84372351D01*
X171116522Y-84574534D01*
X171179781Y-84769223D01*
X171272715Y-84951613D01*
X171393028Y-85117213D01*
X171537786Y-85261971D01*
X171692749Y-85374556D01*
X171703390Y-85382287D01*
X171794840Y-85428883D01*
X171796080Y-85429515D01*
X171846876Y-85477490D01*
X171863671Y-85545311D01*
X171841134Y-85611446D01*
X171796080Y-85650485D01*
X171703386Y-85697715D01*
X171537786Y-85818028D01*
X171393028Y-85962786D01*
X171272715Y-86128386D01*
X171179781Y-86310776D01*
X171116522Y-86505465D01*
X171084500Y-86707648D01*
X171084500Y-86912351D01*
X171116522Y-87114534D01*
X171179781Y-87309223D01*
X171272715Y-87491613D01*
X171393028Y-87657213D01*
X171537786Y-87801971D01*
X171703388Y-87922286D01*
X171703390Y-87922287D01*
X171789294Y-87966057D01*
X171840090Y-88014031D01*
X171856886Y-88081852D01*
X171834349Y-88147987D01*
X171791455Y-88185899D01*
X171725497Y-88221155D01*
X171656086Y-88267534D01*
X171656085Y-88267534D01*
X172255589Y-88867037D01*
X172192007Y-88884075D01*
X172077993Y-88949901D01*
X171984901Y-89042993D01*
X171919075Y-89157007D01*
X171902037Y-89220588D01*
X171302534Y-88621085D01*
X171302534Y-88621086D01*
X171256158Y-88690493D01*
X171209490Y-88777801D01*
X171149185Y-88923387D01*
X171120444Y-89018135D01*
X171089701Y-89172697D01*
X171089701Y-89172700D01*
X171080000Y-89271210D01*
X171080000Y-89428789D01*
X171089701Y-89527299D01*
X171089701Y-89527302D01*
X171120444Y-89681864D01*
X171149185Y-89776612D01*
X171209490Y-89922198D01*
X171256155Y-90009501D01*
X171256161Y-90009511D01*
X171302534Y-90078912D01*
X171902037Y-89479410D01*
X171919075Y-89542993D01*
X171984901Y-89657007D01*
X172077993Y-89750099D01*
X172192007Y-89815925D01*
X172255589Y-89832962D01*
X171656085Y-90432465D01*
X171725488Y-90478838D01*
X171725498Y-90478844D01*
X171791454Y-90514099D01*
X171841298Y-90563062D01*
X171856758Y-90631200D01*
X171832926Y-90696879D01*
X171789295Y-90733942D01*
X171703386Y-90777715D01*
X171537786Y-90898028D01*
X171393028Y-91042786D01*
X171272715Y-91208386D01*
X171179781Y-91390776D01*
X171116522Y-91585465D01*
X171084500Y-91787648D01*
X171084500Y-91992351D01*
X171116522Y-92194534D01*
X171179781Y-92389223D01*
X171272715Y-92571613D01*
X171393028Y-92737213D01*
X171537786Y-92881971D01*
X171692749Y-92994556D01*
X171703390Y-93002287D01*
X171794840Y-93048883D01*
X171796080Y-93049515D01*
X171846876Y-93097490D01*
X171863671Y-93165311D01*
X171841134Y-93231446D01*
X171796080Y-93270485D01*
X171703386Y-93317715D01*
X171537786Y-93438028D01*
X171393028Y-93582786D01*
X171272715Y-93748386D01*
X171179781Y-93930776D01*
X171116522Y-94125465D01*
X171084500Y-94327648D01*
X171084500Y-94532351D01*
X171116522Y-94734534D01*
X171179781Y-94929223D01*
X171272715Y-95111613D01*
X171393028Y-95277213D01*
X171537786Y-95421971D01*
X171692749Y-95534556D01*
X171703390Y-95542287D01*
X171794840Y-95588883D01*
X171796080Y-95589515D01*
X171846876Y-95637490D01*
X171863671Y-95705311D01*
X171841134Y-95771446D01*
X171796080Y-95810485D01*
X171703386Y-95857715D01*
X171537786Y-95978028D01*
X171393028Y-96122786D01*
X171272715Y-96288386D01*
X171179781Y-96470776D01*
X171116522Y-96665465D01*
X171084500Y-96867648D01*
X171084500Y-97072351D01*
X171116522Y-97274534D01*
X171179781Y-97469223D01*
X171209246Y-97527050D01*
X171272712Y-97651609D01*
X171272715Y-97651613D01*
X171393028Y-97817213D01*
X171537786Y-97961971D01*
X171672563Y-98059890D01*
X171703390Y-98082287D01*
X171787219Y-98125000D01*
X171796080Y-98129515D01*
X171846876Y-98177490D01*
X171863671Y-98245311D01*
X171841134Y-98311446D01*
X171796080Y-98350485D01*
X171703386Y-98397715D01*
X171537786Y-98518028D01*
X171393028Y-98662786D01*
X171272715Y-98828386D01*
X171179781Y-99010776D01*
X171116522Y-99205465D01*
X171084500Y-99407648D01*
X171084500Y-99612351D01*
X171116522Y-99814534D01*
X171179781Y-100009223D01*
X171272715Y-100191613D01*
X171393028Y-100357213D01*
X171537786Y-100501971D01*
X171703388Y-100622286D01*
X171703390Y-100622287D01*
X171789294Y-100666057D01*
X171840090Y-100714031D01*
X171856886Y-100781852D01*
X171834349Y-100847987D01*
X171791455Y-100885899D01*
X171725497Y-100921155D01*
X171656086Y-100967534D01*
X171656085Y-100967534D01*
X172255589Y-101567037D01*
X172192007Y-101584075D01*
X172077993Y-101649901D01*
X171984901Y-101742993D01*
X171919075Y-101857007D01*
X171902037Y-101920588D01*
X171302534Y-101321085D01*
X171302534Y-101321086D01*
X171256158Y-101390493D01*
X171209490Y-101477801D01*
X171149185Y-101623387D01*
X171120444Y-101718135D01*
X171089701Y-101872697D01*
X171089701Y-101872700D01*
X171080000Y-101971210D01*
X171080000Y-102128789D01*
X171089701Y-102227299D01*
X171089701Y-102227302D01*
X171120444Y-102381864D01*
X171149185Y-102476612D01*
X171209490Y-102622198D01*
X171256155Y-102709501D01*
X171256161Y-102709511D01*
X171302534Y-102778912D01*
X171902037Y-102179410D01*
X171919075Y-102242993D01*
X171984901Y-102357007D01*
X172077993Y-102450099D01*
X172192007Y-102515925D01*
X172255589Y-102532962D01*
X171656085Y-103132465D01*
X171725488Y-103178838D01*
X171725498Y-103178844D01*
X171791454Y-103214099D01*
X171841298Y-103263062D01*
X171856758Y-103331200D01*
X171832926Y-103396879D01*
X171789295Y-103433942D01*
X171703386Y-103477715D01*
X171537786Y-103598028D01*
X171393028Y-103742786D01*
X171272715Y-103908386D01*
X171179781Y-104090776D01*
X171116522Y-104285465D01*
X171084500Y-104487648D01*
X171084500Y-104692351D01*
X171116522Y-104894534D01*
X171179781Y-105089223D01*
X171272715Y-105271613D01*
X171393028Y-105437213D01*
X171537786Y-105581971D01*
X171692749Y-105694556D01*
X171703390Y-105702287D01*
X171794840Y-105748883D01*
X171796080Y-105749515D01*
X171846876Y-105797490D01*
X171863671Y-105865311D01*
X171841134Y-105931446D01*
X171796080Y-105970485D01*
X171703386Y-106017715D01*
X171537786Y-106138028D01*
X171393028Y-106282786D01*
X171272715Y-106448386D01*
X171179781Y-106630776D01*
X171116522Y-106825465D01*
X171084500Y-107027648D01*
X171084500Y-107232351D01*
X171116522Y-107434534D01*
X171179781Y-107629223D01*
X171272715Y-107811613D01*
X171393028Y-107977213D01*
X171537786Y-108121971D01*
X171692749Y-108234556D01*
X171703390Y-108242287D01*
X171819607Y-108301503D01*
X171885776Y-108335218D01*
X171885778Y-108335218D01*
X171885781Y-108335220D01*
X171990137Y-108369127D01*
X172080465Y-108398477D01*
X172181557Y-108414488D01*
X172282648Y-108430500D01*
X172282649Y-108430500D01*
X172487351Y-108430500D01*
X172487352Y-108430500D01*
X172689534Y-108398477D01*
X172884219Y-108335220D01*
X173066610Y-108242287D01*
X173159590Y-108174732D01*
X173232213Y-108121971D01*
X173232215Y-108121968D01*
X173232219Y-108121966D01*
X173376966Y-107977219D01*
X173376968Y-107977215D01*
X173376971Y-107977213D01*
X173429732Y-107904590D01*
X173497287Y-107811610D01*
X173590220Y-107629219D01*
X173653477Y-107434534D01*
X173685500Y-107232352D01*
X173685500Y-107027648D01*
X173653477Y-106825466D01*
X173590220Y-106630781D01*
X173590218Y-106630778D01*
X173590218Y-106630776D01*
X173556503Y-106564607D01*
X173497287Y-106448390D01*
X173489556Y-106437749D01*
X173376971Y-106282786D01*
X173232213Y-106138028D01*
X173066614Y-106017715D01*
X173053292Y-106010927D01*
X172973917Y-105970483D01*
X172923123Y-105922511D01*
X172906328Y-105854690D01*
X172928865Y-105788555D01*
X172973917Y-105749516D01*
X173066610Y-105702287D01*
X173087770Y-105686913D01*
X173232213Y-105581971D01*
X173232215Y-105581968D01*
X173232219Y-105581966D01*
X173376966Y-105437219D01*
X173376968Y-105437215D01*
X173376971Y-105437213D01*
X173429732Y-105364590D01*
X173497287Y-105271610D01*
X173590220Y-105089219D01*
X173653477Y-104894534D01*
X173685500Y-104692352D01*
X173685500Y-104487648D01*
X173670124Y-104390568D01*
X173662098Y-104339895D01*
X174175000Y-104339895D01*
X178827057Y-107952663D01*
X178867931Y-108009327D01*
X178875000Y-108050597D01*
X178875000Y-109000000D01*
X183675000Y-109000000D01*
X183675000Y-108050597D01*
X183694685Y-107983558D01*
X183722941Y-107952664D01*
X188375000Y-104339895D01*
X188375000Y-100000000D01*
X174175000Y-100000000D01*
X174175000Y-104339895D01*
X173662098Y-104339895D01*
X173653477Y-104285465D01*
X173590218Y-104090776D01*
X173532505Y-103977510D01*
X173497287Y-103908390D01*
X173489556Y-103897749D01*
X173376971Y-103742786D01*
X173232217Y-103598032D01*
X173155415Y-103542232D01*
X173112750Y-103486902D01*
X173106771Y-103417288D01*
X173139377Y-103355494D01*
X173197640Y-103321765D01*
X173218039Y-103316559D01*
X173274584Y-103293136D01*
X173274584Y-103293135D01*
X172514410Y-102532962D01*
X172577993Y-102515925D01*
X172692007Y-102450099D01*
X172785099Y-102357007D01*
X172850925Y-102242993D01*
X172867962Y-102179410D01*
X173628135Y-102939584D01*
X173628136Y-102939584D01*
X173651552Y-102883053D01*
X173669544Y-102832053D01*
X173689999Y-102689780D01*
X173690000Y-102689779D01*
X173690000Y-101410214D01*
X173687106Y-101356237D01*
X173687106Y-101356235D01*
X173651561Y-101216969D01*
X173651559Y-101216962D01*
X173628135Y-101160414D01*
X172867962Y-101920588D01*
X172850925Y-101857007D01*
X172785099Y-101742993D01*
X172692007Y-101649901D01*
X172577993Y-101584075D01*
X172514410Y-101567037D01*
X173274584Y-100806862D01*
X173218059Y-100783449D01*
X173218048Y-100783445D01*
X173189374Y-100773329D01*
X173132703Y-100732462D01*
X173107122Y-100667443D01*
X173120754Y-100598916D01*
X173157745Y-100556074D01*
X173232215Y-100501969D01*
X173232215Y-100501968D01*
X173232219Y-100501966D01*
X173376966Y-100357219D01*
X173376968Y-100357215D01*
X173376971Y-100357213D01*
X173429732Y-100284590D01*
X173497287Y-100191610D01*
X173590220Y-100009219D01*
X173653477Y-99814534D01*
X173685500Y-99612352D01*
X173685500Y-99407648D01*
X173653477Y-99205466D01*
X173650871Y-99197447D01*
X173624127Y-99115137D01*
X173590220Y-99010781D01*
X173590218Y-99010778D01*
X173590218Y-99010776D01*
X173554211Y-98940110D01*
X173497287Y-98828390D01*
X173447948Y-98760480D01*
X173376971Y-98662786D01*
X173232213Y-98518028D01*
X173066614Y-98397715D01*
X173060006Y-98394348D01*
X172973917Y-98350483D01*
X172923123Y-98302511D01*
X172906328Y-98234690D01*
X172928865Y-98168555D01*
X172973917Y-98129516D01*
X173066610Y-98082287D01*
X173097437Y-98059890D01*
X173232213Y-97961971D01*
X173232215Y-97961968D01*
X173232219Y-97961966D01*
X173376966Y-97817219D01*
X173376968Y-97817215D01*
X173376971Y-97817213D01*
X173445998Y-97722204D01*
X173497287Y-97651610D01*
X173590220Y-97469219D01*
X173653477Y-97274534D01*
X173685500Y-97072352D01*
X173685500Y-96867648D01*
X173653477Y-96665466D01*
X173590220Y-96470781D01*
X173590218Y-96470778D01*
X173590218Y-96470776D01*
X173556503Y-96404607D01*
X173497287Y-96288390D01*
X173489556Y-96277749D01*
X173376971Y-96122786D01*
X173232213Y-95978028D01*
X173066614Y-95857715D01*
X173060006Y-95854348D01*
X172973917Y-95810483D01*
X172923123Y-95762511D01*
X172906328Y-95694690D01*
X172928865Y-95628555D01*
X172973917Y-95589516D01*
X173066610Y-95542287D01*
X173087770Y-95526913D01*
X173232213Y-95421971D01*
X173232215Y-95421968D01*
X173232219Y-95421966D01*
X173376966Y-95277219D01*
X173376968Y-95277215D01*
X173376971Y-95277213D01*
X173429732Y-95204590D01*
X173497287Y-95111610D01*
X173590220Y-94929219D01*
X173653477Y-94734534D01*
X173685500Y-94532352D01*
X173685500Y-94327648D01*
X173653477Y-94125466D01*
X173590220Y-93930781D01*
X173590218Y-93930778D01*
X173590218Y-93930776D01*
X173509956Y-93773255D01*
X173497287Y-93748390D01*
X173489556Y-93737749D01*
X173376971Y-93582786D01*
X173232213Y-93438028D01*
X173066614Y-93317715D01*
X173060006Y-93314348D01*
X172973917Y-93270483D01*
X172923123Y-93222511D01*
X172906328Y-93154690D01*
X172928865Y-93088555D01*
X172973917Y-93049516D01*
X173066610Y-93002287D01*
X173087770Y-92986913D01*
X173232213Y-92881971D01*
X173232215Y-92881968D01*
X173232219Y-92881966D01*
X173376966Y-92737219D01*
X173376968Y-92737215D01*
X173376971Y-92737213D01*
X173429732Y-92664590D01*
X173497287Y-92571610D01*
X173590220Y-92389219D01*
X173653477Y-92194534D01*
X173685500Y-91992352D01*
X173685500Y-91787648D01*
X173653477Y-91585466D01*
X173590220Y-91390781D01*
X173590218Y-91390778D01*
X173590218Y-91390776D01*
X173556503Y-91324607D01*
X173497287Y-91208390D01*
X173489556Y-91197749D01*
X173376971Y-91042786D01*
X173232217Y-90898032D01*
X173155415Y-90842232D01*
X173112750Y-90786902D01*
X173106771Y-90717288D01*
X173139377Y-90655494D01*
X173197640Y-90621765D01*
X173218039Y-90616559D01*
X173274584Y-90593136D01*
X173274584Y-90593135D01*
X172514410Y-89832962D01*
X172577993Y-89815925D01*
X172692007Y-89750099D01*
X172785099Y-89657007D01*
X172850925Y-89542993D01*
X172867962Y-89479410D01*
X173628135Y-90239584D01*
X173628136Y-90239584D01*
X173651552Y-90183053D01*
X173669544Y-90132053D01*
X173689999Y-89989780D01*
X173690000Y-89989779D01*
X173690000Y-88710224D01*
X173689999Y-88710204D01*
X173687106Y-88656237D01*
X173687106Y-88656235D01*
X173651561Y-88516969D01*
X173651559Y-88516962D01*
X173628135Y-88460414D01*
X172867962Y-89220588D01*
X172850925Y-89157007D01*
X172785099Y-89042993D01*
X172692007Y-88949901D01*
X172577993Y-88884075D01*
X172514410Y-88867037D01*
X173274584Y-88106862D01*
X173218059Y-88083449D01*
X173218048Y-88083445D01*
X173189374Y-88073329D01*
X173132703Y-88032462D01*
X173107122Y-87967443D01*
X173120754Y-87898916D01*
X173157745Y-87856074D01*
X173232215Y-87801969D01*
X173232215Y-87801968D01*
X173232219Y-87801966D01*
X173376966Y-87657219D01*
X173376968Y-87657215D01*
X173376971Y-87657213D01*
X173429732Y-87584590D01*
X173497287Y-87491610D01*
X173590220Y-87309219D01*
X173653477Y-87114534D01*
X173685500Y-86912352D01*
X173685500Y-86707648D01*
X173653477Y-86505466D01*
X173590220Y-86310781D01*
X173590218Y-86310778D01*
X173590218Y-86310776D01*
X173530775Y-86194114D01*
X173497287Y-86128390D01*
X173489556Y-86117749D01*
X173376971Y-85962786D01*
X173232213Y-85818028D01*
X173066614Y-85697715D01*
X173042444Y-85685400D01*
X172973917Y-85650483D01*
X172923123Y-85602511D01*
X172906328Y-85534690D01*
X172928865Y-85468555D01*
X172973917Y-85429516D01*
X173066610Y-85382287D01*
X173154844Y-85318182D01*
X173232213Y-85261971D01*
X173232215Y-85261968D01*
X173232219Y-85261966D01*
X173376966Y-85117219D01*
X173376968Y-85117215D01*
X173376971Y-85117213D01*
X173440900Y-85029221D01*
X173497287Y-84951610D01*
X173590220Y-84769219D01*
X173653477Y-84574534D01*
X173685500Y-84372352D01*
X173685500Y-84167648D01*
X173653477Y-83965466D01*
X173590220Y-83770781D01*
X173590218Y-83770778D01*
X173590218Y-83770776D01*
X173526868Y-83646446D01*
X173497287Y-83588390D01*
X173423974Y-83487482D01*
X173376971Y-83422786D01*
X173232213Y-83278028D01*
X173066614Y-83157715D01*
X173060006Y-83154348D01*
X172973917Y-83110483D01*
X172923123Y-83062511D01*
X172906328Y-82994690D01*
X172928865Y-82928555D01*
X172973917Y-82889516D01*
X173066610Y-82842287D01*
X173156004Y-82777339D01*
X173232213Y-82721971D01*
X173232215Y-82721968D01*
X173232219Y-82721966D01*
X173376966Y-82577219D01*
X173376968Y-82577215D01*
X173376971Y-82577213D01*
X173433068Y-82500000D01*
X173497287Y-82411610D01*
X173590220Y-82229219D01*
X173653477Y-82034534D01*
X173685500Y-81832352D01*
X173685500Y-81627648D01*
X173653477Y-81425466D01*
X173590220Y-81230781D01*
X173590218Y-81230778D01*
X173590218Y-81230776D01*
X173556503Y-81164607D01*
X173497287Y-81048390D01*
X173489556Y-81037749D01*
X173376971Y-80882786D01*
X173232213Y-80738028D01*
X173066614Y-80617715D01*
X173060006Y-80614348D01*
X172973917Y-80570483D01*
X172923123Y-80522511D01*
X172906328Y-80454690D01*
X172928865Y-80388555D01*
X172973917Y-80349516D01*
X173066610Y-80302287D01*
X173087770Y-80286913D01*
X173232213Y-80181971D01*
X173232215Y-80181968D01*
X173232219Y-80181966D01*
X173376966Y-80037219D01*
X173376968Y-80037215D01*
X173376971Y-80037213D01*
X173429732Y-79964590D01*
X173497287Y-79871610D01*
X173590220Y-79689219D01*
X173653477Y-79494534D01*
X173685500Y-79292352D01*
X173685500Y-79087648D01*
X173653477Y-78885466D01*
X173590220Y-78690781D01*
X173590218Y-78690778D01*
X173590218Y-78690776D01*
X173556503Y-78624607D01*
X173497287Y-78508390D01*
X173489556Y-78497749D01*
X173376971Y-78342786D01*
X173232217Y-78198032D01*
X173155415Y-78142232D01*
X173112750Y-78086902D01*
X173106771Y-78017288D01*
X173139377Y-77955494D01*
X173197640Y-77921765D01*
X173218039Y-77916559D01*
X173274584Y-77893136D01*
X173274584Y-77893135D01*
X172514410Y-77132962D01*
X172577993Y-77115925D01*
X172692007Y-77050099D01*
X172785099Y-76957007D01*
X172850925Y-76842993D01*
X172867962Y-76779410D01*
X173628135Y-77539584D01*
X173628136Y-77539584D01*
X173651552Y-77483053D01*
X173669544Y-77432053D01*
X173689999Y-77289780D01*
X173690000Y-77289779D01*
X173690000Y-76010224D01*
X173690000Y-76010219D01*
X188859500Y-76010219D01*
X188859500Y-77289784D01*
X188862395Y-77343814D01*
X188862396Y-77343818D01*
X188897976Y-77483221D01*
X188897980Y-77483233D01*
X188928419Y-77556719D01*
X188928431Y-77556747D01*
X188951779Y-77605548D01*
X188951781Y-77605551D01*
X189038006Y-77720733D01*
X189038010Y-77720737D01*
X189038015Y-77720743D01*
X189094252Y-77776980D01*
X189094261Y-77776988D01*
X189094267Y-77776994D01*
X189134524Y-77813156D01*
X189134532Y-77813162D01*
X189258263Y-77886573D01*
X189258262Y-77886573D01*
X189265329Y-77889500D01*
X189331774Y-77917022D01*
X189347645Y-77922621D01*
X189360133Y-77927027D01*
X189416805Y-77967894D01*
X189442386Y-78032912D01*
X189428754Y-78101439D01*
X189391765Y-78144281D01*
X189317782Y-78198032D01*
X189173028Y-78342786D01*
X189052715Y-78508386D01*
X188959781Y-78690776D01*
X188896522Y-78885465D01*
X188864500Y-79087648D01*
X188864500Y-79292351D01*
X188896522Y-79494534D01*
X188959781Y-79689223D01*
X189052715Y-79871613D01*
X189173028Y-80037213D01*
X189317786Y-80181971D01*
X189472749Y-80294556D01*
X189483390Y-80302287D01*
X189574840Y-80348883D01*
X189576080Y-80349515D01*
X189626876Y-80397490D01*
X189643671Y-80465311D01*
X189621134Y-80531446D01*
X189576080Y-80570485D01*
X189483386Y-80617715D01*
X189317786Y-80738028D01*
X189173028Y-80882786D01*
X189052715Y-81048386D01*
X188959781Y-81230776D01*
X188896522Y-81425465D01*
X188864500Y-81627648D01*
X188864500Y-81832351D01*
X188896522Y-82034534D01*
X188959781Y-82229223D01*
X189052715Y-82411613D01*
X189173028Y-82577213D01*
X189317786Y-82721971D01*
X189441590Y-82811918D01*
X189483390Y-82842287D01*
X189574840Y-82888883D01*
X189576080Y-82889515D01*
X189626876Y-82937490D01*
X189643671Y-83005311D01*
X189621134Y-83071446D01*
X189576080Y-83110485D01*
X189483386Y-83157715D01*
X189317786Y-83278028D01*
X189173028Y-83422786D01*
X189052715Y-83588386D01*
X188959781Y-83770776D01*
X188896522Y-83965465D01*
X188864500Y-84167648D01*
X188864500Y-84372351D01*
X188896522Y-84574534D01*
X188959781Y-84769223D01*
X189052715Y-84951613D01*
X189173028Y-85117213D01*
X189317786Y-85261971D01*
X189472749Y-85374556D01*
X189483390Y-85382287D01*
X189574840Y-85428883D01*
X189576080Y-85429515D01*
X189626876Y-85477490D01*
X189643671Y-85545311D01*
X189621134Y-85611446D01*
X189576080Y-85650485D01*
X189483386Y-85697715D01*
X189317786Y-85818028D01*
X189173028Y-85962786D01*
X189052715Y-86128386D01*
X188959781Y-86310776D01*
X188896522Y-86505465D01*
X188864500Y-86707648D01*
X188864500Y-86912351D01*
X188896522Y-87114534D01*
X188959781Y-87309223D01*
X189052715Y-87491613D01*
X189173028Y-87657213D01*
X189317782Y-87801967D01*
X189317787Y-87801971D01*
X189394583Y-87857767D01*
X189437249Y-87913097D01*
X189443228Y-87982710D01*
X189410622Y-88044505D01*
X189352365Y-88078233D01*
X189331973Y-88083437D01*
X189331962Y-88083441D01*
X189275415Y-88106863D01*
X190035589Y-88867037D01*
X189972007Y-88884075D01*
X189857993Y-88949901D01*
X189764901Y-89042993D01*
X189699075Y-89157007D01*
X189682037Y-89220589D01*
X188921863Y-88460415D01*
X188921862Y-88460415D01*
X188898446Y-88516947D01*
X188898431Y-88516987D01*
X188880457Y-88567939D01*
X188880455Y-88567946D01*
X188860000Y-88710219D01*
X188860000Y-89989785D01*
X188862893Y-90043762D01*
X188862893Y-90043764D01*
X188898438Y-90183030D01*
X188898442Y-90183043D01*
X188921862Y-90239584D01*
X189682037Y-89479410D01*
X189699075Y-89542993D01*
X189764901Y-89657007D01*
X189857993Y-89750099D01*
X189972007Y-89815925D01*
X190035589Y-89832962D01*
X189275414Y-90593135D01*
X189331960Y-90616557D01*
X189331986Y-90616567D01*
X189360621Y-90626669D01*
X189417294Y-90667534D01*
X189442876Y-90732552D01*
X189429246Y-90801080D01*
X189392256Y-90843924D01*
X189317782Y-90898032D01*
X189173028Y-91042786D01*
X189052715Y-91208386D01*
X188959781Y-91390776D01*
X188896522Y-91585465D01*
X188864500Y-91787648D01*
X188864500Y-91992351D01*
X188896522Y-92194534D01*
X188959781Y-92389223D01*
X189052715Y-92571613D01*
X189173028Y-92737213D01*
X189317786Y-92881971D01*
X189472749Y-92994556D01*
X189483390Y-93002287D01*
X189574840Y-93048883D01*
X189576080Y-93049515D01*
X189626876Y-93097490D01*
X189643671Y-93165311D01*
X189621134Y-93231446D01*
X189576080Y-93270485D01*
X189483386Y-93317715D01*
X189317786Y-93438028D01*
X189173028Y-93582786D01*
X189052715Y-93748386D01*
X188959781Y-93930776D01*
X188896522Y-94125465D01*
X188864500Y-94327648D01*
X188864500Y-94532351D01*
X188896522Y-94734534D01*
X188959781Y-94929223D01*
X189052715Y-95111613D01*
X189173028Y-95277213D01*
X189317786Y-95421971D01*
X189472749Y-95534556D01*
X189483390Y-95542287D01*
X189574840Y-95588883D01*
X189576080Y-95589515D01*
X189626876Y-95637490D01*
X189643671Y-95705311D01*
X189621134Y-95771446D01*
X189576080Y-95810485D01*
X189483386Y-95857715D01*
X189317786Y-95978028D01*
X189173028Y-96122786D01*
X189052715Y-96288386D01*
X188959781Y-96470776D01*
X188896522Y-96665465D01*
X188864500Y-96867648D01*
X188864500Y-97072351D01*
X188896522Y-97274534D01*
X188959781Y-97469223D01*
X188989246Y-97527050D01*
X189052712Y-97651609D01*
X189052715Y-97651613D01*
X189173028Y-97817213D01*
X189317786Y-97961971D01*
X189452563Y-98059890D01*
X189483390Y-98082287D01*
X189567219Y-98125000D01*
X189576080Y-98129515D01*
X189626876Y-98177490D01*
X189643671Y-98245311D01*
X189621134Y-98311446D01*
X189576080Y-98350485D01*
X189483386Y-98397715D01*
X189317786Y-98518028D01*
X189173028Y-98662786D01*
X189052715Y-98828386D01*
X188959781Y-99010776D01*
X188896522Y-99205465D01*
X188864500Y-99407648D01*
X188864500Y-99612351D01*
X188896522Y-99814534D01*
X188959781Y-100009223D01*
X189052715Y-100191613D01*
X189173028Y-100357213D01*
X189317782Y-100501967D01*
X189317787Y-100501971D01*
X189394583Y-100557767D01*
X189437249Y-100613097D01*
X189443228Y-100682710D01*
X189410622Y-100744505D01*
X189352365Y-100778233D01*
X189331973Y-100783437D01*
X189331962Y-100783441D01*
X189275415Y-100806863D01*
X190035589Y-101567037D01*
X189972007Y-101584075D01*
X189857993Y-101649901D01*
X189764901Y-101742993D01*
X189699075Y-101857007D01*
X189682037Y-101920589D01*
X188921863Y-101160415D01*
X188921862Y-101160415D01*
X188898446Y-101216947D01*
X188898431Y-101216987D01*
X188880457Y-101267939D01*
X188880455Y-101267946D01*
X188860000Y-101410219D01*
X188860000Y-102689785D01*
X188862893Y-102743762D01*
X188862893Y-102743764D01*
X188898438Y-102883030D01*
X188898442Y-102883043D01*
X188921862Y-102939584D01*
X189682037Y-102179410D01*
X189699075Y-102242993D01*
X189764901Y-102357007D01*
X189857993Y-102450099D01*
X189972007Y-102515925D01*
X190035589Y-102532962D01*
X189275414Y-103293135D01*
X189331960Y-103316557D01*
X189331986Y-103316567D01*
X189360621Y-103326669D01*
X189417294Y-103367534D01*
X189442876Y-103432552D01*
X189429246Y-103501080D01*
X189392256Y-103543924D01*
X189317782Y-103598032D01*
X189173028Y-103742786D01*
X189052715Y-103908386D01*
X188959781Y-104090776D01*
X188896522Y-104285465D01*
X188864500Y-104487648D01*
X188864500Y-104692351D01*
X188896522Y-104894534D01*
X188959781Y-105089223D01*
X189052715Y-105271613D01*
X189173028Y-105437213D01*
X189317786Y-105581971D01*
X189472749Y-105694556D01*
X189483390Y-105702287D01*
X189574840Y-105748883D01*
X189576080Y-105749515D01*
X189626876Y-105797490D01*
X189643671Y-105865311D01*
X189621134Y-105931446D01*
X189576080Y-105970485D01*
X189483386Y-106017715D01*
X189317786Y-106138028D01*
X189173028Y-106282786D01*
X189052715Y-106448386D01*
X188959781Y-106630776D01*
X188896522Y-106825465D01*
X188864500Y-107027648D01*
X188864500Y-107232351D01*
X188896522Y-107434534D01*
X188959781Y-107629223D01*
X189052715Y-107811613D01*
X189173028Y-107977213D01*
X189317786Y-108121971D01*
X189472749Y-108234556D01*
X189483390Y-108242287D01*
X189599607Y-108301503D01*
X189665776Y-108335218D01*
X189665778Y-108335218D01*
X189665781Y-108335220D01*
X189770137Y-108369127D01*
X189860465Y-108398477D01*
X189961557Y-108414488D01*
X190062648Y-108430500D01*
X190062649Y-108430500D01*
X190267351Y-108430500D01*
X190267352Y-108430500D01*
X190469534Y-108398477D01*
X190664219Y-108335220D01*
X190846610Y-108242287D01*
X190939590Y-108174732D01*
X191012213Y-108121971D01*
X191012215Y-108121968D01*
X191012219Y-108121966D01*
X191156966Y-107977219D01*
X191156968Y-107977215D01*
X191156971Y-107977213D01*
X191209732Y-107904590D01*
X191277287Y-107811610D01*
X191370220Y-107629219D01*
X191433477Y-107434534D01*
X191465500Y-107232352D01*
X191465500Y-107027648D01*
X191433477Y-106825466D01*
X191370220Y-106630781D01*
X191370218Y-106630778D01*
X191370218Y-106630776D01*
X191336503Y-106564607D01*
X191277287Y-106448390D01*
X191269556Y-106437749D01*
X191156971Y-106282786D01*
X191012213Y-106138028D01*
X190846614Y-106017715D01*
X190833292Y-106010927D01*
X190753917Y-105970483D01*
X190703123Y-105922511D01*
X190686328Y-105854690D01*
X190708865Y-105788555D01*
X190753917Y-105749516D01*
X190846610Y-105702287D01*
X190867770Y-105686913D01*
X191012213Y-105581971D01*
X191012215Y-105581968D01*
X191012219Y-105581966D01*
X191156966Y-105437219D01*
X191156968Y-105437215D01*
X191156971Y-105437213D01*
X191209732Y-105364590D01*
X191277287Y-105271610D01*
X191370220Y-105089219D01*
X191433477Y-104894534D01*
X191465500Y-104692352D01*
X191465500Y-104487648D01*
X191450124Y-104390568D01*
X191433477Y-104285465D01*
X191370218Y-104090776D01*
X191312505Y-103977510D01*
X191277287Y-103908390D01*
X191269556Y-103897749D01*
X191156971Y-103742786D01*
X191012213Y-103598028D01*
X190846614Y-103477715D01*
X190838410Y-103473535D01*
X190760703Y-103433941D01*
X190709908Y-103385968D01*
X190693113Y-103318147D01*
X190715650Y-103252012D01*
X190758546Y-103214099D01*
X190824503Y-103178843D01*
X190824515Y-103178837D01*
X190893913Y-103132465D01*
X190294410Y-102532962D01*
X190357993Y-102515925D01*
X190472007Y-102450099D01*
X190565099Y-102357007D01*
X190630925Y-102242993D01*
X190647962Y-102179410D01*
X191247465Y-102778913D01*
X191293837Y-102709515D01*
X191293838Y-102709511D01*
X191340509Y-102622198D01*
X191400814Y-102476612D01*
X191429555Y-102381864D01*
X191460298Y-102227302D01*
X191460298Y-102227299D01*
X191470000Y-102128789D01*
X191470000Y-101971210D01*
X191460298Y-101872700D01*
X191460298Y-101872697D01*
X191429555Y-101718135D01*
X191400814Y-101623387D01*
X191340509Y-101477801D01*
X191293844Y-101390498D01*
X191293838Y-101390488D01*
X191247465Y-101321085D01*
X190647962Y-101920588D01*
X190630925Y-101857007D01*
X190565099Y-101742993D01*
X190472007Y-101649901D01*
X190357993Y-101584075D01*
X190294410Y-101567037D01*
X190893912Y-100967534D01*
X190824511Y-100921161D01*
X190824500Y-100921155D01*
X190758545Y-100885900D01*
X190708701Y-100836937D01*
X190693241Y-100768799D01*
X190717073Y-100703119D01*
X190760702Y-100666059D01*
X190846610Y-100622287D01*
X190937745Y-100556074D01*
X191012213Y-100501971D01*
X191012215Y-100501968D01*
X191012219Y-100501966D01*
X191156966Y-100357219D01*
X191156968Y-100357215D01*
X191156971Y-100357213D01*
X191209732Y-100284590D01*
X191277287Y-100191610D01*
X191370220Y-100009219D01*
X191433477Y-99814534D01*
X191465500Y-99612352D01*
X191465500Y-99407648D01*
X191433477Y-99205466D01*
X191430871Y-99197447D01*
X191404127Y-99115137D01*
X191370220Y-99010781D01*
X191370218Y-99010778D01*
X191370218Y-99010776D01*
X191334211Y-98940110D01*
X191277287Y-98828390D01*
X191227948Y-98760480D01*
X191156971Y-98662786D01*
X191012213Y-98518028D01*
X190846614Y-98397715D01*
X190840006Y-98394348D01*
X190753917Y-98350483D01*
X190703123Y-98302511D01*
X190686328Y-98234690D01*
X190708865Y-98168555D01*
X190753917Y-98129516D01*
X190846610Y-98082287D01*
X190877437Y-98059890D01*
X191012213Y-97961971D01*
X191012215Y-97961968D01*
X191012219Y-97961966D01*
X191149202Y-97824983D01*
X197899500Y-97824983D01*
X197899500Y-99175001D01*
X197899501Y-99175018D01*
X197910000Y-99277796D01*
X197910001Y-99277799D01*
X197948013Y-99392510D01*
X197965186Y-99444334D01*
X198057288Y-99593656D01*
X198181344Y-99717712D01*
X198330666Y-99809814D01*
X198497203Y-99864999D01*
X198599991Y-99875500D01*
X199400008Y-99875499D01*
X199400016Y-99875498D01*
X199400019Y-99875498D01*
X199456302Y-99869748D01*
X199502797Y-99864999D01*
X199669334Y-99809814D01*
X199818656Y-99717712D01*
X199942712Y-99593656D01*
X199982581Y-99529016D01*
X200034525Y-99482294D01*
X200103488Y-99471071D01*
X200167570Y-99498914D01*
X200175799Y-99506434D01*
X200283397Y-99614032D01*
X200423475Y-99715804D01*
X200577744Y-99794408D01*
X200742415Y-99847914D01*
X200742414Y-99847914D01*
X200749999Y-99849115D01*
X200750000Y-99849114D01*
X200750000Y-98780330D01*
X200769745Y-98800075D01*
X200855255Y-98849444D01*
X200950630Y-98875000D01*
X201049370Y-98875000D01*
X201144745Y-98849444D01*
X201230255Y-98800075D01*
X201250000Y-98780330D01*
X201250000Y-99849115D01*
X201257584Y-99847914D01*
X201422255Y-99794408D01*
X201576524Y-99715804D01*
X201716602Y-99614032D01*
X201839036Y-99491598D01*
X201899371Y-99408552D01*
X201954700Y-99365886D01*
X202024313Y-99359905D01*
X202086109Y-99392510D01*
X202100008Y-99408550D01*
X202120587Y-99436874D01*
X202160586Y-99491928D01*
X202283072Y-99614414D01*
X202423212Y-99716232D01*
X202577555Y-99794873D01*
X202742299Y-99848402D01*
X202913389Y-99875500D01*
X202913390Y-99875500D01*
X203086610Y-99875500D01*
X203086611Y-99875500D01*
X203257701Y-99848402D01*
X203422445Y-99794873D01*
X203576788Y-99716232D01*
X203716928Y-99614414D01*
X203839414Y-99491928D01*
X203941232Y-99351788D01*
X204019873Y-99197445D01*
X204073402Y-99032701D01*
X204100500Y-98861611D01*
X204100500Y-98138389D01*
X204073402Y-97967299D01*
X204019873Y-97802555D01*
X203941232Y-97648212D01*
X203839414Y-97508072D01*
X203716928Y-97385586D01*
X203576788Y-97283768D01*
X203422445Y-97205127D01*
X203257701Y-97151598D01*
X203257699Y-97151597D01*
X203257698Y-97151597D01*
X203126271Y-97130781D01*
X203086611Y-97124500D01*
X202913389Y-97124500D01*
X202873728Y-97130781D01*
X202742302Y-97151597D01*
X202577552Y-97205128D01*
X202423211Y-97283768D01*
X202343256Y-97341859D01*
X202283072Y-97385586D01*
X202283070Y-97385588D01*
X202283069Y-97385588D01*
X202160585Y-97508072D01*
X202100007Y-97591450D01*
X202044677Y-97634115D01*
X201975063Y-97640093D01*
X201913269Y-97607486D01*
X201899371Y-97591447D01*
X201839036Y-97508401D01*
X201716602Y-97385967D01*
X201576524Y-97284195D01*
X201422257Y-97205591D01*
X201257589Y-97152087D01*
X201257581Y-97152085D01*
X201250000Y-97150884D01*
X201250000Y-98219670D01*
X201230255Y-98199925D01*
X201144745Y-98150556D01*
X201049370Y-98125000D01*
X200950630Y-98125000D01*
X200855255Y-98150556D01*
X200769745Y-98199925D01*
X200750000Y-98219670D01*
X200750000Y-97150884D01*
X200749999Y-97150884D01*
X200742418Y-97152085D01*
X200742410Y-97152087D01*
X200577742Y-97205591D01*
X200423475Y-97284195D01*
X200283401Y-97385964D01*
X200175799Y-97493566D01*
X200114476Y-97527050D01*
X200044784Y-97522066D01*
X199988851Y-97480194D01*
X199982585Y-97470988D01*
X199942712Y-97406344D01*
X199818656Y-97282288D01*
X199693559Y-97205128D01*
X199669336Y-97190187D01*
X199669331Y-97190185D01*
X199667862Y-97189698D01*
X199502797Y-97135001D01*
X199502795Y-97135000D01*
X199400010Y-97124500D01*
X198599998Y-97124500D01*
X198599980Y-97124501D01*
X198497203Y-97135000D01*
X198497200Y-97135001D01*
X198330668Y-97190185D01*
X198330663Y-97190187D01*
X198181342Y-97282289D01*
X198057289Y-97406342D01*
X197965187Y-97555663D01*
X197965185Y-97555668D01*
X197940258Y-97630893D01*
X197910001Y-97722203D01*
X197910001Y-97722204D01*
X197910000Y-97722204D01*
X197899500Y-97824983D01*
X191149202Y-97824983D01*
X191156966Y-97817219D01*
X191167622Y-97802552D01*
X191206565Y-97748952D01*
X191206567Y-97748949D01*
X191232083Y-97713828D01*
X191277287Y-97651610D01*
X191370220Y-97469219D01*
X191433477Y-97274534D01*
X191465500Y-97072352D01*
X191465500Y-96867648D01*
X191433477Y-96665466D01*
X191370220Y-96470781D01*
X191370218Y-96470778D01*
X191370218Y-96470776D01*
X191336503Y-96404607D01*
X191277287Y-96288390D01*
X191269556Y-96277749D01*
X191156971Y-96122786D01*
X191012213Y-95978028D01*
X190846614Y-95857715D01*
X190840006Y-95854348D01*
X190753917Y-95810483D01*
X190703123Y-95762511D01*
X190686328Y-95694690D01*
X190708865Y-95628555D01*
X190753917Y-95589516D01*
X190846610Y-95542287D01*
X190867770Y-95526913D01*
X191012213Y-95421971D01*
X191012215Y-95421968D01*
X191012219Y-95421966D01*
X191156966Y-95277219D01*
X191156968Y-95277215D01*
X191156971Y-95277213D01*
X191209732Y-95204590D01*
X191277287Y-95111610D01*
X191370220Y-94929219D01*
X191433477Y-94734534D01*
X191465500Y-94532352D01*
X191465500Y-94327648D01*
X191433477Y-94125466D01*
X191370220Y-93930781D01*
X191370218Y-93930778D01*
X191370218Y-93930776D01*
X191289956Y-93773255D01*
X191277287Y-93748390D01*
X191269556Y-93737749D01*
X191156971Y-93582786D01*
X191012213Y-93438028D01*
X190846614Y-93317715D01*
X190840006Y-93314348D01*
X190753917Y-93270483D01*
X190703123Y-93222511D01*
X190686328Y-93154690D01*
X190708865Y-93088555D01*
X190753917Y-93049516D01*
X190846610Y-93002287D01*
X190867770Y-92986913D01*
X191012213Y-92881971D01*
X191012215Y-92881968D01*
X191012219Y-92881966D01*
X191156966Y-92737219D01*
X191156968Y-92737215D01*
X191156971Y-92737213D01*
X191209732Y-92664590D01*
X191277287Y-92571610D01*
X191370220Y-92389219D01*
X191433477Y-92194534D01*
X191465500Y-91992352D01*
X191465500Y-91787648D01*
X191433477Y-91585466D01*
X191370220Y-91390781D01*
X191370218Y-91390778D01*
X191370218Y-91390776D01*
X191336503Y-91324607D01*
X191277287Y-91208390D01*
X191269556Y-91197749D01*
X191156971Y-91042786D01*
X191012213Y-90898028D01*
X190846614Y-90777715D01*
X190838410Y-90773535D01*
X190760703Y-90733941D01*
X190709908Y-90685968D01*
X190693113Y-90618147D01*
X190715650Y-90552012D01*
X190758546Y-90514099D01*
X190824503Y-90478843D01*
X190824515Y-90478837D01*
X190893913Y-90432465D01*
X190294410Y-89832962D01*
X190357993Y-89815925D01*
X190472007Y-89750099D01*
X190565099Y-89657007D01*
X190630925Y-89542993D01*
X190647962Y-89479410D01*
X191247465Y-90078913D01*
X191293837Y-90009515D01*
X191293838Y-90009511D01*
X191340509Y-89922198D01*
X191400814Y-89776612D01*
X191429555Y-89681864D01*
X191460298Y-89527302D01*
X191460298Y-89527299D01*
X191470000Y-89428789D01*
X191470000Y-89271210D01*
X191460298Y-89172700D01*
X191460298Y-89172697D01*
X191429555Y-89018135D01*
X191400814Y-88923387D01*
X191340509Y-88777801D01*
X191309076Y-88718995D01*
X206409499Y-88718995D01*
X206436418Y-88854322D01*
X206436421Y-88854332D01*
X206489221Y-88981804D01*
X206489228Y-88981817D01*
X206565885Y-89096541D01*
X206565888Y-89096545D01*
X206663454Y-89194111D01*
X206663458Y-89194114D01*
X206778182Y-89270771D01*
X206778195Y-89270778D01*
X206889989Y-89317084D01*
X206905672Y-89323580D01*
X206905676Y-89323580D01*
X206905677Y-89323581D01*
X207041004Y-89350500D01*
X207041007Y-89350500D01*
X207178995Y-89350500D01*
X207270041Y-89332389D01*
X207314328Y-89323580D01*
X207441811Y-89270775D01*
X207556542Y-89194114D01*
X207654114Y-89096542D01*
X207730775Y-88981811D01*
X207783580Y-88854328D01*
X207810500Y-88718993D01*
X207810500Y-88581007D01*
X207810500Y-88581004D01*
X207783581Y-88445677D01*
X207783580Y-88445676D01*
X207783580Y-88445672D01*
X207757166Y-88381902D01*
X207730778Y-88318195D01*
X207730771Y-88318182D01*
X207654114Y-88203458D01*
X207654111Y-88203454D01*
X207556545Y-88105888D01*
X207556541Y-88105885D01*
X207441817Y-88029228D01*
X207441804Y-88029221D01*
X207314332Y-87976421D01*
X207314322Y-87976418D01*
X207178995Y-87949500D01*
X207178993Y-87949500D01*
X207041007Y-87949500D01*
X207041005Y-87949500D01*
X206905677Y-87976418D01*
X206905667Y-87976421D01*
X206778195Y-88029221D01*
X206778182Y-88029228D01*
X206663458Y-88105885D01*
X206663454Y-88105888D01*
X206565888Y-88203454D01*
X206565885Y-88203458D01*
X206489228Y-88318182D01*
X206489221Y-88318195D01*
X206436421Y-88445667D01*
X206436418Y-88445677D01*
X206409500Y-88581004D01*
X206409500Y-88581007D01*
X206409500Y-88718993D01*
X206409500Y-88718995D01*
X206409499Y-88718995D01*
X191309076Y-88718995D01*
X191293844Y-88690498D01*
X191293838Y-88690488D01*
X191262646Y-88643806D01*
X191247465Y-88621086D01*
X190647962Y-89220588D01*
X190630925Y-89157007D01*
X190565099Y-89042993D01*
X190472007Y-88949901D01*
X190357993Y-88884075D01*
X190294410Y-88867037D01*
X190893912Y-88267534D01*
X190824511Y-88221161D01*
X190824500Y-88221155D01*
X190758545Y-88185900D01*
X190708701Y-88136937D01*
X190693241Y-88068799D01*
X190717073Y-88003119D01*
X190760702Y-87966059D01*
X190846610Y-87922287D01*
X190937745Y-87856074D01*
X191012213Y-87801971D01*
X191012215Y-87801968D01*
X191012219Y-87801966D01*
X191156966Y-87657219D01*
X191156968Y-87657215D01*
X191156971Y-87657213D01*
X191209732Y-87584590D01*
X191277287Y-87491610D01*
X191370220Y-87309219D01*
X191433477Y-87114534D01*
X191465500Y-86912352D01*
X191465500Y-86707648D01*
X191433477Y-86505466D01*
X191370220Y-86310781D01*
X191370218Y-86310778D01*
X191370218Y-86310776D01*
X191310775Y-86194114D01*
X191277287Y-86128390D01*
X191269556Y-86117749D01*
X191156971Y-85962786D01*
X191012213Y-85818028D01*
X190875904Y-85718995D01*
X206409499Y-85718995D01*
X206436418Y-85854322D01*
X206436421Y-85854332D01*
X206489221Y-85981804D01*
X206489228Y-85981817D01*
X206565885Y-86096541D01*
X206565888Y-86096545D01*
X206663454Y-86194111D01*
X206663458Y-86194114D01*
X206778182Y-86270771D01*
X206778195Y-86270778D01*
X206874760Y-86310776D01*
X206905672Y-86323580D01*
X206905676Y-86323580D01*
X206905677Y-86323581D01*
X207041004Y-86350500D01*
X207041007Y-86350500D01*
X207178995Y-86350500D01*
X207270041Y-86332389D01*
X207314328Y-86323580D01*
X207441811Y-86270775D01*
X207556542Y-86194114D01*
X207654114Y-86096542D01*
X207730775Y-85981811D01*
X207783580Y-85854328D01*
X207810500Y-85718993D01*
X207810500Y-85581007D01*
X207810500Y-85581004D01*
X207783581Y-85445677D01*
X207783580Y-85445676D01*
X207783580Y-85445672D01*
X207757324Y-85382284D01*
X207730778Y-85318195D01*
X207730771Y-85318182D01*
X207654114Y-85203458D01*
X207654111Y-85203454D01*
X207556545Y-85105888D01*
X207556541Y-85105885D01*
X207441817Y-85029228D01*
X207441804Y-85029221D01*
X207314332Y-84976421D01*
X207314322Y-84976418D01*
X207178995Y-84949500D01*
X207178993Y-84949500D01*
X207041007Y-84949500D01*
X207041005Y-84949500D01*
X206905677Y-84976418D01*
X206905667Y-84976421D01*
X206778195Y-85029221D01*
X206778182Y-85029228D01*
X206663458Y-85105885D01*
X206663454Y-85105888D01*
X206565888Y-85203454D01*
X206565885Y-85203458D01*
X206489228Y-85318182D01*
X206489221Y-85318195D01*
X206436421Y-85445667D01*
X206436418Y-85445677D01*
X206409500Y-85581004D01*
X206409500Y-85581007D01*
X206409500Y-85718993D01*
X206409500Y-85718995D01*
X206409499Y-85718995D01*
X190875904Y-85718995D01*
X190846614Y-85697715D01*
X190822444Y-85685400D01*
X190753917Y-85650483D01*
X190703123Y-85602511D01*
X190686328Y-85534690D01*
X190708865Y-85468555D01*
X190753917Y-85429516D01*
X190846610Y-85382287D01*
X190934844Y-85318182D01*
X191012213Y-85261971D01*
X191012215Y-85261968D01*
X191012219Y-85261966D01*
X191156966Y-85117219D01*
X191156968Y-85117215D01*
X191156971Y-85117213D01*
X191220900Y-85029221D01*
X191277287Y-84951610D01*
X191370220Y-84769219D01*
X191433477Y-84574534D01*
X191465500Y-84372352D01*
X191465500Y-84167648D01*
X191433477Y-83965466D01*
X191370220Y-83770781D01*
X191370218Y-83770778D01*
X191370218Y-83770776D01*
X191306868Y-83646446D01*
X191277287Y-83588390D01*
X191203974Y-83487482D01*
X191156971Y-83422786D01*
X191012213Y-83278028D01*
X190846614Y-83157715D01*
X190840006Y-83154348D01*
X190753917Y-83110483D01*
X190703123Y-83062511D01*
X190686328Y-82994690D01*
X190708865Y-82928555D01*
X190753917Y-82889516D01*
X190846610Y-82842287D01*
X190936004Y-82777339D01*
X191012213Y-82721971D01*
X191012215Y-82721968D01*
X191012219Y-82721966D01*
X191156966Y-82577219D01*
X191156968Y-82577215D01*
X191156971Y-82577213D01*
X191213068Y-82500000D01*
X191277287Y-82411610D01*
X191370220Y-82229219D01*
X191433477Y-82034534D01*
X191465500Y-81832352D01*
X191465500Y-81627648D01*
X191433477Y-81425466D01*
X191370220Y-81230781D01*
X191370218Y-81230778D01*
X191370218Y-81230776D01*
X191336503Y-81164607D01*
X191277287Y-81048390D01*
X191269556Y-81037749D01*
X191156971Y-80882786D01*
X191012213Y-80738028D01*
X190846614Y-80617715D01*
X190840006Y-80614348D01*
X190753917Y-80570483D01*
X190703123Y-80522511D01*
X190686328Y-80454690D01*
X190708865Y-80388555D01*
X190753917Y-80349516D01*
X190846610Y-80302287D01*
X190867770Y-80286913D01*
X191012213Y-80181971D01*
X191012215Y-80181968D01*
X191012219Y-80181966D01*
X191156966Y-80037219D01*
X191156968Y-80037215D01*
X191156971Y-80037213D01*
X191209732Y-79964590D01*
X191277287Y-79871610D01*
X191370220Y-79689219D01*
X191433477Y-79494534D01*
X191465500Y-79292352D01*
X191465500Y-79087648D01*
X191433477Y-78885466D01*
X191370220Y-78690781D01*
X191370218Y-78690778D01*
X191370218Y-78690776D01*
X191336503Y-78624607D01*
X191277287Y-78508390D01*
X191269556Y-78497749D01*
X191156971Y-78342786D01*
X191012213Y-78198028D01*
X190846613Y-78077715D01*
X190846612Y-78077714D01*
X190846610Y-78077713D01*
X190793947Y-78050880D01*
X190761245Y-78034217D01*
X190710449Y-77986242D01*
X190693654Y-77918421D01*
X190716192Y-77852286D01*
X190759083Y-77814376D01*
X190824783Y-77779259D01*
X190955811Y-77691709D01*
X191032412Y-77628843D01*
X191143843Y-77517412D01*
X191206709Y-77440811D01*
X191294259Y-77309783D01*
X191340972Y-77222389D01*
X191401278Y-77076798D01*
X191430044Y-76981968D01*
X191460787Y-76827410D01*
X191470500Y-76728793D01*
X191470500Y-76571207D01*
X191460787Y-76472590D01*
X191430044Y-76318032D01*
X191401278Y-76223202D01*
X191340972Y-76077611D01*
X191294259Y-75990217D01*
X191280129Y-75969070D01*
X191206721Y-75859206D01*
X191206712Y-75859194D01*
X191206709Y-75859189D01*
X191143843Y-75782588D01*
X191032412Y-75671157D01*
X190955811Y-75608291D01*
X190955804Y-75608286D01*
X190955793Y-75608278D01*
X190824799Y-75520751D01*
X190824788Y-75520744D01*
X190824783Y-75520741D01*
X190802645Y-75508908D01*
X190759086Y-75485625D01*
X190709242Y-75436662D01*
X190693782Y-75368524D01*
X190717614Y-75302845D01*
X190761246Y-75265782D01*
X190846610Y-75222287D01*
X190937745Y-75156074D01*
X191012213Y-75101971D01*
X191012215Y-75101968D01*
X191012219Y-75101966D01*
X191156966Y-74957219D01*
X191156968Y-74957215D01*
X191156971Y-74957213D01*
X191209732Y-74884590D01*
X191277287Y-74791610D01*
X191370220Y-74609219D01*
X191433477Y-74414534D01*
X191465500Y-74212352D01*
X191465500Y-74007648D01*
X191433477Y-73805466D01*
X191370220Y-73610781D01*
X191370218Y-73610778D01*
X191370218Y-73610776D01*
X191336503Y-73544607D01*
X191277287Y-73428390D01*
X191269556Y-73417749D01*
X191156971Y-73262786D01*
X191012213Y-73118028D01*
X190846614Y-72997715D01*
X190840006Y-72994348D01*
X190753917Y-72950483D01*
X190703123Y-72902511D01*
X190686328Y-72834690D01*
X190708865Y-72768555D01*
X190753917Y-72729516D01*
X190846610Y-72682287D01*
X190867770Y-72666913D01*
X191012213Y-72561971D01*
X191012215Y-72561968D01*
X191012219Y-72561966D01*
X191156966Y-72417219D01*
X191156968Y-72417215D01*
X191156971Y-72417213D01*
X191230329Y-72316243D01*
X191277287Y-72251610D01*
X191370220Y-72069219D01*
X191433477Y-71874534D01*
X191465500Y-71672352D01*
X191465500Y-71467648D01*
X191433477Y-71265466D01*
X191370220Y-71070781D01*
X191370218Y-71070778D01*
X191370218Y-71070776D01*
X191318813Y-70969890D01*
X191277287Y-70888390D01*
X191214048Y-70801348D01*
X191156971Y-70722786D01*
X191012213Y-70578028D01*
X190846614Y-70457715D01*
X190840006Y-70454348D01*
X190753917Y-70410483D01*
X190703123Y-70362511D01*
X190686328Y-70294690D01*
X190708865Y-70228555D01*
X190753917Y-70189516D01*
X190846610Y-70142287D01*
X190867770Y-70126913D01*
X191012213Y-70021971D01*
X191012215Y-70021968D01*
X191012219Y-70021966D01*
X191156966Y-69877219D01*
X191156968Y-69877215D01*
X191156971Y-69877213D01*
X191230329Y-69776243D01*
X191277287Y-69711610D01*
X191370220Y-69529219D01*
X191433477Y-69334534D01*
X191465500Y-69132352D01*
X191465500Y-68927648D01*
X191433477Y-68725466D01*
X191424644Y-68698282D01*
X191370218Y-68530776D01*
X191318813Y-68429890D01*
X191277287Y-68348390D01*
X191245726Y-68304949D01*
X191156971Y-68182786D01*
X191012213Y-68038028D01*
X190846614Y-67917715D01*
X190832917Y-67910736D01*
X190753917Y-67870483D01*
X190703123Y-67822511D01*
X190686328Y-67754690D01*
X190708865Y-67688555D01*
X190753917Y-67649516D01*
X190846610Y-67602287D01*
X190875396Y-67581373D01*
X191012213Y-67481971D01*
X191012215Y-67481968D01*
X191012219Y-67481966D01*
X191156966Y-67337219D01*
X191156968Y-67337215D01*
X191156971Y-67337213D01*
X191230329Y-67236243D01*
X191277287Y-67171610D01*
X191370220Y-66989219D01*
X191433477Y-66794534D01*
X191465500Y-66592352D01*
X191465500Y-66387648D01*
X191433477Y-66185466D01*
X191370220Y-65990781D01*
X191370218Y-65990778D01*
X191370218Y-65990776D01*
X191336503Y-65924607D01*
X191277287Y-65808390D01*
X191245249Y-65764293D01*
X191156971Y-65642786D01*
X191012213Y-65498028D01*
X190846614Y-65377715D01*
X190767436Y-65337372D01*
X190760703Y-65333941D01*
X190709908Y-65285968D01*
X190693113Y-65218147D01*
X190715650Y-65152012D01*
X190758546Y-65114099D01*
X190824503Y-65078843D01*
X190824515Y-65078837D01*
X190893913Y-65032465D01*
X190294410Y-64432962D01*
X190357993Y-64415925D01*
X190472007Y-64350099D01*
X190565099Y-64257007D01*
X190630925Y-64142993D01*
X190647962Y-64079410D01*
X191247464Y-64678913D01*
X191247465Y-64678913D01*
X191293837Y-64609515D01*
X191293838Y-64609511D01*
X191340509Y-64522198D01*
X191400814Y-64376612D01*
X191429555Y-64281864D01*
X191460298Y-64127302D01*
X191460298Y-64127299D01*
X191470000Y-64028789D01*
X191470000Y-63871210D01*
X191460298Y-63772700D01*
X191460298Y-63772697D01*
X191429555Y-63618135D01*
X191400814Y-63523387D01*
X191383726Y-63482135D01*
X198149500Y-63482135D01*
X198149500Y-65277870D01*
X198149501Y-65277876D01*
X198155908Y-65337483D01*
X198206202Y-65472328D01*
X198206206Y-65472335D01*
X198292452Y-65587544D01*
X198292455Y-65587547D01*
X198407664Y-65673793D01*
X198407671Y-65673797D01*
X198539082Y-65722810D01*
X198595016Y-65764681D01*
X198619433Y-65830145D01*
X198604582Y-65898418D01*
X198583431Y-65926673D01*
X198469889Y-66040215D01*
X198344951Y-66212179D01*
X198248444Y-66401585D01*
X198182753Y-66603760D01*
X198149500Y-66813713D01*
X198149500Y-67026286D01*
X198172517Y-67171613D01*
X198182754Y-67236243D01*
X198215563Y-67337219D01*
X198248444Y-67438414D01*
X198344951Y-67627820D01*
X198469890Y-67799786D01*
X198620213Y-67950109D01*
X198792179Y-68075048D01*
X198792181Y-68075049D01*
X198792184Y-68075051D01*
X198801493Y-68079794D01*
X198852290Y-68127766D01*
X198869087Y-68195587D01*
X198846552Y-68261722D01*
X198801505Y-68300760D01*
X198792446Y-68305376D01*
X198792440Y-68305380D01*
X198738282Y-68344727D01*
X198738282Y-68344728D01*
X199370591Y-68977037D01*
X199307007Y-68994075D01*
X199192993Y-69059901D01*
X199099901Y-69152993D01*
X199034075Y-69267007D01*
X199017037Y-69330591D01*
X198384728Y-68698282D01*
X198384727Y-68698282D01*
X198345380Y-68752439D01*
X198248904Y-68941782D01*
X198183242Y-69143869D01*
X198183242Y-69143872D01*
X198150000Y-69353753D01*
X198150000Y-69566246D01*
X198183242Y-69776127D01*
X198183242Y-69776130D01*
X198248904Y-69978217D01*
X198345375Y-70167550D01*
X198384728Y-70221716D01*
X199017037Y-69589408D01*
X199034075Y-69652993D01*
X199099901Y-69767007D01*
X199192993Y-69860099D01*
X199307007Y-69925925D01*
X199370590Y-69942962D01*
X198738282Y-70575269D01*
X198738282Y-70575270D01*
X198792452Y-70614626D01*
X198792451Y-70614626D01*
X198801495Y-70619234D01*
X198852292Y-70667208D01*
X198869087Y-70735029D01*
X198846550Y-70801164D01*
X198801499Y-70840202D01*
X198792182Y-70844949D01*
X198620213Y-70969890D01*
X198469890Y-71120213D01*
X198344951Y-71292179D01*
X198248444Y-71481585D01*
X198182753Y-71683760D01*
X198149500Y-71893713D01*
X198149500Y-72106286D01*
X198172517Y-72251613D01*
X198182754Y-72316243D01*
X198215563Y-72417219D01*
X198248444Y-72518414D01*
X198344951Y-72707820D01*
X198469890Y-72879786D01*
X198620213Y-73030109D01*
X198792179Y-73155048D01*
X198792181Y-73155049D01*
X198792184Y-73155051D01*
X198981588Y-73251557D01*
X199183757Y-73317246D01*
X199393713Y-73350500D01*
X199393714Y-73350500D01*
X199606286Y-73350500D01*
X199606287Y-73350500D01*
X199816243Y-73317246D01*
X200018412Y-73251557D01*
X200207816Y-73155051D01*
X200258774Y-73118028D01*
X200379786Y-73030109D01*
X200379788Y-73030106D01*
X200379792Y-73030104D01*
X200530104Y-72879792D01*
X200530106Y-72879788D01*
X200530109Y-72879786D01*
X200655048Y-72707820D01*
X200655047Y-72707820D01*
X200655051Y-72707816D01*
X200751557Y-72518412D01*
X200817246Y-72316243D01*
X200850500Y-72106287D01*
X200850500Y-71893713D01*
X200817246Y-71683757D01*
X200751557Y-71481588D01*
X200655051Y-71292184D01*
X200655049Y-71292181D01*
X200655048Y-71292179D01*
X200530109Y-71120213D01*
X200379786Y-70969890D01*
X200207817Y-70844949D01*
X200198504Y-70840204D01*
X200147707Y-70792230D01*
X200130912Y-70724409D01*
X200153449Y-70658274D01*
X200198507Y-70619232D01*
X200207555Y-70614622D01*
X200261716Y-70575270D01*
X200261717Y-70575270D01*
X199629408Y-69942962D01*
X199692993Y-69925925D01*
X199807007Y-69860099D01*
X199900099Y-69767007D01*
X199965925Y-69652993D01*
X199982962Y-69589408D01*
X200615270Y-70221717D01*
X200615270Y-70221716D01*
X200654622Y-70167554D01*
X200751095Y-69978217D01*
X200816757Y-69776130D01*
X200816757Y-69776127D01*
X200850000Y-69566246D01*
X200850000Y-69353753D01*
X200816757Y-69143872D01*
X200816757Y-69143869D01*
X200751095Y-68941782D01*
X200654624Y-68752449D01*
X200615270Y-68698282D01*
X200615269Y-68698282D01*
X199982962Y-69330590D01*
X199965925Y-69267007D01*
X199900099Y-69152993D01*
X199807007Y-69059901D01*
X199692993Y-68994075D01*
X199629409Y-68977037D01*
X200261716Y-68344728D01*
X200207547Y-68305373D01*
X200207547Y-68305372D01*
X200198500Y-68300763D01*
X200147706Y-68252788D01*
X200130912Y-68184966D01*
X200153451Y-68118832D01*
X200198508Y-68079793D01*
X200207816Y-68075051D01*
X200287007Y-68017515D01*
X200379786Y-67950109D01*
X200379788Y-67950106D01*
X200379792Y-67950104D01*
X200530104Y-67799792D01*
X200530106Y-67799788D01*
X200530109Y-67799786D01*
X200655048Y-67627820D01*
X200655047Y-67627820D01*
X200655051Y-67627816D01*
X200751557Y-67438412D01*
X200817246Y-67236243D01*
X200850500Y-67026287D01*
X200850500Y-66813713D01*
X200817246Y-66603757D01*
X200751557Y-66401588D01*
X200655051Y-66212184D01*
X200655049Y-66212181D01*
X200655048Y-66212179D01*
X200530109Y-66040213D01*
X200416569Y-65926673D01*
X200383084Y-65865350D01*
X200388068Y-65795658D01*
X200429940Y-65739725D01*
X200460915Y-65722810D01*
X200592331Y-65673796D01*
X200707546Y-65587546D01*
X200793796Y-65472331D01*
X200844091Y-65337483D01*
X200850500Y-65277873D01*
X200850499Y-63482128D01*
X200844091Y-63422517D01*
X200794849Y-63290493D01*
X200793797Y-63287671D01*
X200793793Y-63287664D01*
X200707547Y-63172455D01*
X200707544Y-63172452D01*
X200592335Y-63086206D01*
X200592328Y-63086202D01*
X200457482Y-63035908D01*
X200457483Y-63035908D01*
X200397883Y-63029501D01*
X200397881Y-63029500D01*
X200397873Y-63029500D01*
X200397864Y-63029500D01*
X198602129Y-63029500D01*
X198602123Y-63029501D01*
X198542516Y-63035908D01*
X198407671Y-63086202D01*
X198407664Y-63086206D01*
X198292455Y-63172452D01*
X198292452Y-63172455D01*
X198206206Y-63287664D01*
X198206202Y-63287671D01*
X198155908Y-63422517D01*
X198152954Y-63450000D01*
X198149501Y-63482123D01*
X198149500Y-63482135D01*
X191383726Y-63482135D01*
X191340509Y-63377801D01*
X191293844Y-63290498D01*
X191293838Y-63290488D01*
X191247465Y-63221085D01*
X190647962Y-63820588D01*
X190630925Y-63757007D01*
X190565099Y-63642993D01*
X190472007Y-63549901D01*
X190357993Y-63484075D01*
X190294410Y-63467037D01*
X190893912Y-62867534D01*
X190824511Y-62821161D01*
X190824500Y-62821155D01*
X190758545Y-62785900D01*
X190708701Y-62736937D01*
X190693241Y-62668799D01*
X190717073Y-62603119D01*
X190760702Y-62566059D01*
X190846610Y-62522287D01*
X190937745Y-62456074D01*
X191012213Y-62401971D01*
X191012215Y-62401968D01*
X191012219Y-62401966D01*
X191156966Y-62257219D01*
X191156968Y-62257215D01*
X191156971Y-62257213D01*
X191254834Y-62122514D01*
X191277287Y-62091610D01*
X191370220Y-61909219D01*
X191433477Y-61714534D01*
X191465500Y-61512352D01*
X191465500Y-61307648D01*
X191453373Y-61231083D01*
X191433477Y-61105465D01*
X191404127Y-61015137D01*
X191370220Y-60910781D01*
X191370218Y-60910778D01*
X191370218Y-60910776D01*
X191336503Y-60844607D01*
X191277287Y-60728390D01*
X191218826Y-60647924D01*
X191156971Y-60562786D01*
X191012213Y-60418028D01*
X190846614Y-60297715D01*
X190840006Y-60294348D01*
X190753917Y-60250483D01*
X190703123Y-60202511D01*
X190686328Y-60134690D01*
X190708865Y-60068555D01*
X190753917Y-60029516D01*
X190846610Y-59982287D01*
X190952733Y-59905185D01*
X191012213Y-59861971D01*
X191012215Y-59861968D01*
X191012219Y-59861966D01*
X191156966Y-59717219D01*
X191156968Y-59717215D01*
X191156971Y-59717213D01*
X191244170Y-59597192D01*
X191277287Y-59551610D01*
X191370220Y-59369219D01*
X191433477Y-59174534D01*
X191465500Y-58972352D01*
X191465500Y-58767648D01*
X191433477Y-58565466D01*
X191370220Y-58370781D01*
X191370218Y-58370778D01*
X191370218Y-58370776D01*
X191330170Y-58292179D01*
X191277287Y-58188390D01*
X191269556Y-58177749D01*
X191156971Y-58022786D01*
X191012213Y-57878028D01*
X190846613Y-57757715D01*
X190846612Y-57757714D01*
X190846610Y-57757713D01*
X190761855Y-57714528D01*
X190664223Y-57664781D01*
X190469534Y-57601522D01*
X190294995Y-57573878D01*
X190267352Y-57569500D01*
X190062648Y-57569500D01*
X190038329Y-57573351D01*
X189860465Y-57601522D01*
X189665776Y-57664781D01*
X189483386Y-57757715D01*
X189317786Y-57878028D01*
X189173028Y-58022786D01*
X189052715Y-58188386D01*
X188959781Y-58370776D01*
X188896522Y-58565465D01*
X188864500Y-58767648D01*
X188864500Y-58972351D01*
X188896522Y-59174534D01*
X188959781Y-59369223D01*
X189023691Y-59494653D01*
X189039976Y-59526613D01*
X189052715Y-59551613D01*
X189173028Y-59717213D01*
X189317786Y-59861971D01*
X189472749Y-59974556D01*
X189483390Y-59982287D01*
X189568139Y-60025469D01*
X189576080Y-60029515D01*
X189626876Y-60077490D01*
X189643671Y-60145311D01*
X189621134Y-60211446D01*
X189576080Y-60250485D01*
X189483386Y-60297715D01*
X189317786Y-60418028D01*
X189173028Y-60562786D01*
X189052715Y-60728386D01*
X188959781Y-60910776D01*
X188896522Y-61105465D01*
X188864500Y-61307648D01*
X188864500Y-61512351D01*
X188896522Y-61714534D01*
X188959781Y-61909223D01*
X189052715Y-62091613D01*
X189173028Y-62257213D01*
X189317782Y-62401967D01*
X189317787Y-62401971D01*
X189394583Y-62457767D01*
X189437249Y-62513097D01*
X189443228Y-62582710D01*
X189410622Y-62644505D01*
X189352365Y-62678233D01*
X189331973Y-62683437D01*
X189331962Y-62683441D01*
X189275415Y-62706863D01*
X190035589Y-63467037D01*
X189972007Y-63484075D01*
X189857993Y-63549901D01*
X189764901Y-63642993D01*
X189699075Y-63757007D01*
X189682037Y-63820589D01*
X188921863Y-63060415D01*
X188921862Y-63060415D01*
X188898446Y-63116947D01*
X188898431Y-63116987D01*
X188880457Y-63167939D01*
X188880455Y-63167946D01*
X188860000Y-63310219D01*
X188860000Y-64589785D01*
X188862893Y-64643762D01*
X188862893Y-64643764D01*
X188898438Y-64783030D01*
X188898442Y-64783043D01*
X188921862Y-64839584D01*
X189682037Y-64079410D01*
X189699075Y-64142993D01*
X189764901Y-64257007D01*
X189857993Y-64350099D01*
X189972007Y-64415925D01*
X190035589Y-64432962D01*
X189275414Y-65193135D01*
X189331960Y-65216557D01*
X189331986Y-65216567D01*
X189360621Y-65226669D01*
X189417294Y-65267534D01*
X189442876Y-65332552D01*
X189429246Y-65401080D01*
X189392256Y-65443924D01*
X189317782Y-65498032D01*
X189173028Y-65642786D01*
X189052715Y-65808386D01*
X188959781Y-65990776D01*
X188896522Y-66185465D01*
X188864500Y-66387648D01*
X188864500Y-66592351D01*
X188896522Y-66794534D01*
X188959781Y-66989223D01*
X189052715Y-67171613D01*
X189173028Y-67337213D01*
X189317786Y-67481971D01*
X189454604Y-67581373D01*
X189483390Y-67602287D01*
X189574840Y-67648883D01*
X189576080Y-67649515D01*
X189626876Y-67697490D01*
X189643671Y-67765311D01*
X189621134Y-67831446D01*
X189576080Y-67870485D01*
X189483386Y-67917715D01*
X189317786Y-68038028D01*
X189173028Y-68182786D01*
X189052715Y-68348386D01*
X188959781Y-68530776D01*
X188896522Y-68725465D01*
X188864500Y-68927648D01*
X188864500Y-69132351D01*
X188896522Y-69334534D01*
X188959781Y-69529223D01*
X189052715Y-69711613D01*
X189173028Y-69877213D01*
X189317786Y-70021971D01*
X189472749Y-70134556D01*
X189483390Y-70142287D01*
X189574840Y-70188883D01*
X189576080Y-70189515D01*
X189626876Y-70237490D01*
X189643671Y-70305311D01*
X189621134Y-70371446D01*
X189576080Y-70410485D01*
X189483386Y-70457715D01*
X189317786Y-70578028D01*
X189173028Y-70722786D01*
X189052715Y-70888386D01*
X188959781Y-71070776D01*
X188896522Y-71265465D01*
X188864500Y-71467648D01*
X188864500Y-71672351D01*
X188896522Y-71874534D01*
X188959781Y-72069223D01*
X189023691Y-72194653D01*
X189052117Y-72250441D01*
X189052715Y-72251613D01*
X189173028Y-72417213D01*
X189317786Y-72561971D01*
X189472749Y-72674556D01*
X189483390Y-72682287D01*
X189574840Y-72728883D01*
X189576080Y-72729515D01*
X189626876Y-72777490D01*
X189643671Y-72845311D01*
X189621134Y-72911446D01*
X189576080Y-72950485D01*
X189483386Y-72997715D01*
X189317786Y-73118028D01*
X189173028Y-73262786D01*
X189052715Y-73428386D01*
X188959781Y-73610776D01*
X188896522Y-73805465D01*
X188864500Y-74007648D01*
X188864500Y-74212351D01*
X188896522Y-74414534D01*
X188959781Y-74609223D01*
X189052715Y-74791613D01*
X189173028Y-74957213D01*
X189317782Y-75101967D01*
X189317787Y-75101971D01*
X189394063Y-75157389D01*
X189436729Y-75212719D01*
X189442708Y-75282332D01*
X189410102Y-75344127D01*
X189351845Y-75377855D01*
X189331776Y-75382977D01*
X189331766Y-75382980D01*
X189258280Y-75413419D01*
X189258252Y-75413431D01*
X189209451Y-75436779D01*
X189209446Y-75436782D01*
X189094268Y-75523005D01*
X189094256Y-75523015D01*
X189038019Y-75579252D01*
X189001843Y-75619524D01*
X189001837Y-75619532D01*
X188928426Y-75743263D01*
X188897978Y-75816774D01*
X188897970Y-75816795D01*
X188879976Y-75867800D01*
X188859500Y-76010219D01*
X173690000Y-76010219D01*
X173689999Y-76010204D01*
X173687106Y-75956237D01*
X173687106Y-75956235D01*
X173651561Y-75816969D01*
X173651559Y-75816962D01*
X173628135Y-75760414D01*
X172867962Y-76520588D01*
X172850925Y-76457007D01*
X172785099Y-76342993D01*
X172692007Y-76249901D01*
X172577993Y-76184075D01*
X172514410Y-76167037D01*
X173274584Y-75406862D01*
X173218059Y-75383449D01*
X173218048Y-75383445D01*
X173189374Y-75373329D01*
X173132703Y-75332462D01*
X173107122Y-75267443D01*
X173120754Y-75198916D01*
X173157745Y-75156074D01*
X173232215Y-75101969D01*
X173232215Y-75101968D01*
X173232219Y-75101966D01*
X173376966Y-74957219D01*
X173376968Y-74957215D01*
X173376971Y-74957213D01*
X173429732Y-74884590D01*
X173497287Y-74791610D01*
X173590220Y-74609219D01*
X173653477Y-74414534D01*
X173685500Y-74212352D01*
X173685500Y-74007648D01*
X173653477Y-73805466D01*
X173590220Y-73610781D01*
X173590218Y-73610778D01*
X173590218Y-73610776D01*
X173556503Y-73544607D01*
X173497287Y-73428390D01*
X173489556Y-73417749D01*
X173376971Y-73262786D01*
X173232213Y-73118028D01*
X173066614Y-72997715D01*
X173060006Y-72994348D01*
X172973917Y-72950483D01*
X172923123Y-72902511D01*
X172906328Y-72834690D01*
X172928865Y-72768555D01*
X172973917Y-72729516D01*
X173066610Y-72682287D01*
X173087770Y-72666913D01*
X173232213Y-72561971D01*
X173232215Y-72561968D01*
X173232219Y-72561966D01*
X173376966Y-72417219D01*
X173376968Y-72417215D01*
X173376971Y-72417213D01*
X173450329Y-72316243D01*
X173497287Y-72251610D01*
X173590220Y-72069219D01*
X173653477Y-71874534D01*
X173685500Y-71672352D01*
X173685500Y-71467648D01*
X173653477Y-71265466D01*
X173590220Y-71070781D01*
X173590218Y-71070778D01*
X173590218Y-71070776D01*
X173538813Y-70969890D01*
X173497287Y-70888390D01*
X173434048Y-70801348D01*
X173376971Y-70722786D01*
X173232213Y-70578028D01*
X173066614Y-70457715D01*
X173060006Y-70454348D01*
X172973917Y-70410483D01*
X172923123Y-70362511D01*
X172906328Y-70294690D01*
X172928865Y-70228555D01*
X172973917Y-70189516D01*
X173066610Y-70142287D01*
X173087770Y-70126913D01*
X173232213Y-70021971D01*
X173232215Y-70021968D01*
X173232219Y-70021966D01*
X173376966Y-69877219D01*
X173376968Y-69877215D01*
X173376971Y-69877213D01*
X173450329Y-69776243D01*
X173497287Y-69711610D01*
X173590220Y-69529219D01*
X173653477Y-69334534D01*
X173685500Y-69132352D01*
X173685500Y-68927648D01*
X173653477Y-68725466D01*
X173644644Y-68698282D01*
X173590218Y-68530776D01*
X173538813Y-68429890D01*
X173497287Y-68348390D01*
X173465726Y-68304949D01*
X173376971Y-68182786D01*
X173232213Y-68038028D01*
X173066614Y-67917715D01*
X173052917Y-67910736D01*
X172973917Y-67870483D01*
X172923123Y-67822511D01*
X172906328Y-67754690D01*
X172928865Y-67688555D01*
X172973917Y-67649516D01*
X173066610Y-67602287D01*
X173095396Y-67581373D01*
X173232213Y-67481971D01*
X173232215Y-67481968D01*
X173232219Y-67481966D01*
X173376966Y-67337219D01*
X173376968Y-67337215D01*
X173376971Y-67337213D01*
X173450329Y-67236243D01*
X173497287Y-67171610D01*
X173590220Y-66989219D01*
X173653477Y-66794534D01*
X173685500Y-66592352D01*
X173685500Y-66387648D01*
X173653477Y-66185466D01*
X173590220Y-65990781D01*
X173590218Y-65990778D01*
X173590218Y-65990776D01*
X173556503Y-65924607D01*
X173497287Y-65808390D01*
X173465249Y-65764293D01*
X173376971Y-65642786D01*
X173232217Y-65498032D01*
X173155415Y-65442232D01*
X173112750Y-65386902D01*
X173106771Y-65317288D01*
X173139377Y-65255494D01*
X173197640Y-65221765D01*
X173218039Y-65216559D01*
X173274584Y-65193136D01*
X173274584Y-65193135D01*
X172514410Y-64432962D01*
X172577993Y-64415925D01*
X172692007Y-64350099D01*
X172785099Y-64257007D01*
X172850925Y-64142993D01*
X172867962Y-64079410D01*
X173628135Y-64839584D01*
X173628136Y-64839584D01*
X173651552Y-64783053D01*
X173669544Y-64732053D01*
X173689999Y-64589780D01*
X173690000Y-64589779D01*
X173690000Y-63310214D01*
X173687106Y-63256237D01*
X173687106Y-63256235D01*
X173651561Y-63116969D01*
X173651559Y-63116962D01*
X173628135Y-63060414D01*
X172867962Y-63820588D01*
X172850925Y-63757007D01*
X172785099Y-63642993D01*
X172692007Y-63549901D01*
X172577993Y-63484075D01*
X172514410Y-63467037D01*
X173274584Y-62706862D01*
X173218059Y-62683449D01*
X173218048Y-62683445D01*
X173189374Y-62673329D01*
X173132703Y-62632462D01*
X173107122Y-62567443D01*
X173120754Y-62498916D01*
X173157745Y-62456074D01*
X173232215Y-62401969D01*
X173232215Y-62401968D01*
X173232219Y-62401966D01*
X173376966Y-62257219D01*
X173376968Y-62257215D01*
X173376971Y-62257213D01*
X173474834Y-62122514D01*
X173497287Y-62091610D01*
X173575817Y-61937486D01*
X177674500Y-61937486D01*
X177674500Y-62122513D01*
X177703445Y-62305265D01*
X177760619Y-62481232D01*
X177760620Y-62481235D01*
X177803840Y-62566057D01*
X177844622Y-62646096D01*
X177953379Y-62795787D01*
X178084213Y-62926621D01*
X178233904Y-63035378D01*
X178283040Y-63060414D01*
X178398764Y-63119379D01*
X178398767Y-63119380D01*
X178486750Y-63147967D01*
X178574736Y-63176555D01*
X178757486Y-63205500D01*
X178757487Y-63205500D01*
X178942513Y-63205500D01*
X178942514Y-63205500D01*
X179125264Y-63176555D01*
X179301235Y-63119379D01*
X179466096Y-63035378D01*
X179615787Y-62926621D01*
X179746621Y-62795787D01*
X179855378Y-62646096D01*
X179939379Y-62481235D01*
X179996555Y-62305264D01*
X180025500Y-62122514D01*
X180025500Y-61937486D01*
X182524500Y-61937486D01*
X182524500Y-62122513D01*
X182553445Y-62305265D01*
X182610619Y-62481232D01*
X182610620Y-62481235D01*
X182653840Y-62566057D01*
X182694622Y-62646096D01*
X182803379Y-62795787D01*
X182934213Y-62926621D01*
X183083904Y-63035378D01*
X183133040Y-63060414D01*
X183248764Y-63119379D01*
X183248767Y-63119380D01*
X183336750Y-63147967D01*
X183424736Y-63176555D01*
X183607486Y-63205500D01*
X183607487Y-63205500D01*
X183792513Y-63205500D01*
X183792514Y-63205500D01*
X183865660Y-63193914D01*
X183932578Y-63183316D01*
X183938847Y-63182322D01*
X183975264Y-63176555D01*
X184151235Y-63119379D01*
X184316096Y-63035378D01*
X184465787Y-62926621D01*
X184596621Y-62795787D01*
X184705378Y-62646096D01*
X184789379Y-62481235D01*
X184846555Y-62305264D01*
X184875500Y-62122514D01*
X184875500Y-61937486D01*
X184846555Y-61754736D01*
X184789379Y-61578765D01*
X184789379Y-61578764D01*
X184705377Y-61413903D01*
X184596621Y-61264213D01*
X184465787Y-61133379D01*
X184316096Y-61024622D01*
X184151235Y-60940620D01*
X184151232Y-60940619D01*
X183975265Y-60883445D01*
X183883889Y-60868972D01*
X183792514Y-60854500D01*
X183607486Y-60854500D01*
X183546569Y-60864148D01*
X183424734Y-60883445D01*
X183248767Y-60940619D01*
X183248764Y-60940620D01*
X183083903Y-61024622D01*
X182998499Y-61086672D01*
X182934213Y-61133379D01*
X182934211Y-61133381D01*
X182934210Y-61133381D01*
X182803381Y-61264210D01*
X182803381Y-61264211D01*
X182803379Y-61264213D01*
X182769092Y-61311405D01*
X182694622Y-61413903D01*
X182610620Y-61578764D01*
X182610619Y-61578767D01*
X182553445Y-61754734D01*
X182524500Y-61937486D01*
X180025500Y-61937486D01*
X179996555Y-61754736D01*
X179939379Y-61578765D01*
X179939379Y-61578764D01*
X179855377Y-61413903D01*
X179746621Y-61264213D01*
X179615787Y-61133379D01*
X179466096Y-61024622D01*
X179301235Y-60940620D01*
X179301232Y-60940619D01*
X179125265Y-60883445D01*
X179033889Y-60868972D01*
X178942514Y-60854500D01*
X178757486Y-60854500D01*
X178696569Y-60864148D01*
X178574734Y-60883445D01*
X178398767Y-60940619D01*
X178398764Y-60940620D01*
X178233903Y-61024622D01*
X178148499Y-61086672D01*
X178084213Y-61133379D01*
X178084211Y-61133381D01*
X178084210Y-61133381D01*
X177953381Y-61264210D01*
X177953381Y-61264211D01*
X177953379Y-61264213D01*
X177919092Y-61311405D01*
X177844622Y-61413903D01*
X177760620Y-61578764D01*
X177760619Y-61578767D01*
X177703445Y-61754734D01*
X177674500Y-61937486D01*
X173575817Y-61937486D01*
X173590220Y-61909219D01*
X173640415Y-61754736D01*
X173653476Y-61714538D01*
X173653476Y-61714537D01*
X173653477Y-61714534D01*
X173685500Y-61512352D01*
X173685500Y-61307648D01*
X173673373Y-61231083D01*
X173653477Y-61105465D01*
X173624127Y-61015137D01*
X173590220Y-60910781D01*
X173590218Y-60910778D01*
X173590218Y-60910776D01*
X173556503Y-60844607D01*
X173497287Y-60728390D01*
X173438826Y-60647924D01*
X173376971Y-60562786D01*
X173232217Y-60418032D01*
X173232212Y-60418028D01*
X173151440Y-60359344D01*
X173108774Y-60304015D01*
X173102795Y-60234401D01*
X173135400Y-60172606D01*
X173187433Y-60140641D01*
X173274606Y-60113478D01*
X173420185Y-60025472D01*
X173540472Y-59905185D01*
X173628478Y-59759606D01*
X173679086Y-59597196D01*
X173685500Y-59526616D01*
X173685500Y-58893713D01*
X177199500Y-58893713D01*
X177199500Y-59106287D01*
X177232754Y-59316243D01*
X177265972Y-59418478D01*
X177298444Y-59518414D01*
X177394951Y-59707820D01*
X177519890Y-59879786D01*
X177670213Y-60030109D01*
X177842179Y-60155048D01*
X177842181Y-60155049D01*
X177842184Y-60155051D01*
X178031588Y-60251557D01*
X178233757Y-60317246D01*
X178443713Y-60350500D01*
X178443714Y-60350500D01*
X178656286Y-60350500D01*
X178656287Y-60350500D01*
X178866243Y-60317246D01*
X179068412Y-60251557D01*
X179257816Y-60155051D01*
X179315038Y-60113477D01*
X179429786Y-60030109D01*
X179429788Y-60030106D01*
X179429792Y-60030104D01*
X179580104Y-59879792D01*
X179580106Y-59879788D01*
X179580109Y-59879786D01*
X179705048Y-59707820D01*
X179705047Y-59707820D01*
X179705051Y-59707816D01*
X179801557Y-59518412D01*
X179867246Y-59316243D01*
X179900500Y-59106287D01*
X179900500Y-58893713D01*
X182649500Y-58893713D01*
X182649500Y-59106287D01*
X182682754Y-59316243D01*
X182715972Y-59418478D01*
X182748444Y-59518414D01*
X182844951Y-59707820D01*
X182969890Y-59879786D01*
X183120213Y-60030109D01*
X183292179Y-60155048D01*
X183292181Y-60155049D01*
X183292184Y-60155051D01*
X183481588Y-60251557D01*
X183683757Y-60317246D01*
X183893713Y-60350500D01*
X183893714Y-60350500D01*
X184106286Y-60350500D01*
X184106287Y-60350500D01*
X184316243Y-60317246D01*
X184518412Y-60251557D01*
X184707816Y-60155051D01*
X184765038Y-60113477D01*
X184879786Y-60030109D01*
X184879788Y-60030106D01*
X184879792Y-60030104D01*
X185030104Y-59879792D01*
X185030106Y-59879788D01*
X185030109Y-59879786D01*
X185155048Y-59707820D01*
X185155047Y-59707820D01*
X185155051Y-59707816D01*
X185251557Y-59518412D01*
X185317246Y-59316243D01*
X185350500Y-59106287D01*
X185350500Y-58893713D01*
X185317246Y-58683757D01*
X185251557Y-58481588D01*
X185155051Y-58292184D01*
X185155049Y-58292181D01*
X185155048Y-58292179D01*
X185030109Y-58120213D01*
X184879786Y-57969890D01*
X184707820Y-57844951D01*
X184518414Y-57748444D01*
X184518413Y-57748443D01*
X184518412Y-57748443D01*
X184316243Y-57682754D01*
X184316241Y-57682753D01*
X184316240Y-57682753D01*
X184154957Y-57657208D01*
X184106287Y-57649500D01*
X183893713Y-57649500D01*
X183845042Y-57657208D01*
X183683760Y-57682753D01*
X183481585Y-57748444D01*
X183292179Y-57844951D01*
X183120213Y-57969890D01*
X182969890Y-58120213D01*
X182844951Y-58292179D01*
X182748444Y-58481585D01*
X182682753Y-58683760D01*
X182669467Y-58767648D01*
X182649500Y-58893713D01*
X179900500Y-58893713D01*
X179867246Y-58683757D01*
X179801557Y-58481588D01*
X179705051Y-58292184D01*
X179705049Y-58292181D01*
X179705048Y-58292179D01*
X179580109Y-58120213D01*
X179429786Y-57969890D01*
X179257820Y-57844951D01*
X179068414Y-57748444D01*
X179068413Y-57748443D01*
X179068412Y-57748443D01*
X178866243Y-57682754D01*
X178866241Y-57682753D01*
X178866240Y-57682753D01*
X178704957Y-57657208D01*
X178656287Y-57649500D01*
X178443713Y-57649500D01*
X178395042Y-57657208D01*
X178233760Y-57682753D01*
X178031585Y-57748444D01*
X177842179Y-57844951D01*
X177670213Y-57969890D01*
X177519890Y-58120213D01*
X177394951Y-58292179D01*
X177298444Y-58481585D01*
X177232753Y-58683760D01*
X177219467Y-58767648D01*
X177199500Y-58893713D01*
X173685500Y-58893713D01*
X173685500Y-58213384D01*
X173679086Y-58142804D01*
X173628478Y-57980394D01*
X173540472Y-57834815D01*
X173540470Y-57834813D01*
X173540469Y-57834811D01*
X173420188Y-57714530D01*
X173367624Y-57682754D01*
X173274606Y-57626522D01*
X173112196Y-57575914D01*
X173112194Y-57575913D01*
X173112192Y-57575913D01*
X173062778Y-57571423D01*
X173041616Y-57569500D01*
X171728384Y-57569500D01*
X171709145Y-57571248D01*
X171657807Y-57575913D01*
X171495393Y-57626522D01*
X171349811Y-57714530D01*
X171229530Y-57834811D01*
X171141522Y-57980393D01*
X171090913Y-58142807D01*
X171084500Y-58213386D01*
X171084500Y-59526613D01*
X171090913Y-59597192D01*
X171141522Y-59759606D01*
X171229530Y-59905188D01*
X171349811Y-60025469D01*
X171349813Y-60025470D01*
X171349815Y-60025472D01*
X171495394Y-60113478D01*
X171582566Y-60140641D01*
X171640712Y-60179378D01*
X171668686Y-60243403D01*
X171657605Y-60312388D01*
X171618560Y-60359344D01*
X171537782Y-60418032D01*
X171393028Y-60562786D01*
X171272715Y-60728386D01*
X171179781Y-60910776D01*
X171116522Y-61105465D01*
X171084500Y-61307648D01*
X171084500Y-61512351D01*
X171116522Y-61714534D01*
X171179781Y-61909223D01*
X171272715Y-62091613D01*
X171393028Y-62257213D01*
X171537786Y-62401971D01*
X171703388Y-62522286D01*
X171703390Y-62522287D01*
X171789294Y-62566057D01*
X171840090Y-62614031D01*
X171856886Y-62681852D01*
X171834349Y-62747987D01*
X171791455Y-62785899D01*
X171725497Y-62821155D01*
X171656086Y-62867534D01*
X171656085Y-62867534D01*
X172255589Y-63467037D01*
X172192007Y-63484075D01*
X172077993Y-63549901D01*
X171984901Y-63642993D01*
X171919075Y-63757007D01*
X171902037Y-63820588D01*
X171302534Y-63221085D01*
X171302534Y-63221086D01*
X171256158Y-63290493D01*
X171209490Y-63377801D01*
X171149185Y-63523387D01*
X171120444Y-63618135D01*
X171089701Y-63772697D01*
X171089701Y-63772700D01*
X171080000Y-63871210D01*
X164350000Y-63871210D01*
X164350000Y-63482172D01*
X164349999Y-63482155D01*
X164343598Y-63422627D01*
X164343596Y-63422620D01*
X164293354Y-63287913D01*
X164293350Y-63287906D01*
X164207190Y-63172812D01*
X164207187Y-63172809D01*
X164092093Y-63086649D01*
X164092086Y-63086645D01*
X163957379Y-63036403D01*
X163957372Y-63036401D01*
X163897844Y-63030000D01*
X163250000Y-63030000D01*
X163250000Y-63946988D01*
X163192993Y-63914075D01*
X163065826Y-63880000D01*
X162934174Y-63880000D01*
X162807007Y-63914075D01*
X162750000Y-63946988D01*
X162750000Y-63030000D01*
X162102155Y-63030000D01*
X162042627Y-63036401D01*
X162042620Y-63036403D01*
X161907913Y-63086645D01*
X161907906Y-63086649D01*
X161792812Y-63172809D01*
X161792809Y-63172812D01*
X161706649Y-63287906D01*
X161706645Y-63287913D01*
X161656403Y-63422620D01*
X161656401Y-63422627D01*
X161650000Y-63482155D01*
X161650000Y-64130000D01*
X162566988Y-64130000D01*
X162534075Y-64187007D01*
X162500000Y-64314174D01*
X162500000Y-64445826D01*
X162534075Y-64572993D01*
X162566988Y-64630000D01*
X161650000Y-64630000D01*
X161650000Y-65277844D01*
X161656401Y-65337372D01*
X161656403Y-65337379D01*
X161706645Y-65472086D01*
X161706649Y-65472093D01*
X161792809Y-65587187D01*
X161792812Y-65587190D01*
X161907906Y-65673350D01*
X161907913Y-65673354D01*
X162039470Y-65722422D01*
X162095404Y-65764293D01*
X162119821Y-65829758D01*
X162104969Y-65898031D01*
X162083819Y-65926285D01*
X161969889Y-66040215D01*
X161844951Y-66212179D01*
X161748444Y-66401585D01*
X161682753Y-66603760D01*
X161649500Y-66813713D01*
X156266124Y-66813713D01*
X156342361Y-66713179D01*
X156344970Y-66709859D01*
X157032632Y-65864609D01*
X157035275Y-65861472D01*
X157751366Y-65040225D01*
X157754197Y-65037087D01*
X157991448Y-64783053D01*
X158497950Y-64240721D01*
X158500836Y-64237736D01*
X159271300Y-63467272D01*
X159274315Y-63464359D01*
X159276793Y-63462044D01*
X160070657Y-62720626D01*
X160073796Y-62717796D01*
X160895037Y-62001710D01*
X160898174Y-61999067D01*
X161743441Y-61311391D01*
X161746736Y-61308802D01*
X162614983Y-60650390D01*
X162618308Y-60647957D01*
X163508508Y-60019586D01*
X163511939Y-60017250D01*
X164423101Y-59419619D01*
X164426646Y-59417380D01*
X165357603Y-58851252D01*
X165361225Y-58849133D01*
X166311027Y-58315086D01*
X166314678Y-58313115D01*
X167282180Y-57811796D01*
X167285883Y-57809957D01*
X168269887Y-57341986D01*
X168273731Y-57340238D01*
X169273107Y-56906147D01*
X169276996Y-56904537D01*
X170290636Y-56504808D01*
X170294541Y-56503344D01*
X171321257Y-56138449D01*
X171325203Y-56137122D01*
X172363782Y-55807491D01*
X172367798Y-55806292D01*
X173417063Y-55512301D01*
X173421040Y-55511260D01*
X174479733Y-55253265D01*
X174483761Y-55252356D01*
X175550577Y-55030669D01*
X175554719Y-55029881D01*
X176628509Y-54844741D01*
X176632619Y-54844104D01*
X177712124Y-54695729D01*
X177716223Y-54695237D01*
X178800161Y-54583805D01*
X178804333Y-54583447D01*
X179891436Y-54509088D01*
X179895550Y-54508877D01*
X180959909Y-54472517D01*
X180984556Y-54471676D01*
X180988789Y-54471604D01*
X182078341Y-54471604D01*
X182082574Y-54471676D01*
G37*
%TD.AperFunction*%
%TD*%
M02*
