%TF.GenerationSoftware,KiCad,Pcbnew,9.0.6*%
%TF.CreationDate,2025-12-13T20:02:28-06:00*%
%TF.ProjectId,turn-taker,7475726e-2d74-4616-9b65-722e6b696361,rev?*%
%TF.SameCoordinates,Original*%
%TF.FileFunction,Legend,Bot*%
%TF.FilePolarity,Positive*%
%FSLAX46Y46*%
G04 Gerber Fmt 4.6, Leading zero omitted, Abs format (unit mm)*
G04 Created by KiCad (PCBNEW 9.0.6) date 2025-12-13 20:02:28*
%MOMM*%
%LPD*%
G01*
G04 APERTURE LIST*
%ADD10C,0.150000*%
G04 APERTURE END LIST*
D10*
X206091792Y-75618390D02*
X206567982Y-75380295D01*
X206567982Y-75380295D02*
X207282268Y-75380295D01*
X207282268Y-75380295D02*
X207996554Y-75618390D01*
X207996554Y-75618390D02*
X208472744Y-76094580D01*
X208472744Y-76094580D02*
X208710839Y-76570771D01*
X208710839Y-76570771D02*
X208948935Y-77523152D01*
X208948935Y-77523152D02*
X208948935Y-78237438D01*
X208948935Y-78237438D02*
X208710839Y-79189819D01*
X208710839Y-79189819D02*
X208472744Y-79666009D01*
X208472744Y-79666009D02*
X207996554Y-80142200D01*
X207996554Y-80142200D02*
X207282268Y-80380295D01*
X207282268Y-80380295D02*
X206806077Y-80380295D01*
X206806077Y-80380295D02*
X206091792Y-80142200D01*
X206091792Y-80142200D02*
X205853696Y-79904104D01*
X205853696Y-79904104D02*
X205853696Y-78237438D01*
X205853696Y-78237438D02*
X206806077Y-78237438D01*
X203710839Y-80380295D02*
X203710839Y-77046961D01*
X203710839Y-77999342D02*
X203472744Y-77523152D01*
X203472744Y-77523152D02*
X203234649Y-77285057D01*
X203234649Y-77285057D02*
X202758458Y-77046961D01*
X202758458Y-77046961D02*
X202282268Y-77046961D01*
X200615601Y-80380295D02*
X200615601Y-77046961D01*
X200615601Y-75380295D02*
X200853697Y-75618390D01*
X200853697Y-75618390D02*
X200615601Y-75856485D01*
X200615601Y-75856485D02*
X200377506Y-75618390D01*
X200377506Y-75618390D02*
X200615601Y-75380295D01*
X200615601Y-75380295D02*
X200615601Y-75856485D01*
X198472745Y-80142200D02*
X197996554Y-80380295D01*
X197996554Y-80380295D02*
X197044173Y-80380295D01*
X197044173Y-80380295D02*
X196567983Y-80142200D01*
X196567983Y-80142200D02*
X196329887Y-79666009D01*
X196329887Y-79666009D02*
X196329887Y-79427914D01*
X196329887Y-79427914D02*
X196567983Y-78951723D01*
X196567983Y-78951723D02*
X197044173Y-78713628D01*
X197044173Y-78713628D02*
X197758459Y-78713628D01*
X197758459Y-78713628D02*
X198234649Y-78475533D01*
X198234649Y-78475533D02*
X198472745Y-77999342D01*
X198472745Y-77999342D02*
X198472745Y-77761247D01*
X198472745Y-77761247D02*
X198234649Y-77285057D01*
X198234649Y-77285057D02*
X197758459Y-77046961D01*
X197758459Y-77046961D02*
X197044173Y-77046961D01*
X197044173Y-77046961D02*
X196567983Y-77285057D01*
X194425126Y-80142200D02*
X193948935Y-80380295D01*
X193948935Y-80380295D02*
X192996554Y-80380295D01*
X192996554Y-80380295D02*
X192520364Y-80142200D01*
X192520364Y-80142200D02*
X192282268Y-79666009D01*
X192282268Y-79666009D02*
X192282268Y-79427914D01*
X192282268Y-79427914D02*
X192520364Y-78951723D01*
X192520364Y-78951723D02*
X192996554Y-78713628D01*
X192996554Y-78713628D02*
X193710840Y-78713628D01*
X193710840Y-78713628D02*
X194187030Y-78475533D01*
X194187030Y-78475533D02*
X194425126Y-77999342D01*
X194425126Y-77999342D02*
X194425126Y-77761247D01*
X194425126Y-77761247D02*
X194187030Y-77285057D01*
X194187030Y-77285057D02*
X193710840Y-77046961D01*
X193710840Y-77046961D02*
X192996554Y-77046961D01*
X192996554Y-77046961D02*
X192520364Y-77285057D01*
X189425126Y-80380295D02*
X189901316Y-80142200D01*
X189901316Y-80142200D02*
X190139411Y-79904104D01*
X190139411Y-79904104D02*
X190377507Y-79427914D01*
X190377507Y-79427914D02*
X190377507Y-77999342D01*
X190377507Y-77999342D02*
X190139411Y-77523152D01*
X190139411Y-77523152D02*
X189901316Y-77285057D01*
X189901316Y-77285057D02*
X189425126Y-77046961D01*
X189425126Y-77046961D02*
X188710840Y-77046961D01*
X188710840Y-77046961D02*
X188234649Y-77285057D01*
X188234649Y-77285057D02*
X187996554Y-77523152D01*
X187996554Y-77523152D02*
X187758459Y-77999342D01*
X187758459Y-77999342D02*
X187758459Y-79427914D01*
X187758459Y-79427914D02*
X187996554Y-79904104D01*
X187996554Y-79904104D02*
X188234649Y-80142200D01*
X188234649Y-80142200D02*
X188710840Y-80380295D01*
X188710840Y-80380295D02*
X189425126Y-80380295D01*
X185615601Y-80380295D02*
X185615601Y-77046961D01*
X185615601Y-77523152D02*
X185377506Y-77285057D01*
X185377506Y-77285057D02*
X184901316Y-77046961D01*
X184901316Y-77046961D02*
X184187030Y-77046961D01*
X184187030Y-77046961D02*
X183710839Y-77285057D01*
X183710839Y-77285057D02*
X183472744Y-77761247D01*
X183472744Y-77761247D02*
X183472744Y-80380295D01*
X183472744Y-77761247D02*
X183234649Y-77285057D01*
X183234649Y-77285057D02*
X182758458Y-77046961D01*
X182758458Y-77046961D02*
X182044173Y-77046961D01*
X182044173Y-77046961D02*
X181567982Y-77285057D01*
X181567982Y-77285057D02*
X181329887Y-77761247D01*
X181329887Y-77761247D02*
X181329887Y-80380295D01*
X172520363Y-75618390D02*
X172996553Y-75380295D01*
X172996553Y-75380295D02*
X173710839Y-75380295D01*
X173710839Y-75380295D02*
X174425125Y-75618390D01*
X174425125Y-75618390D02*
X174901315Y-76094580D01*
X174901315Y-76094580D02*
X175139410Y-76570771D01*
X175139410Y-76570771D02*
X175377506Y-77523152D01*
X175377506Y-77523152D02*
X175377506Y-78237438D01*
X175377506Y-78237438D02*
X175139410Y-79189819D01*
X175139410Y-79189819D02*
X174901315Y-79666009D01*
X174901315Y-79666009D02*
X174425125Y-80142200D01*
X174425125Y-80142200D02*
X173710839Y-80380295D01*
X173710839Y-80380295D02*
X173234648Y-80380295D01*
X173234648Y-80380295D02*
X172520363Y-80142200D01*
X172520363Y-80142200D02*
X172282267Y-79904104D01*
X172282267Y-79904104D02*
X172282267Y-78237438D01*
X172282267Y-78237438D02*
X173234648Y-78237438D01*
X170139410Y-80380295D02*
X170139410Y-77046961D01*
X170139410Y-75380295D02*
X170377506Y-75618390D01*
X170377506Y-75618390D02*
X170139410Y-75856485D01*
X170139410Y-75856485D02*
X169901315Y-75618390D01*
X169901315Y-75618390D02*
X170139410Y-75380295D01*
X170139410Y-75380295D02*
X170139410Y-75856485D01*
X167758458Y-80380295D02*
X167758458Y-77046961D01*
X167758458Y-77999342D02*
X167520363Y-77523152D01*
X167520363Y-77523152D02*
X167282268Y-77285057D01*
X167282268Y-77285057D02*
X166806077Y-77046961D01*
X166806077Y-77046961D02*
X166329887Y-77046961D01*
X163948935Y-80380295D02*
X164425125Y-80142200D01*
X164425125Y-80142200D02*
X164663220Y-79666009D01*
X164663220Y-79666009D02*
X164663220Y-75380295D01*
X162282268Y-80142200D02*
X161806077Y-80380295D01*
X161806077Y-80380295D02*
X160853696Y-80380295D01*
X160853696Y-80380295D02*
X160377506Y-80142200D01*
X160377506Y-80142200D02*
X160139410Y-79666009D01*
X160139410Y-79666009D02*
X160139410Y-79427914D01*
X160139410Y-79427914D02*
X160377506Y-78951723D01*
X160377506Y-78951723D02*
X160853696Y-78713628D01*
X160853696Y-78713628D02*
X161567982Y-78713628D01*
X161567982Y-78713628D02*
X162044172Y-78475533D01*
X162044172Y-78475533D02*
X162282268Y-77999342D01*
X162282268Y-77999342D02*
X162282268Y-77761247D01*
X162282268Y-77761247D02*
X162044172Y-77285057D01*
X162044172Y-77285057D02*
X161567982Y-77046961D01*
X161567982Y-77046961D02*
X160853696Y-77046961D01*
X160853696Y-77046961D02*
X160377506Y-77285057D01*
M02*
