%TF.GenerationSoftware,KiCad,Pcbnew,9.0.6*%
%TF.CreationDate,2025-12-13T20:02:29-06:00*%
%TF.ProjectId,turn-taker,7475726e-2d74-4616-9b65-722e6b696361,rev?*%
%TF.SameCoordinates,Original*%
%TF.FileFunction,Soldermask,Top*%
%TF.FilePolarity,Negative*%
%FSLAX46Y46*%
G04 Gerber Fmt 4.6, Leading zero omitted, Abs format (unit mm)*
G04 Created by KiCad (PCBNEW 9.0.6) date 2025-12-13 20:02:29*
%MOMM*%
%LPD*%
G01*
G04 APERTURE LIST*
G04 Aperture macros list*
%AMRoundRect*
0 Rectangle with rounded corners*
0 $1 Rounding radius*
0 $2 $3 $4 $5 $6 $7 $8 $9 X,Y pos of 4 corners*
0 Add a 4 corners polygon primitive as box body*
4,1,4,$2,$3,$4,$5,$6,$7,$8,$9,$2,$3,0*
0 Add four circle primitives for the rounded corners*
1,1,$1+$1,$2,$3*
1,1,$1+$1,$4,$5*
1,1,$1+$1,$6,$7*
1,1,$1+$1,$8,$9*
0 Add four rect primitives between the rounded corners*
20,1,$1+$1,$2,$3,$4,$5,0*
20,1,$1+$1,$4,$5,$6,$7,0*
20,1,$1+$1,$6,$7,$8,$9,0*
20,1,$1+$1,$8,$9,$2,$3,0*%
%AMFreePoly0*
4,1,37,0.800000,0.796148,0.878414,0.796148,1.032228,0.765552,1.177117,0.705537,1.307515,0.618408,1.418408,0.507515,1.505537,0.377117,1.565552,0.232228,1.596148,0.078414,1.596148,-0.078414,1.565552,-0.232228,1.505537,-0.377117,1.418408,-0.507515,1.307515,-0.618408,1.177117,-0.705537,1.032228,-0.765552,0.878414,-0.796148,0.800000,-0.796148,0.800000,-0.800000,-1.400000,-0.800000,
-1.403843,-0.796157,-1.439018,-0.796157,-1.511114,-0.766294,-1.566294,-0.711114,-1.596157,-0.639018,-1.596157,-0.603843,-1.600000,-0.600000,-1.600000,0.600000,-1.596157,0.603843,-1.596157,0.639018,-1.566294,0.711114,-1.511114,0.766294,-1.439018,0.796157,-1.403843,0.796157,-1.400000,0.800000,0.800000,0.800000,0.800000,0.796148,0.800000,0.796148,$1*%
%AMFreePoly1*
4,1,37,1.403843,0.796157,1.439018,0.796157,1.511114,0.766294,1.566294,0.711114,1.596157,0.639018,1.596157,0.603843,1.600000,0.600000,1.600000,-0.600000,1.596157,-0.603843,1.596157,-0.639018,1.566294,-0.711114,1.511114,-0.766294,1.439018,-0.796157,1.403843,-0.796157,1.400000,-0.800000,-0.800000,-0.800000,-0.800000,-0.796148,-0.878414,-0.796148,-1.032228,-0.765552,-1.177117,-0.705537,
-1.307515,-0.618408,-1.418408,-0.507515,-1.505537,-0.377117,-1.565552,-0.232228,-1.596148,-0.078414,-1.596148,0.078414,-1.565552,0.232228,-1.505537,0.377117,-1.418408,0.507515,-1.307515,0.618408,-1.177117,0.705537,-1.032228,0.765552,-0.878414,0.796148,-0.800000,0.796148,-0.800000,0.800000,1.400000,0.800000,1.403843,0.796157,1.403843,0.796157,$1*%
%AMFreePoly2*
4,1,37,0.603843,0.796157,0.639018,0.796157,0.711114,0.766294,0.766294,0.711114,0.796157,0.639018,0.796157,0.603843,0.800000,0.600000,0.800000,-0.600000,0.796157,-0.603843,0.796157,-0.639018,0.766294,-0.711114,0.711114,-0.766294,0.639018,-0.796157,0.603843,-0.796157,0.600000,-0.800000,0.000000,-0.800000,0.000000,-0.796148,-0.078414,-0.796148,-0.232228,-0.765552,-0.377117,-0.705537,
-0.507515,-0.618408,-0.618408,-0.507515,-0.705537,-0.377117,-0.765552,-0.232228,-0.796148,-0.078414,-0.796148,0.078414,-0.765552,0.232228,-0.705537,0.377117,-0.618408,0.507515,-0.507515,0.618408,-0.377117,0.705537,-0.232228,0.765552,-0.078414,0.796148,0.000000,0.796148,0.000000,0.800000,0.600000,0.800000,0.603843,0.796157,0.603843,0.796157,$1*%
%AMFreePoly3*
4,1,37,0.000000,0.796148,0.078414,0.796148,0.232228,0.765552,0.377117,0.705537,0.507515,0.618408,0.618408,0.507515,0.705537,0.377117,0.765552,0.232228,0.796148,0.078414,0.796148,-0.078414,0.765552,-0.232228,0.705537,-0.377117,0.618408,-0.507515,0.507515,-0.618408,0.377117,-0.705537,0.232228,-0.765552,0.078414,-0.796148,0.000000,-0.796148,0.000000,-0.800000,-0.600000,-0.800000,
-0.603843,-0.796157,-0.639018,-0.796157,-0.711114,-0.766294,-0.766294,-0.711114,-0.796157,-0.639018,-0.796157,-0.603843,-0.800000,-0.600000,-0.800000,0.600000,-0.796157,0.603843,-0.796157,0.639018,-0.766294,0.711114,-0.711114,0.766294,-0.639018,0.796157,-0.603843,0.796157,-0.600000,0.800000,0.000000,0.800000,0.000000,0.796148,0.000000,0.796148,$1*%
G04 Aperture macros list end*
%ADD10C,2.200000*%
%ADD11C,1.850000*%
%ADD12FreePoly0,0.000000*%
%ADD13RoundRect,0.200000X-0.600000X-0.600000X0.600000X-0.600000X0.600000X0.600000X-0.600000X0.600000X0*%
%ADD14RoundRect,0.800000X-0.800000X-0.000010X0.800000X-0.000010X0.800000X0.000010X-0.800000X0.000010X0*%
%ADD15C,1.600000*%
%ADD16FreePoly1,0.000000*%
%ADD17FreePoly2,0.000000*%
%ADD18FreePoly3,0.000000*%
%ADD19R,1.700000X1.700000*%
%ADD20C,1.700000*%
%ADD21R,0.800000X1.000000*%
%ADD22C,0.900000*%
%ADD23R,1.500000X0.700000*%
%ADD24C,2.000000*%
%ADD25RoundRect,0.250000X-0.350000X-0.625000X0.350000X-0.625000X0.350000X0.625000X-0.350000X0.625000X0*%
%ADD26O,1.200000X1.750000*%
G04 APERTURE END LIST*
D10*
%TO.C,A1*%
X178550000Y-59000000D03*
D11*
X178850000Y-62030000D03*
X183700000Y-62030000D03*
D10*
X184000000Y-59000000D03*
D12*
X171585000Y-58870000D03*
D13*
X172385000Y-58870000D03*
D14*
X171585000Y-61410000D03*
D15*
X172385000Y-61410000D03*
D16*
X171585000Y-63950000D03*
D17*
X172385000Y-63950000D03*
D14*
X171585000Y-66490000D03*
D15*
X172385000Y-66490000D03*
D14*
X171585000Y-69030000D03*
D15*
X172385000Y-69030000D03*
D14*
X171585000Y-71570000D03*
D15*
X172385000Y-71570000D03*
D14*
X171585000Y-74110000D03*
D15*
X172385000Y-74110000D03*
D16*
X171585000Y-76650000D03*
D17*
X172385000Y-76650000D03*
D14*
X171585000Y-79190000D03*
D15*
X172385000Y-79190000D03*
D14*
X171585000Y-81730000D03*
D15*
X172385000Y-81730000D03*
D14*
X171585000Y-84270000D03*
D15*
X172385000Y-84270000D03*
D14*
X171585000Y-86810000D03*
D15*
X172385000Y-86810000D03*
D16*
X171585000Y-89350000D03*
D17*
X172385000Y-89350000D03*
D14*
X171585000Y-91890000D03*
D15*
X172385000Y-91890000D03*
D14*
X171585000Y-94430000D03*
D15*
X172385000Y-94430000D03*
D14*
X171585000Y-96970000D03*
D15*
X172385000Y-96970000D03*
D14*
X171585000Y-99510000D03*
D15*
X172385000Y-99510000D03*
D16*
X171585000Y-102050000D03*
D17*
X172385000Y-102050000D03*
D14*
X171585000Y-104590000D03*
D15*
X172385000Y-104590000D03*
D14*
X171585000Y-107130000D03*
D15*
X172385000Y-107130000D03*
X190165000Y-107130000D03*
D14*
X190965000Y-107130000D03*
D15*
X190165000Y-104590000D03*
D14*
X190965000Y-104590000D03*
D18*
X190165000Y-102050000D03*
D12*
X190965000Y-102050000D03*
D15*
X190165000Y-99510000D03*
D14*
X190965000Y-99510000D03*
D15*
X190165000Y-96970000D03*
D14*
X190965000Y-96970000D03*
D15*
X190165000Y-94430000D03*
D14*
X190965000Y-94430000D03*
D15*
X190165000Y-91890000D03*
D14*
X190965000Y-91890000D03*
D18*
X190165000Y-89350000D03*
D12*
X190965000Y-89350000D03*
D15*
X190165000Y-86810000D03*
D14*
X190965000Y-86810000D03*
D15*
X190165000Y-84270000D03*
D14*
X190965000Y-84270000D03*
D15*
X190165000Y-81730000D03*
D14*
X190965000Y-81730000D03*
D15*
X190165000Y-79190000D03*
D14*
X190965000Y-79190000D03*
D18*
X190165000Y-76650000D03*
D12*
X190965000Y-76650000D03*
D15*
X190165000Y-74110000D03*
D14*
X190965000Y-74110000D03*
D15*
X190165000Y-71570000D03*
D14*
X190965000Y-71570000D03*
D15*
X190165000Y-69030000D03*
D14*
X190965000Y-69030000D03*
D15*
X190165000Y-66490000D03*
D14*
X190965000Y-66490000D03*
D18*
X190165000Y-63950000D03*
D12*
X190965000Y-63950000D03*
D15*
X190165000Y-61410000D03*
D14*
X190965000Y-61410000D03*
D15*
X190165000Y-58870000D03*
D14*
X190965000Y-58870000D03*
%TD*%
D19*
%TO.C,J2*%
X199500000Y-64380000D03*
D20*
X199500000Y-66920000D03*
X199500000Y-69460000D03*
X199500000Y-72000000D03*
%TD*%
D19*
%TO.C,J1*%
X163000000Y-64380000D03*
D20*
X163000000Y-66920000D03*
X163000000Y-69460000D03*
X163000000Y-72000000D03*
%TD*%
D21*
%TO.C,SW3*%
X206000000Y-90800000D03*
X208210000Y-90800000D03*
D22*
X207110000Y-88650000D03*
X207110000Y-85650000D03*
D21*
X206000000Y-83500000D03*
X208210000Y-83500000D03*
D23*
X205350000Y-89400000D03*
X205350000Y-86400000D03*
X205350000Y-84900000D03*
%TD*%
D24*
%TO.C,SW1*%
X158500000Y-84000000D03*
X165000000Y-84000000D03*
X158500000Y-88500000D03*
X165000000Y-88500000D03*
%TD*%
D25*
%TO.C,Bat_In1*%
X199000000Y-98500000D03*
D26*
X201000000Y-98500000D03*
X203000000Y-98500000D03*
%TD*%
D24*
%TO.C,SW2*%
X158500000Y-98500000D03*
X165000000Y-98500000D03*
X158500000Y-103000000D03*
X165000000Y-103000000D03*
%TD*%
M02*
