%TF.GenerationSoftware,KiCad,Pcbnew,9.0.6*%
%TF.CreationDate,2025-12-15T22:36:06-06:00*%
%TF.ProjectId,turn-taker,7475726e-2d74-4616-9b65-722e6b696361,rev?*%
%TF.SameCoordinates,Original*%
%TF.FileFunction,Soldermask,Bot*%
%TF.FilePolarity,Negative*%
%FSLAX46Y46*%
G04 Gerber Fmt 4.6, Leading zero omitted, Abs format (unit mm)*
G04 Created by KiCad (PCBNEW 9.0.6) date 2025-12-15 22:36:06*
%MOMM*%
%LPD*%
G01*
G04 APERTURE LIST*
G04 Aperture macros list*
%AMRoundRect*
0 Rectangle with rounded corners*
0 $1 Rounding radius*
0 $2 $3 $4 $5 $6 $7 $8 $9 X,Y pos of 4 corners*
0 Add a 4 corners polygon primitive as box body*
4,1,4,$2,$3,$4,$5,$6,$7,$8,$9,$2,$3,0*
0 Add four circle primitives for the rounded corners*
1,1,$1+$1,$2,$3*
1,1,$1+$1,$4,$5*
1,1,$1+$1,$6,$7*
1,1,$1+$1,$8,$9*
0 Add four rect primitives between the rounded corners*
20,1,$1+$1,$2,$3,$4,$5,0*
20,1,$1+$1,$4,$5,$6,$7,0*
20,1,$1+$1,$6,$7,$8,$9,0*
20,1,$1+$1,$8,$9,$2,$3,0*%
%AMFreePoly0*
4,1,37,0.603843,0.796157,0.639018,0.796157,0.711114,0.766294,0.766294,0.711114,0.796157,0.639018,0.796157,0.603843,0.800000,0.600000,0.800000,-0.600000,0.796157,-0.603843,0.796157,-0.639018,0.766294,-0.711114,0.711114,-0.766294,0.639018,-0.796157,0.603843,-0.796157,0.600000,-0.800000,0.000000,-0.800000,0.000000,-0.796148,-0.078414,-0.796148,-0.232228,-0.765552,-0.377117,-0.705537,
-0.507515,-0.618408,-0.618408,-0.507515,-0.705537,-0.377117,-0.765552,-0.232228,-0.796148,-0.078414,-0.796148,0.078414,-0.765552,0.232228,-0.705537,0.377117,-0.618408,0.507515,-0.507515,0.618408,-0.377117,0.705537,-0.232228,0.765552,-0.078414,0.796148,0.000000,0.796148,0.000000,0.800000,0.600000,0.800000,0.603843,0.796157,0.603843,0.796157,$1*%
%AMFreePoly1*
4,1,37,0.000000,0.796148,0.078414,0.796148,0.232228,0.765552,0.377117,0.705537,0.507515,0.618408,0.618408,0.507515,0.705537,0.377117,0.765552,0.232228,0.796148,0.078414,0.796148,-0.078414,0.765552,-0.232228,0.705537,-0.377117,0.618408,-0.507515,0.507515,-0.618408,0.377117,-0.705537,0.232228,-0.765552,0.078414,-0.796148,0.000000,-0.796148,0.000000,-0.800000,-0.600000,-0.800000,
-0.603843,-0.796157,-0.639018,-0.796157,-0.711114,-0.766294,-0.766294,-0.711114,-0.796157,-0.639018,-0.796157,-0.603843,-0.800000,-0.600000,-0.800000,0.600000,-0.796157,0.603843,-0.796157,0.639018,-0.766294,0.711114,-0.711114,0.766294,-0.639018,0.796157,-0.603843,0.796157,-0.600000,0.800000,0.000000,0.800000,0.000000,0.796148,0.000000,0.796148,$1*%
G04 Aperture macros list end*
%ADD10C,2.200000*%
%ADD11C,1.850000*%
%ADD12RoundRect,0.200000X-0.600000X-0.600000X0.600000X-0.600000X0.600000X0.600000X-0.600000X0.600000X0*%
%ADD13C,1.600000*%
%ADD14FreePoly0,0.000000*%
%ADD15FreePoly1,0.000000*%
%ADD16R,1.700000X1.700000*%
%ADD17C,1.700000*%
%ADD18C,2.000000*%
%ADD19O,2.804000X1.504000*%
%ADD20RoundRect,0.250000X-0.350000X-0.625000X0.350000X-0.625000X0.350000X0.625000X-0.350000X0.625000X0*%
%ADD21O,1.200000X1.750000*%
%ADD22RoundRect,0.250000X-0.625000X0.350000X-0.625000X-0.350000X0.625000X-0.350000X0.625000X0.350000X0*%
%ADD23O,1.750000X1.200000*%
G04 APERTURE END LIST*
D10*
%TO.C,A1*%
X178550000Y-59000000D03*
D11*
X178850000Y-62030000D03*
X183700000Y-62030000D03*
D10*
X184000000Y-59000000D03*
D12*
X172385000Y-58870000D03*
D13*
X172385000Y-61410000D03*
D14*
X172385000Y-63950000D03*
D13*
X172385000Y-66490000D03*
X172385000Y-69030000D03*
X172385000Y-71570000D03*
X172385000Y-74110000D03*
D14*
X172385000Y-76650000D03*
D13*
X172385000Y-79190000D03*
X172385000Y-81730000D03*
X172385000Y-84270000D03*
X172385000Y-86810000D03*
D14*
X172385000Y-89350000D03*
D13*
X172385000Y-91890000D03*
X172385000Y-94430000D03*
X172385000Y-96970000D03*
X172385000Y-99510000D03*
D14*
X172385000Y-102050000D03*
D13*
X172385000Y-104590000D03*
X172385000Y-107130000D03*
X190165000Y-107130000D03*
X190165000Y-104590000D03*
D15*
X190165000Y-102050000D03*
D13*
X190165000Y-99510000D03*
X190165000Y-96970000D03*
X190165000Y-94430000D03*
X190165000Y-91890000D03*
D15*
X190165000Y-89350000D03*
D13*
X190165000Y-86810000D03*
X190165000Y-84270000D03*
X190165000Y-81730000D03*
X190165000Y-79190000D03*
D15*
X190165000Y-76650000D03*
D13*
X190165000Y-74110000D03*
X190165000Y-71570000D03*
X190165000Y-69030000D03*
X190165000Y-66490000D03*
D15*
X190165000Y-63950000D03*
D13*
X190165000Y-61410000D03*
X190165000Y-58870000D03*
%TD*%
D16*
%TO.C,J2*%
X199500000Y-64380000D03*
D17*
X199500000Y-66920000D03*
X199500000Y-69460000D03*
X199500000Y-72000000D03*
%TD*%
D18*
%TO.C,SW1*%
X158500000Y-84000000D03*
X165000000Y-84000000D03*
X158500000Y-88500000D03*
X165000000Y-88500000D03*
%TD*%
D19*
%TO.C,S1*%
X200000000Y-90900000D03*
X200000000Y-86200000D03*
X200000000Y-81500000D03*
%TD*%
D20*
%TO.C,Bat_In1*%
X199000000Y-98500000D03*
D21*
X201000000Y-98500000D03*
X203000000Y-98500000D03*
%TD*%
D18*
%TO.C,SW2*%
X158500000Y-98500000D03*
X165000000Y-98500000D03*
X158500000Y-103000000D03*
X165000000Y-103000000D03*
%TD*%
D22*
%TO.C,J1*%
X163000000Y-69000000D03*
D23*
X163000000Y-71000000D03*
X163000000Y-73000000D03*
X163000000Y-75000000D03*
%TD*%
M02*
