M48
; DRILL file {KiCad 9.0.6} date 2025-12-15T22:35:59-0600
; FORMAT={-:-/ absolute / metric / decimal}
; #@! TF.CreationDate,2025-12-15T22:35:59-06:00
; #@! TF.GenerationSoftware,Kicad,Pcbnew,9.0.6
; #@! TF.FileFunction,Plated,1,2,PTH
FMAT,2
METRIC
; #@! TA.AperFunction,Plated,PTH,ComponentDrill
T1C0.750
; #@! TA.AperFunction,Plated,PTH,ComponentDrill
T2C1.000
; #@! TA.AperFunction,Plated,PTH,ComponentDrill
T3C1.100
%
G90
G05
T1
X163.0Y-69.0
X163.0Y-71.0
X163.0Y-73.0
X163.0Y-75.0
X199.0Y-98.5
X201.0Y-98.5
X203.0Y-98.5
T2
X172.385Y-58.87
X172.385Y-61.41
X172.385Y-63.95
X172.385Y-66.49
X172.385Y-69.03
X172.385Y-71.57
X172.385Y-74.11
X172.385Y-76.65
X172.385Y-79.19
X172.385Y-81.73
X172.385Y-84.27
X172.385Y-86.81
X172.385Y-89.35
X172.385Y-91.89
X172.385Y-94.43
X172.385Y-96.97
X172.385Y-99.51
X172.385Y-102.05
X172.385Y-104.59
X172.385Y-107.13
X190.165Y-58.87
X190.165Y-61.41
X190.165Y-63.95
X190.165Y-66.49
X190.165Y-69.03
X190.165Y-71.57
X190.165Y-74.11
X190.165Y-76.65
X190.165Y-79.19
X190.165Y-81.73
X190.165Y-84.27
X190.165Y-86.81
X190.165Y-89.35
X190.165Y-91.89
X190.165Y-94.43
X190.165Y-96.97
X190.165Y-99.51
X190.165Y-102.05
X190.165Y-104.59
X190.165Y-107.13
X199.5Y-64.38
X199.5Y-66.92
X199.5Y-69.46
X199.5Y-72.0
T3
X158.5Y-84.0
X158.5Y-88.5
X158.5Y-98.5
X158.5Y-103.0
X165.0Y-84.0
X165.0Y-88.5
X165.0Y-98.5
X165.0Y-103.0
T2
G00X199.7Y-81.5
M15
G01X200.3Y-81.5
M16
G05
G00X199.7Y-86.2
M15
G01X200.3Y-86.2
M16
G05
G00X199.7Y-90.9
M15
G01X200.3Y-90.9
M16
G05
M30
